<?xml version="1.0" encoding="utf-8"?>
<!-- Generator: Adobe Illustrator 16.0.0, SVG Export Plug-In . SVG Version: 6.00 Build 0)  -->
<!DOCTYPE svg PUBLIC "-//W3C//DTD SVG 1.1//EN" "http://www.w3.org/Graphics/SVG/1.1/DTD/svg11.dtd">
<svg version="1.1" id="레이어_1" xmlns="http://www.w3.org/2000/svg" xmlns:xlink="http://www.w3.org/1999/xlink" x="0px"
	 y="0px" width="323.984px" height="304.089px" viewBox="0 0 323.984 304.089" enable-background="new 0 0 323.984 304.089"
	 xml:space="preserve">
<polyline fill="none" stroke="#F47B0F" stroke-width="12" stroke-miterlimit="10" points="578.003,61.982 602.511,38.91 
	618.224,57.619 634.951,30.801 "/>
<polyline fill="none" stroke="#441DB2" stroke-width="12" stroke-miterlimit="10" points="570.805,62.6 595.313,39.527 
	611.028,58.236 627.752,31.418 "/>
<rect x="487.26" y="92.559" transform="matrix(0.375 0.927 -0.927 0.375 411.9128 -398.05)" fill="none" stroke="#441DB2" stroke-width="11" stroke-miterlimit="10" width="27.787" height="27.787"/>
<rect x="494.996" y="77.989" transform="matrix(0.375 0.927 -0.927 0.375 403.241 -414.3285)" fill="none" stroke="#F47B0F" stroke-width="8" stroke-miterlimit="10" width="27.787" height="27.787"/>
<line fill="none" stroke="#441DB2" stroke-width="12" stroke-miterlimit="10" x1="463.445" y1="172.807" x2="420.833" y2="101.668"/>
<polyline fill="none" stroke="#F47B0F" stroke-width="12" stroke-miterlimit="10" points="603.279,110.475 595.582,139.68 
	569.38,134.887 572.972,165.449 534.675,168.988 "/>
<polyline fill="none" stroke="#441DB2" stroke-width="12" stroke-miterlimit="10" points="190.361,160.679 206.875,131.35 
	227.454,144.523 235.422,113.938 "/>
<line fill="none" stroke="#F47B0F" stroke-width="12" stroke-miterlimit="10" x1="248.379" y1="179.543" x2="299.412" y2="158.293"/>
<polyline fill="none" stroke="#F47B0F" stroke-width="12" stroke-miterlimit="10" points="187.208,151.533 203.724,122.204 
	224.3,135.379 232.271,104.794 "/>
<rect x="107.072" y="192.641" transform="matrix(0.2421 0.9702 -0.9702 0.2421 299.1267 38.2925)" fill="none" stroke="#441DB2" stroke-width="12" stroke-miterlimit="10" width="35.959" height="35.958"/>
<rect x="115.288" y="182.879" transform="matrix(0.2421 0.9702 -0.9702 0.2421 293.5233 23.213)" fill="none" stroke="#F47B0F" stroke-width="12" stroke-miterlimit="10" width="33.23" height="33.229"/>
<line fill="none" stroke="#441DB2" stroke-width="12" stroke-miterlimit="10" x1="109.794" y1="291.248" x2="47.914" y2="236.046"/>
<polyline fill="none" stroke="#F47B0F" stroke-width="12" stroke-miterlimit="10" points="223.901,197.894 225.259,228.065 
	198.819,231.3 211.359,259.403 175.858,274.198 "/>
<polyline fill="none" stroke="#441DB2" stroke-width="12" stroke-miterlimit="10" points="21.69,74.822 69.646,92.887 
	63.566,109.025 101.653,114.157 92.707,137.905 128.286,141.304 "/>
<line fill="none" stroke="#441DB2" stroke-width="12" stroke-miterlimit="10" x1="285.037" y1="66.146" x2="235.655" y2="22.093"/>
</svg>
