<?xml version="1.0" encoding="utf-8"?>
<!-- Generator: Adobe Illustrator 16.0.0, SVG Export Plug-In . SVG Version: 6.00 Build 0)  -->
<!DOCTYPE svg PUBLIC "-//W3C//DTD SVG 1.1//EN" "http://www.w3.org/Graphics/SVG/1.1/DTD/svg11.dtd">
<svg version="1.1" id="레이어_1" xmlns="http://www.w3.org/2000/svg" xmlns:xlink="http://www.w3.org/1999/xlink" x="0px"
	 y="0px" width="260.987px" height="188.043px" viewBox="0 0 260.987 188.043" enable-background="new 0 0 260.987 188.043"
	 xml:space="preserve">
<polyline fill="none" stroke="#F47B0F" stroke-width="12" stroke-miterlimit="10" points="185.57,46.035 210.078,22.963 
	225.791,41.672 242.517,14.854 "/>
<polyline fill="none" stroke="#441DB2" stroke-width="12" stroke-miterlimit="10" points="178.372,46.652 202.879,23.58 
	218.594,42.289 235.319,15.471 "/>
<rect x="94.827" y="76.612" transform="matrix(0.375 0.927 -0.927 0.375 151.8532 -44.2196)" fill="none" stroke="#441DB2" stroke-width="11" stroke-miterlimit="10" width="27.787" height="27.787"/>
<rect x="102.563" y="62.042" transform="matrix(0.375 0.927 -0.927 0.375 143.1814 -60.498)" fill="none" stroke="#F47B0F" stroke-width="8" stroke-miterlimit="10" width="27.787" height="27.787"/>
<line fill="none" stroke="#441DB2" stroke-width="12" stroke-miterlimit="10" x1="71.011" y1="156.859" x2="28.4" y2="85.721"/>
<polyline fill="none" stroke="#F47B0F" stroke-width="12" stroke-miterlimit="10" points="210.845,94.527 203.148,123.732 
	176.947,118.939 180.539,149.502 142.242,153.041 "/>
<polyline fill="none" stroke="#441DB2" stroke-width="12" stroke-miterlimit="10" points="-251.267,85.856 -234.752,56.527 
	-214.174,69.701 -206.205,39.116 "/>
<line fill="none" stroke="#F47B0F" stroke-width="12" stroke-miterlimit="10" x1="-193.248" y1="104.721" x2="-142.216" y2="83.471"/>
<polyline fill="none" stroke="#F47B0F" stroke-width="12" stroke-miterlimit="10" points="-254.42,76.711 -237.903,47.382 
	-217.327,60.557 -209.356,29.972 "/>
<rect x="-334.555" y="117.818" transform="matrix(0.2421 0.9702 -0.9702 0.2421 -108.1683 410.0735)" fill="none" stroke="#441DB2" stroke-width="12" stroke-miterlimit="10" width="35.959" height="35.958"/>
<rect x="-326.34" y="108.056" transform="matrix(0.2421 0.9702 -0.9702 0.2421 -113.7714 394.9939)" fill="none" stroke="#F47B0F" stroke-width="12" stroke-miterlimit="10" width="33.23" height="33.229"/>
<line fill="none" stroke="#441DB2" stroke-width="12" stroke-miterlimit="10" x1="-331.833" y1="216.426" x2="-393.714" y2="161.224"/>
<polyline fill="none" stroke="#F47B0F" stroke-width="12" stroke-miterlimit="10" points="-217.727,123.072 -216.368,153.243 
	-242.809,156.478 -230.269,184.581 -265.77,199.376 "/>
<polyline fill="none" stroke="#441DB2" stroke-width="12" stroke-miterlimit="10" points="-419.938,0 -371.981,18.064 
	-378.062,34.203 -339.975,39.335 -348.921,63.083 -313.342,66.481 "/>
<line fill="none" stroke="#441DB2" stroke-width="12" stroke-miterlimit="10" x1="-156.591" y1="-8.676" x2="-205.973" y2="-52.729"/>
</svg>
