<?xml version="1.0" encoding="utf-8"?>
<!-- Generator: Adobe Illustrator 16.0.0, SVG Export Plug-In . SVG Version: 6.00 Build 0)  -->
<!DOCTYPE svg PUBLIC "-//W3C//DTD SVG 1.1//EN" "http://www.w3.org/Graphics/SVG/1.1/DTD/svg11.dtd">
<svg version="1.1" id="레이어_1" xmlns="http://www.w3.org/2000/svg" xmlns:xlink="http://www.w3.org/1999/xlink" x="0px"
	 y="0px" width="1500px" height="210px" viewBox="0 0 1500 210" enable-background="new 0 0 1500 210" xml:space="preserve">
<line opacity="0.8" fill="none" stroke="#292A33" stroke-width="14" stroke-miterlimit="10" enable-background="new    " x1="1276.738" y1="62.198" x2="1334.213" y2="42.364"/>
<g opacity="0.9">
	
		<polyline opacity="0.9" fill="none" stroke="#441DB2" stroke-width="14" stroke-miterlimit="10" enable-background="new    " points="
		183.472,202.479 201.636,170.221 224.27,184.71 233.035,151.07 	"/>
	
		<polyline opacity="0.9" fill="none" stroke="#F47B0F" stroke-width="14" stroke-miterlimit="10" enable-background="new    " points="
		182.204,195.721 200.371,163.46 223.002,177.952 231.768,144.313 	"/>
	
		<rect x="127.456" y="132.146" transform="matrix(0.6342 0.7732 -0.7732 0.6342 166.202 -56.432)" opacity="0.9" fill="none" stroke="#441DB2" stroke-width="14" stroke-miterlimit="10" enable-background="new    " width="30.565" height="30.562"/>
	
		<rect x="110.94" y="127.163" transform="matrix(0.6342 0.7731 -0.7731 0.6342 156.2953 -45.4861)" opacity="0.9" fill="none" stroke="#F47B0F" stroke-width="14" stroke-miterlimit="10" enable-background="new    " width="30.561" height="30.56"/>
	
		<line opacity="0.9" fill="none" stroke="#441DB2" stroke-width="14" stroke-miterlimit="10" enable-background="new    " x1="86.716" y1="192.271" x2="18.655" y2="131.555"/>
	
		<polyline opacity="0.9" fill="none" stroke="#F47B0F" stroke-width="14" stroke-miterlimit="10" enable-background="new    " points="
		261.156,25.188 253.832,57.588 224.845,53.337 229.981,86.793 188.024,92.174 	"/>
	
		<polyline opacity="0.9" fill="none" stroke="#292A33" stroke-width="14" stroke-miterlimit="10" enable-background="new    " points="
		23.843,11.936 76.588,31.804 69.901,49.556 111.792,55.199 101.953,81.319 141.085,85.057 	"/>
	
		<line opacity="0.9" fill="none" stroke="#441DB2" stroke-width="14" stroke-miterlimit="10" enable-background="new    " x1="167.43" y1="38.987" x2="141.085" y2="15.483"/>
</g>
<g>
	<path fill="none" stroke="#441DB2" stroke-width="14" stroke-miterlimit="10" d="M682.125,63.829h33.29
		c20.919,0,38.138,7.397,38.138,30.866c0,22.577-17.476,32.524-37.499,32.524h-11.098v31.506h-22.831V63.829z M714.906,109.236
		c11.097,0,16.453-5.229,16.453-14.542c0-9.566-6.122-12.882-17.093-12.882h-9.312v27.422h9.951V109.236z"/>
	<path fill="none" stroke="#441DB2" stroke-width="14" stroke-miterlimit="10" d="M769.745,63.829h22.831v94.896h-22.831V63.829z"/>
	<path fill="none" stroke="#441DB2" stroke-width="14" stroke-miterlimit="10" d="M810.047,111.787
		c0-31.632,21.174-49.744,45.279-49.744c12.372,0,22.321,5.74,28.825,12.372l-11.987,14.541c-4.721-4.337-9.694-7.398-16.454-7.398
		c-12.245,0-22.321,10.97-22.321,29.463c0,18.877,8.675,29.848,22.066,29.848c7.524,0,13.646-3.827,18.11-8.674l11.989,14.285
		c-8.035,9.312-18.622,14.03-30.993,14.03C830.455,160.512,810.047,143.93,810.047,111.787z"/>
	<path fill="none" stroke="#441DB2" stroke-width="14" stroke-miterlimit="10" d="M899.452,63.829h22.83v37.499h0.384l26.911-37.499
		h25l-28.696,38.009l34.055,56.887h-25l-22.319-38.901l-10.332,14.03v24.871h-22.83L899.452,63.829L899.452,63.829z"/>
	<path fill="none" stroke="#441DB2" stroke-width="14" stroke-miterlimit="10" d="M989.75,63.829h22.832v75.765h36.86v19.131H989.75
		V63.829z"/>
	<path fill="none" stroke="#441DB2" stroke-width="14" stroke-miterlimit="10" d="M1065.891,63.829h60.203v18.877h-37.373v17.602
		h31.76v19.131h-31.76v20.153h38.774v19.132h-61.604V63.829z"/>
</g>
<g>
	<path fill="#292A33" d="M349.664,58.142h9.711v32.222h15.677V98.5h-25.388V58.142z"/>
	<path fill="#292A33" d="M378.681,83.094c0-10.035,7.16-16.219,14.646-16.219c8.896,0,13.236,6.455,13.236,14.917
		c0,1.682-0.217,3.417-0.434,4.123h-18.118c0.868,4.231,3.797,5.967,7.703,5.967c2.224,0,4.286-0.651,6.509-1.953l3.201,5.804
		c-3.201,2.278-7.433,3.526-11.066,3.526C385.516,99.259,378.681,93.292,378.681,83.094z M398.371,79.623
		c0-3.092-1.355-5.37-4.882-5.37c-2.657,0-4.989,1.682-5.641,5.37H398.371z"/>
	<path fill="#292A33" d="M413.339,87.054V75.175h-4.178v-7.161l4.72-0.379l1.085-8.137h8.027v8.137h7.27v7.54h-7.27v11.771
		c0,3.417,1.627,4.773,3.905,4.773c0.977,0,2.063-0.325,2.82-0.542l1.52,6.943c-1.627,0.488-3.853,1.139-6.998,1.139
		C416.485,99.259,413.339,94.377,413.339,87.054z"/>
	<path fill="#292A33" d="M436.77,73.113c3.798-1.844,5.642-4.177,5.696-7.865c-0.163,0.054-0.38,0.054-0.542,0.054
		c-2.768,0-4.991-1.845-4.991-4.774c0-3.2,2.063-5.208,4.991-5.208c3.959,0,6.074,3.092,6.074,8.408
		c0,5.967-2.982,10.578-9.166,13.561L436.77,73.113z"/>
	<path fill="#292A33" d="M450.491,94.92l4.286-6.021c2.819,2.17,5.37,3.255,7.812,3.255c2.549,0,3.634-0.922,3.634-2.441
		c0-1.844-2.982-2.712-6.129-3.96c-3.688-1.465-8.027-3.96-8.027-9.059c0-5.858,4.772-9.818,11.934-9.818
		c4.883,0,8.354,1.953,11.066,3.96l-4.34,5.75c-2.171-1.519-4.34-2.604-6.401-2.604c-2.17,0-3.255,0.759-3.255,2.224
		c0,1.845,2.82,2.55,6.021,3.689c3.853,1.464,8.138,3.688,8.138,9.276c0,5.696-4.448,10.089-12.856,10.089
		C458.357,99.259,453.584,97.523,450.491,94.92z"/>
	<path fill="#292A33" d="M493.23,67.635h7.864l0.65,3.905h0.218c2.549-2.549,5.208-4.665,9.384-4.665c4.285,0,6.89,1.79,8.462,5.099
		c2.658-2.712,5.533-5.099,9.655-5.099c6.728,0,9.655,4.828,9.655,12.531V98.5h-9.655V80.599c0-4.231-1.085-5.479-3.525-5.479
		c-1.41,0-3.093,0.868-4.937,2.766V98.5h-9.71V80.599c0-4.231-1.086-5.479-3.526-5.479c-1.41,0-3.092,0.868-4.938,2.766V98.5h-9.601
		V67.635H493.23z"/>
	<path fill="#292A33" d="M545.297,89.875c0-6.509,5.1-10.035,17.143-11.337c-0.218-2.496-1.52-3.96-4.665-3.96
		c-2.44,0-4.991,0.976-8.083,2.712l-3.363-6.347c4.068-2.441,8.463-4.068,13.29-4.068c7.975,0,12.478,4.448,12.478,14.104V98.5
		h-7.866l-0.704-3.092h-0.218c-2.55,2.278-5.425,3.851-8.842,3.851C548.769,99.259,545.297,95.028,545.297,89.875z M562.439,89.333
		v-4.936c-6.021,0.813-7.975,2.549-7.975,4.719c0,1.79,1.302,2.658,3.31,2.658C559.727,91.773,561.029,90.852,562.439,89.333z"/>
	<path fill="#292A33" d="M579.521,55.158h9.384v24.193h0.217l9.386-11.717h10.469l-10.902,12.748L609.735,98.5h-10.47l-6.672-11.717
		l-3.688,4.177v7.54h-9.384V55.158L579.521,55.158z"/>
	<path fill="#292A33" d="M610.326,83.094c0-10.035,7.16-16.219,14.646-16.219c8.896,0,13.236,6.455,13.236,14.917
		c0,1.682-0.218,3.417-0.435,4.123h-18.118c0.868,4.231,3.797,5.967,7.703,5.967c2.225,0,4.286-0.651,6.509-1.953l3.201,5.804
		c-3.201,2.278-7.433,3.526-11.065,3.526C617.161,99.259,610.326,93.292,610.326,83.094z M630.018,79.623
		c0-3.092-1.355-5.37-4.882-5.37c-2.658,0-4.989,1.682-5.642,5.37H630.018z"/>
</g>
<g id="deco_1_" opacity="0.8">
	<polyline fill="none" stroke="#441DB2" stroke-width="13" stroke-miterlimit="10" points="1373.123,88.852 1387.941,57.092 
		1410.35,69.136 1416.193,36.75 	"/>
	<polyline fill="none" stroke="#F47B0F" stroke-width="13" stroke-miterlimit="10" points="1367.965,79.465 1382.781,47.706 
		1405.189,59.748 1411.034,27.363 	"/>
	
		<rect x="1305.003" y="123.153" transform="matrix(0.6914 0.7225 -0.7225 0.6914 506.673 -910.8569)" opacity="0.9" fill="none" stroke="#292A33" stroke-width="14" stroke-miterlimit="10" enable-background="new    " width="28.936" height="28.933"/>
	
		<rect x="1306.825" y="106.115" transform="matrix(0.6914 0.7225 -0.7225 0.6914 494.8775 -917.3926)" fill="none" stroke="#F47B0F" stroke-width="13" stroke-miterlimit="10" width="28.934" height="28.935"/>
	
		<line fill="none" stroke="#441DB2" stroke-width="13" stroke-miterlimit="10" x1="1308.531" y1="216.352" x2="1239.908" y2="163.955"/>
	<polyline fill="none" stroke="#F47B0F" stroke-width="13" stroke-miterlimit="10" points="1419.781,102.185 1423.587,133.398 
		1396.395,138.857 1411.645,167.037 1375.962,185.214 	"/>
</g>
<g>
	<path fill="#F47B0F" d="M682.125,63.829h33.29c20.919,0,38.138,7.397,38.138,30.866c0,22.577-17.476,32.524-37.499,32.524h-11.098
		v31.506h-22.831V63.829z M714.906,109.236c11.097,0,16.453-5.229,16.453-14.542c0-9.566-6.122-12.882-17.093-12.882h-9.312v27.422
		h9.951V109.236z"/>
	<path fill="#F47B0F" d="M769.745,63.829h22.831v94.896h-22.831V63.829z"/>
	<path fill="#F47B0F" d="M810.047,111.787c0-31.632,21.174-49.744,45.279-49.744c12.372,0,22.321,5.74,28.825,12.372l-11.987,14.541
		c-4.721-4.337-9.694-7.398-16.454-7.398c-12.245,0-22.321,10.97-22.321,29.463c0,18.877,8.675,29.848,22.066,29.848
		c7.524,0,13.646-3.827,18.11-8.674l11.989,14.285c-8.035,9.312-18.622,14.03-30.993,14.03
		C830.455,160.512,810.047,143.93,810.047,111.787z"/>
	<path fill="#F47B0F" d="M899.452,63.829h22.83v37.499h0.384l26.911-37.499h25l-28.696,38.009l34.055,56.887h-25l-22.319-38.901
		l-10.332,14.03v24.871h-22.83L899.452,63.829L899.452,63.829z"/>
	<path fill="#F47B0F" d="M989.75,63.829h22.832v75.765h36.86v19.131H989.75V63.829z"/>
	<path fill="#F47B0F" d="M1065.891,63.829h60.203v18.877h-37.373v17.602h31.76v19.131h-31.76v20.153h38.774v19.132h-61.604V63.829z"
		/>
</g>
</svg>
