<?xml version="1.0" encoding="utf-8"?>
<!-- Generator: Adobe Illustrator 16.0.0, SVG Export Plug-In . SVG Version: 6.00 Build 0)  -->
<!DOCTYPE svg PUBLIC "-//W3C//DTD SVG 1.1//EN" "http://www.w3.org/Graphics/SVG/1.1/DTD/svg11.dtd">
<svg version="1.1" id="레이어_1" xmlns="http://www.w3.org/2000/svg" xmlns:xlink="http://www.w3.org/1999/xlink" x="0px"
	 y="0px" width="1500px" height="210px" viewBox="0 0 1500 210" enable-background="new 0 0 1500 210" xml:space="preserve">
<image overflow="visible" width="2800" height="2000" xlink:href="283C23E8.jpg"  transform="matrix(0.5361 0 0 0.105 -1 0.5)">
</image>
<line opacity="0.8" fill="none" stroke="#292A33" stroke-width="14" stroke-miterlimit="10" x1="1276.738" y1="62.198" x2="1334.213" y2="42.364"/>
<g opacity="0.9">
	<polyline opacity="0.9" fill="none" stroke="#441DB2" stroke-width="14" stroke-miterlimit="10" points="183.472,202.479 
		201.636,170.22 224.27,184.71 233.035,151.07 	"/>
	<polyline opacity="0.9" fill="none" stroke="#F47B0F" stroke-width="14" stroke-miterlimit="10" points="182.204,195.72 
		200.371,163.46 223.002,177.952 231.768,144.313 	"/>
	
		<rect x="127.447" y="132.16" transform="matrix(0.6342 0.7731 -0.7731 0.6342 166.196 -56.4206)" opacity="0.9" fill="none" stroke="#441DB2" stroke-width="14" stroke-miterlimit="10" width="30.564" height="30.563"/>
	
		<rect x="110.94" y="127.16" transform="matrix(0.6342 0.7731 -0.7731 0.6342 156.293 -45.4878)" opacity="0.9" fill="none" stroke="#F47B0F" stroke-width="14" stroke-miterlimit="10" width="30.564" height="30.563"/>
	
		<line opacity="0.9" fill="none" stroke="#441DB2" stroke-width="14" stroke-miterlimit="10" x1="86.716" y1="192.271" x2="18.655" y2="131.554"/>
	<polyline opacity="0.9" fill="none" stroke="#F47B0F" stroke-width="14" stroke-miterlimit="10" points="261.156,25.188 
		253.832,57.588 224.845,53.337 229.981,86.793 188.024,92.174 	"/>
	<polyline opacity="0.9" fill="none" stroke="#292A33" stroke-width="14" stroke-miterlimit="10" points="23.843,11.936 
		76.588,31.804 69.901,49.556 111.792,55.199 101.953,81.319 141.085,85.057 	"/>
	
		<line opacity="0.9" fill="none" stroke="#441DB2" stroke-width="14" stroke-miterlimit="10" x1="167.43" y1="38.987" x2="141.085" y2="15.483"/>
</g>
<g>
	<path fill="none" stroke="#441DB2" stroke-width="14" stroke-miterlimit="10" d="M682.126,63.829h33.29
		c20.918,0,38.137,7.397,38.137,30.866c0,22.576-17.475,32.524-37.499,32.524h-11.097v31.505h-22.831V63.829z M714.906,109.236
		c11.096,0,16.453-5.229,16.453-14.541c0-9.566-6.122-12.882-17.092-12.882h-9.311v27.423H714.906z"/>
	<path fill="none" stroke="#441DB2" stroke-width="14" stroke-miterlimit="10" d="M769.746,63.829h22.831v94.896h-22.831V63.829z"/>
	<path fill="none" stroke="#441DB2" stroke-width="14" stroke-miterlimit="10" d="M810.047,111.787
		c0-31.632,21.174-49.744,45.28-49.744c12.372,0,22.321,5.74,28.825,12.372l-11.988,14.541c-4.72-4.337-9.694-7.398-16.454-7.398
		c-12.245,0-22.321,10.97-22.321,29.464c0,18.877,8.674,29.847,22.066,29.847c7.525,0,13.647-3.827,18.111-8.674l11.99,14.286
		c-8.036,9.311-18.623,14.03-30.994,14.03C830.455,160.511,810.047,143.929,810.047,111.787z"/>
	<path fill="none" stroke="#441DB2" stroke-width="14" stroke-miterlimit="10" d="M899.453,63.829h22.83v37.499h0.383l26.912-37.499
		h25l-28.697,38.009l34.055,56.887h-25l-22.32-38.902l-10.332,14.03v24.872h-22.83V63.829z"/>
	<path fill="none" stroke="#441DB2" stroke-width="14" stroke-miterlimit="10" d="M989.75,63.829h22.832v75.764h36.861v19.132
		H989.75V63.829z"/>
	<path fill="none" stroke="#441DB2" stroke-width="14" stroke-miterlimit="10" d="M1065.891,63.829h60.203v18.877h-37.373v17.602
		h31.76v19.132h-31.76v20.153h38.775v19.132h-61.605V63.829z"/>
</g>
<g>
	<path fill="#292A33" d="M349.665,58.142h9.71v32.222h15.677V98.5h-25.387V58.142z"/>
	<path fill="#292A33" d="M378.681,83.094c0-10.035,7.16-16.219,14.646-16.219c8.896,0,13.236,6.455,13.236,14.917
		c0,1.682-0.217,3.417-0.434,4.123h-18.118c0.868,4.231,3.797,5.967,7.703,5.967c2.224,0,4.286-0.651,6.509-1.953l3.201,5.804
		c-3.201,2.278-7.432,3.526-11.066,3.526C385.516,99.259,378.681,93.292,378.681,83.094z M398.372,79.623
		c0-3.092-1.356-5.37-4.882-5.37c-2.658,0-4.99,1.682-5.641,5.37H398.372z"/>
	<path fill="#292A33" d="M413.339,87.054V75.175h-4.177v-7.161l4.719-0.379l1.085-8.137h8.028v8.137h7.269v7.54h-7.269v11.771
		c0,3.417,1.627,4.773,3.905,4.773c0.977,0,2.062-0.325,2.821-0.542l1.519,6.943c-1.627,0.488-3.852,1.139-6.998,1.139
		C416.485,99.259,413.339,94.377,413.339,87.054z"/>
	<path fill="#292A33" d="M436.77,73.113c3.797-1.844,5.641-4.177,5.696-7.865c-0.163,0.054-0.38,0.054-0.542,0.054
		c-2.767,0-4.991-1.845-4.991-4.774c0-3.2,2.062-5.208,4.991-5.208c3.959,0,6.075,3.092,6.075,8.408
		c0,5.967-2.983,10.578-9.167,13.561L436.77,73.113z"/>
	<path fill="#292A33" d="M450.492,94.92l4.286-6.021c2.82,2.17,5.37,3.255,7.811,3.255c2.549,0,3.634-0.922,3.634-2.441
		c0-1.844-2.983-2.712-6.129-3.96c-3.689-1.465-8.028-3.96-8.028-9.059c0-5.858,4.773-9.818,11.934-9.818
		c4.882,0,8.354,1.953,11.066,3.96l-4.34,5.75c-2.17-1.519-4.339-2.604-6.401-2.604c-2.17,0-3.255,0.759-3.255,2.224
		c0,1.845,2.821,2.55,6.021,3.689c3.852,1.464,8.137,3.688,8.137,9.276c0,5.696-4.448,10.089-12.856,10.089
		C458.357,99.259,453.584,97.523,450.492,94.92z"/>
	<path fill="#292A33" d="M493.23,67.635h7.865l0.651,3.905h0.217c2.549-2.549,5.208-4.665,9.384-4.665
		c4.285,0,6.889,1.79,8.462,5.099c2.658-2.712,5.533-5.099,9.655-5.099c6.727,0,9.656,4.828,9.656,12.531V98.5h-9.656V80.599
		c0-4.231-1.085-5.479-3.526-5.479c-1.41,0-3.092,0.868-4.936,2.766V98.5h-9.71V80.599c0-4.231-1.085-5.479-3.526-5.479
		c-1.411,0-3.092,0.868-4.937,2.766V98.5h-9.601V67.635z"/>
	<path fill="#292A33" d="M545.297,89.875c0-6.509,5.099-10.035,17.142-11.337c-0.217-2.496-1.519-3.96-4.665-3.96
		c-2.441,0-4.991,0.976-8.083,2.712l-3.363-6.347c4.068-2.441,8.462-4.068,13.29-4.068c7.974,0,12.477,4.448,12.477,14.104V98.5
		h-7.866l-0.705-3.092h-0.217c-2.55,2.278-5.425,3.851-8.842,3.851C548.769,99.259,545.297,95.028,545.297,89.875z M562.439,89.333
		v-4.936c-6.021,0.813-7.974,2.549-7.974,4.719c0,1.79,1.302,2.658,3.309,2.658C559.727,91.773,561.029,90.852,562.439,89.333z"/>
	<path fill="#292A33" d="M579.521,55.158h9.384v24.193h0.217l9.385-11.717h10.469l-10.903,12.748L609.735,98.5h-10.469
		l-6.672-11.717l-3.688,4.177v7.54h-9.384V55.158z"/>
	<path fill="#292A33" d="M610.327,83.094c0-10.035,7.16-16.219,14.646-16.219c8.896,0,13.236,6.455,13.236,14.917
		c0,1.682-0.217,3.417-0.434,4.123h-18.118c0.868,4.231,3.797,5.967,7.703,5.967c2.224,0,4.286-0.651,6.509-1.953l3.201,5.804
		c-3.201,2.278-7.432,3.526-11.066,3.526C617.162,99.259,610.327,93.292,610.327,83.094z M630.018,79.623
		c0-3.092-1.356-5.37-4.882-5.37c-2.658,0-4.99,1.682-5.641,5.37H630.018z"/>
</g>
<g id="deco_1_" opacity="0.8">
	<polyline fill="none" stroke="#441DB2" stroke-width="13" stroke-miterlimit="10" points="1373.123,88.852 1387.941,57.092 
		1410.35,69.136 1416.193,36.75 	"/>
	<polyline fill="none" stroke="#F47B0F" stroke-width="13" stroke-miterlimit="10" points="1367.965,79.465 1382.781,47.706 
		1405.189,59.748 1411.035,27.363 	"/>
	
		<rect x="1304.979" y="123.172" transform="matrix(0.6914 0.7225 -0.7225 0.6914 506.6801 -910.8337)" opacity="0.9" fill="none" stroke="#292A33" stroke-width="14" stroke-miterlimit="10" width="28.934" height="28.933"/>
	
		<rect x="1306.85" y="106.097" transform="matrix(0.6914 0.7225 -0.7225 0.6914 494.8495 -917.3975)" fill="none" stroke="#F47B0F" stroke-width="13" stroke-miterlimit="10" width="28.931" height="28.934"/>
	
		<line fill="none" stroke="#441DB2" stroke-width="13" stroke-miterlimit="10" x1="1308.532" y1="216.351" x2="1239.909" y2="163.955"/>
	<polyline fill="none" stroke="#F47B0F" stroke-width="13" stroke-miterlimit="10" points="1419.781,102.185 1423.587,133.399 
		1396.395,138.858 1411.645,167.037 1375.962,185.214 	"/>
</g>
<g>
	<path fill="#F47B0F" d="M682.126,63.829h33.29c20.918,0,38.137,7.397,38.137,30.866c0,22.576-17.475,32.524-37.499,32.524h-11.097
		v31.505h-22.831V63.829z M714.906,109.236c11.096,0,16.453-5.229,16.453-14.541c0-9.566-6.122-12.882-17.092-12.882h-9.311v27.423
		H714.906z"/>
	<path fill="#F47B0F" d="M769.746,63.829h22.831v94.896h-22.831V63.829z"/>
	<path fill="#F47B0F" d="M810.047,111.787c0-31.632,21.174-49.744,45.28-49.744c12.372,0,22.321,5.74,28.825,12.372l-11.988,14.541
		c-4.72-4.337-9.694-7.398-16.454-7.398c-12.245,0-22.321,10.97-22.321,29.464c0,18.877,8.674,29.847,22.066,29.847
		c7.525,0,13.647-3.827,18.111-8.674l11.99,14.286c-8.036,9.311-18.623,14.03-30.994,14.03
		C830.455,160.511,810.047,143.929,810.047,111.787z"/>
	<path fill="#F47B0F" d="M899.453,63.829h22.83v37.499h0.383l26.912-37.499h25l-28.697,38.009l34.055,56.887h-25l-22.32-38.902
		l-10.332,14.03v24.872h-22.83V63.829z"/>
	<path fill="#F47B0F" d="M989.75,63.829h22.832v75.764h36.861v19.132H989.75V63.829z"/>
	<path fill="#F47B0F" d="M1065.891,63.829h60.203v18.877h-37.373v17.602h31.76v19.132h-31.76v20.153h38.775v19.132h-61.605V63.829z"
		/>
</g>
</svg>
