<?xml version="1.0" encoding="utf-8"?>
<!-- Generator: Adobe Illustrator 16.0.0, SVG Export Plug-In . SVG Version: 6.00 Build 0)  -->
<!DOCTYPE svg PUBLIC "-//W3C//DTD SVG 1.1//EN" "http://www.w3.org/Graphics/SVG/1.1/DTD/svg11.dtd">
<svg version="1.1" id="레이어_1" xmlns="http://www.w3.org/2000/svg" xmlns:xlink="http://www.w3.org/1999/xlink" x="0px"
	 y="0px" width="1280px" height="720px" viewBox="0 0 1280 720" enable-background="new 0 0 1280 720" xml:space="preserve">
<path fill="#F47B0F" d="M383.23,302.348l-8.719,17.678l-19.504,2.842c-3.498,0.508-4.899,4.821-2.363,7.29l14.112,13.753
	l-3.337,19.425c-0.602,3.512,3.095,6.142,6.193,4.499l17.449-9.172l17.45,9.172c3.099,1.63,6.797-0.987,6.194-4.499l-3.338-19.425
	l14.113-13.753c2.536-2.469,1.135-6.781-2.363-7.29l-19.506-2.842l-8.718-17.678C389.331,299.198,384.806,299.158,383.23,302.348z"
	/>
<path fill="#F47B0F" d="M349.258,244.405l-6.933,13.866c-0.837,1.688-3.265,1.633-4.032-0.083l-7.938-17.619l-4.184,10.003h-13.126
	l25.458,26.016c0.991,1.018,2.595,1.018,3.585,0l25.473-26.016h-15.22L349.258,244.405z M370.671,220.705l-0.335-0.349
	c-7.184-7.338-18.943-7.338-26.142,0l-3.892,3.99l-3.892-3.975c-7.184-7.353-18.958-7.353-26.143,0l-0.334,0.334
	c-6.794,6.947-7.087,18.009-1.018,25.402H323.2l5.007-12.024c0.753-1.799,3.292-1.841,4.101-0.055l8.119,18.037l6.836-13.657
	c0.821-1.646,3.166-1.646,3.988,0l3.851,7.7h16.586C377.757,238.714,377.465,227.651,370.671,220.705L370.671,220.705z"/>
<path fill="#F47B0F" d="M381.093,422.724c-5.4-10.539-16.094-17.669-28.337-17.669c-12.243,0-22.94,7.136-28.337,17.671
	c-0.463,0.914-0.463,1.992,0,2.906c5.4,10.539,16.094,17.669,28.337,17.669c12.244,0,22.939-7.136,28.337-17.67
	C381.556,424.717,381.556,423.639,381.093,422.724z M352.756,438.521c-7.921,0-14.342-6.421-14.342-14.343
	c0-7.921,6.42-14.342,14.342-14.342s14.342,6.421,14.342,14.342c0.004,7.917-6.411,14.339-14.329,14.343
	C352.765,438.521,352.761,438.521,352.756,438.521z M352.756,414.615c-0.854,0.013-1.701,0.139-2.521,0.379
	c1.56,2.119,1.106,5.103-1.014,6.663c-1.68,1.235-3.969,1.235-5.649,0c-1.381,5.085,1.622,10.325,6.708,11.706
	c5.084,1.379,10.325-1.623,11.706-6.709c1.38-5.085-1.623-10.325-6.708-11.705C354.455,414.727,353.607,414.614,352.756,414.615z"/>
<path fill="#F47B0F" d="M618.086,409.906c-12.832,0-23.235,10.4-23.235,23.234c0,12.831,10.403,23.233,23.235,23.233
	c12.832,0,23.234-10.402,23.234-23.233C641.32,420.307,630.917,409.906,618.086,409.906z M630.274,420.95
	c6.133,6.132,6.559,15.503,1.938,22.076l-24.014-24.014C614.776,414.389,624.146,414.822,630.274,420.95z M605.896,445.329
	c-6.132-6.132-6.559-15.503-1.938-22.076l24.014,24.014C621.396,451.892,612.024,451.457,605.896,445.329z"/>
<rect x="394" y="220" opacity="0.8" fill="#441DB2" width="226" height="47"/>
<g>
	<g>
		<path fill="#FFFFFF" d="M431.688,238.847v4.622h-31.426v-4.622h12.607v-2.662h5.99v2.662H431.688z M401.372,233.598
			c5.546-0.259,8.318-1.406,9.538-2.589h-7.837v-4.473h25.732v4.473h-7.911c1.183,1.183,3.956,2.33,9.575,2.589l-1.813,4.437
			c-7.061-0.406-10.98-2.404-12.755-5.139c-1.737,2.735-5.693,4.733-12.718,5.139L401.372,233.598z M418.859,246.389h9.909v4.4
			h-25.77v-4.4h9.871v-2.033h5.99V246.389z M426.513,256.002c0,2.994-3.957,4.584-10.648,4.584c-6.766,0-10.722-1.59-10.722-4.584
			c0-2.995,3.956-4.622,10.722-4.622C422.556,251.38,426.513,253.008,426.513,256.002z M420.301,256.002
			c0-0.628-1.332-0.74-4.437-0.74c-3.143,0-4.51,0.112-4.51,0.74c0,0.591,1.368,0.702,4.51,0.702
			C418.97,256.705,420.301,256.594,420.301,256.002z"/>
		<path fill="#FFFFFF" d="M452.908,240.622c0,7.764-3.994,12.57-9.354,12.57c-5.324,0-9.317-4.806-9.317-12.57
			s3.993-12.571,9.317-12.571C448.914,228.051,452.908,232.858,452.908,240.622z M447.14,240.622c0-4.881-1.405-7.135-3.586-7.135
			c-2.144,0-3.549,2.254-3.549,7.135c0,4.88,1.405,7.135,3.549,7.135C445.735,247.757,447.14,245.502,447.14,240.622z
			 M466.365,243.358h-4.658v17.154h-5.989v-34.716h5.989v12.681h4.658V243.358z"/>
		<path fill="#FFFFFF" d="M481.151,230.713h7.024v4.696h-20.075v-4.696h7.062v-4.252h5.989V230.713z M487.141,245.318
			c0,4.916-3.845,8.429-8.984,8.429c-5.14,0-8.984-3.513-8.984-8.429c0-4.917,3.844-8.43,8.984-8.43
			C483.296,236.888,487.141,240.4,487.141,245.318z M481.447,245.318c0-2.404-1.332-3.624-3.291-3.624
			c-1.923,0-3.291,1.22-3.291,3.624c0,2.403,1.368,3.623,3.291,3.623C480.116,248.94,481.447,247.721,481.447,245.318z
			 M500.376,243.875h-4.584v16.6h-5.99v-34.643h5.99v13.162h4.584V243.875z"/>
		<path fill="#FFFFFF" d="M533.723,242.323v4.696h-31.425v-4.696H533.723z M511.578,255.115h18.929v4.695h-24.919v-10.425h5.99
			V255.115z M530.285,239.291H505.92v-12.275h5.99v7.58h18.375V239.291z"/>
		<path fill="#FFFFFF" d="M562.854,242.323c-1.664,1.553-3.956,2.477-6.582,2.477c-5.213,0-9.279-3.66-9.279-8.614
			c0-4.992,4.066-8.652,9.279-8.652c2.699,0,5.028,0.962,6.692,2.588h6.987v-4.289h5.989v20.187h-5.989v-3.697H562.854z
			 M576.089,253.599c0,4.399-4.696,6.951-12.09,6.951c-7.357,0-12.053-2.551-12.053-6.951c0-4.4,4.696-6.951,12.053-6.951
			C571.394,246.648,576.089,249.199,576.089,253.599z M556.272,239.809c2.107,0,3.624-1.22,3.624-3.623
			c0-2.44-1.517-3.624-3.624-3.624s-3.624,1.183-3.624,3.624C552.649,238.588,554.166,239.809,556.272,239.809z M570.174,253.599
			c0-1.701-1.996-2.403-6.174-2.403c-4.177,0-6.137,0.702-6.137,2.403c0,1.738,1.96,2.403,6.137,2.403
			C568.178,256.002,570.174,255.337,570.174,253.599z M569.952,234.817h-4.511c0.074,0.444,0.111,0.887,0.111,1.368
			c0,0.518-0.037,0.961-0.111,1.442h4.511V234.817z"/>
		<path fill="#FFFFFF" d="M594.093,250.124c2.403-0.148,4.769-0.333,7.061-0.665l0.444,4.288c-7.209,1.442-14.899,1.442-20.63,1.442
			l-0.703-4.77c2.33,0,5.028,0,7.838-0.075v-2.513c-3.402-0.813-5.656-3.179-5.62-6.211c0-3.882,3.624-6.581,8.651-6.581
			c5.028,0,8.651,2.699,8.651,6.581c0,3.032-2.255,5.398-5.693,6.211V250.124z M601.191,234.041h-20.224v-4.621h7.136v-3.364h5.99
			v3.364h7.098V234.041z M588.14,241.62c0,1.479,1.183,2.145,2.995,2.145c1.811,0,2.994-0.666,2.994-2.145
			c0-1.442-1.183-2.107-2.994-2.107C589.323,239.513,588.14,240.178,588.14,241.62z M612.503,244.43h-3.807v16.046h-5.99v-34.643
			h5.99v13.716h3.807V244.43z"/>
		<path fill="#FFFFFF" d="M653.798,242.063v2.108h-29.984v-2.108H653.798z M630.174,257.222H651.1v1.996h-23.588v-7.209h19.854
			v-2.994h-19.928v-1.96h22.59v6.877h-19.854V257.222z M647.254,229.604h-19.632v-1.959h22.294v6.729h-19.558v3.032h20.149v1.997
			h-22.811v-6.915h19.557V229.604z"/>
		<path fill="#FFFFFF" d="M667.253,229.493h9.649c6.063,0,11.054,2.145,11.054,8.948c0,6.543-5.064,9.427-10.868,9.427h-3.218V257
			h-6.617V229.493z M676.756,242.655c3.215,0,4.769-1.515,4.769-4.214c0-2.773-1.775-3.734-4.954-3.734h-2.7v7.948H676.756z"/>
		<path fill="#FFFFFF" d="M692.65,229.493h6.617V257h-6.617V229.493z"/>
		<path fill="#FFFFFF" d="M704.332,243.395c0-9.169,6.139-14.419,13.125-14.419c3.587,0,6.47,1.664,8.355,3.586l-3.475,4.215
			c-1.368-1.257-2.81-2.145-4.771-2.145c-3.548,0-6.469,3.179-6.469,8.541c0,5.472,2.514,8.652,6.396,8.652
			c2.18,0,3.955-1.11,5.248-2.515l3.476,4.141c-2.328,2.699-5.396,4.066-8.984,4.066
			C710.248,257.518,704.332,252.711,704.332,243.395z"/>
		<path fill="#FFFFFF" d="M730.247,229.493h6.618v10.87h0.111l7.801-10.87h7.246l-8.318,11.018L753.577,257h-7.247l-6.47-11.275
			l-2.995,4.066V257h-6.618V229.493z"/>
		<path fill="#FFFFFF" d="M766.293,231.97h8.318v2.219h-19.559v-2.219h8.542v-4.99h2.698V231.97z M772.984,244.652
			c0,4.473-3.327,7.542-8.022,7.542c-4.585,0-7.948-3.068-7.948-7.542c0-4.437,3.363-7.543,7.948-7.543
			C769.657,237.109,772.984,240.216,772.984,244.652z M770.434,244.652c0-3.069-2.292-5.288-5.472-5.288
			c-3.106,0-5.398,2.219-5.398,5.288c0,3.068,2.292,5.286,5.398,5.286C768.142,249.938,770.434,247.721,770.434,244.652z
			 M786.109,242.618h-5.545v17.081h-2.699V226.61h2.699v13.753h5.545V242.618z"/>
		<path fill="#FFFFFF" d="M819.16,252.674v2.255h-29.873v-2.255h11.794V240.77h2.699v11.905H819.16z M812.765,232.304h-20.262
			v-2.255h22.96v3.327c0,4.03,0,8.578-1.221,15.159l-2.699-0.37c1.222-6.248,1.222-10.87,1.222-14.789V232.304z"/>
		<path fill="#FFFFFF" d="M823.225,262.065c2.182-1.035,3.549-2.772,3.586-5.028c-0.148,0.038-0.296,0.038-0.443,0.038
			c-1.221,0-2.293-0.777-2.293-2.219c0-1.368,1.11-2.182,2.329-2.182c1.664,0,2.7,1.405,2.7,3.734c0,3.401-2.034,6.064-5.103,7.431
			L823.225,262.065z"/>
	</g>
</g>
<rect x="441" y="307" opacity="0.8" fill="#441DB2" width="225" height="49"/>
<g>
	<g>
		<path fill="#FFFFFF" d="M479.395,340.188v4.77h-31.389v-4.77h12.681v-5.806h-9.576v-18.226h5.916v4.88h13.235v-4.88h5.916v18.226
			h-9.501v5.806H479.395z M457.027,329.688h13.235v-4.029h-13.235V329.688z"/>
		<path fill="#FFFFFF" d="M513.443,340.188v4.77h-31.425v-4.77h10.5v-11.683h5.99v11.683H513.443z M503.424,336.306
			c1.256-6.285,1.405-10.981,1.405-14.863H485.16v-4.695h25.659V320c0,4.326,0,9.317-1.442,16.935L503.424,336.306z"/>
		<path fill="#FFFFFF" d="M534.625,332.423c-3.845-1.034-6.359-3.142-7.912-5.878c-1.553,2.994-4.178,5.36-8.245,6.47l-2.884-4.695
			c6.137-1.738,8.06-5.915,8.06-9.724v-3.29h6.101v3.29c0,3.734,1.812,7.617,7.727,9.207L534.625,332.423z M545.532,343.811v4.621
			h-24.549v-4.621h4.066v-4.548h-3.734v-4.62h23.847v4.62h-3.66v4.548H545.532z M530.929,343.811h4.695v-4.548h-4.695V343.811z
			 M545.052,333.348h-5.99v-19.225h5.99V333.348z"/>
		<path fill="#FFFFFF" d="M581.43,331.499v4.696h-31.426v-4.696H581.43z M552.962,322.293c0-4.474,5.139-7.247,12.755-7.247
			c7.616,0,12.755,2.772,12.755,7.247c0,4.51-5.139,7.284-12.755,7.284C558.101,329.577,552.962,326.804,552.962,322.293z
			 M559.654,343.589h18.227v4.695h-24.217v-10.167h5.99V343.589z M559.137,322.293c0,1.811,2.366,2.587,6.581,2.587
			c4.214,0,6.581-0.776,6.581-2.587c0-1.775-2.366-2.588-6.581-2.588C561.502,319.706,559.137,320.519,559.137,322.293z"/>
		<path fill="#FFFFFF" d="M610.598,330.611c-1.664,1.554-3.956,2.478-6.581,2.478c-5.213,0-9.28-3.66-9.28-8.614
			c0-4.991,4.066-8.651,9.28-8.651c2.698,0,5.028,0.961,6.691,2.588h6.988v-4.289h5.989v20.187h-5.989v-3.698H610.598z
			 M623.833,341.888c0,4.399-4.696,6.951-12.09,6.951c-7.357,0-12.053-2.552-12.053-6.951s4.696-6.95,12.053-6.95
			C619.137,334.938,623.833,337.488,623.833,341.888z M604.017,328.099c2.107,0,3.623-1.221,3.623-3.624
			c0-2.44-1.516-3.623-3.623-3.623s-3.624,1.183-3.624,3.623C600.393,326.878,601.909,328.099,604.017,328.099z M617.918,341.888
			c0-1.7-1.997-2.403-6.175-2.403c-4.178,0-6.137,0.703-6.137,2.403c0,1.738,1.959,2.404,6.137,2.404
			C615.921,344.292,617.918,343.626,617.918,341.888z M617.696,323.106h-4.511c0.074,0.443,0.11,0.887,0.11,1.368
			c0,0.518-0.036,0.961-0.11,1.441h4.511V323.106z"/>
		<path fill="#FFFFFF" d="M641.836,338.413c2.403-0.148,4.77-0.334,7.062-0.667l0.444,4.29c-7.21,1.441-14.9,1.441-20.63,1.441
			l-0.703-4.77c2.33,0,5.028,0,7.838-0.072v-2.516c-3.402-0.813-5.657-3.179-5.62-6.21c0-3.883,3.624-6.582,8.651-6.582
			s8.651,2.699,8.651,6.582c0,3.031-2.255,5.397-5.693,6.21V338.413z M648.935,322.33h-20.223v-4.621h7.135v-3.364h5.989v3.364
			h7.099V322.33z M635.883,329.91c0,1.479,1.183,2.145,2.995,2.145c1.811,0,2.995-0.666,2.995-2.145
			c0-1.443-1.184-2.107-2.995-2.107C637.066,327.803,635.883,328.467,635.883,329.91z M660.248,332.72h-3.809v16.045h-5.989v-34.642
			h5.989v13.715h3.809V332.72z"/>
		<path fill="#FFFFFF" d="M701.541,330.354v2.106h-29.983v-2.106H701.541z M677.917,345.511h20.926v1.998h-23.588v-7.21h19.854
			v-2.995h-19.928v-1.96h22.589v6.877h-19.854V345.511z M694.998,317.894h-19.632v-1.959h22.294v6.729h-19.558v3.031h20.149v1.997
			h-22.813v-6.915h19.559V317.894z"/>
		<path fill="#FFFFFF" d="M745.904,341.408v2.254H715.92v-2.254h13.606v-8.245h-9.982v-15.455h22.626v15.455h-9.945v8.245H745.904z
			 M722.132,330.982h17.45V319.89h-17.45V330.982z"/>
		<path fill="#FFFFFF" d="M766.977,328.985c0,6.987-3.438,11.498-8.244,11.498c-4.844,0-8.245-4.511-8.245-11.498
			c0-6.988,3.401-11.462,8.245-11.462C763.538,317.523,766.977,321.998,766.977,328.985z M764.389,328.985
			c0-5.436-2.33-9.058-5.656-9.058c-3.327,0-5.693,3.623-5.693,9.058c0,5.472,2.366,9.094,5.693,9.094
			C762.059,338.079,764.389,334.457,764.389,328.985z M780.804,330.538h-5.546v17.45h-2.697v-33.052h2.697v13.31h5.546V330.538z"/>
		<path fill="#FFFFFF" d="M813.928,341.444v2.255h-29.983v-2.255h13.605v-7.283h-9.981v-16.896h2.661v6.063h17.376v-6.063h2.625
			v16.896h-9.981v7.283H813.928z M790.229,331.905h17.376v-6.321h-17.376V331.905z"/>
		<path fill="#FFFFFF" d="M827.605,324.438c0,5.211,2.698,10.905,6.987,13.493l-1.554,2.07c-3.179-1.923-5.508-5.508-6.69-9.575
			c-1.184,4.474-3.66,8.281-7.024,10.315l-1.701-2.034c4.473-2.624,7.395-8.54,7.395-14.196v-6.47h2.588V324.438z M836.699,315.676
			h2.552v30.611h-2.552v-17.153h-5.691v-2.256h5.691V315.676z M845.98,314.899v33.053h-2.589v-33.053H845.98z"/>
		<path fill="#FFFFFF" d="M881.988,341.408v2.254H851.93v-2.254h7.506v-9.059c-2.811-1.442-4.511-3.809-4.511-6.803
			c0-5.139,4.991-8.467,11.979-8.467c6.987,0,11.941,3.328,11.941,8.467c0,2.994-1.664,5.324-4.438,6.803v9.059H881.988z
			 M866.904,331.794c5.434,0,9.391-2.513,9.391-6.247c0-3.771-3.957-6.285-9.391-6.285c-5.435,0-9.391,2.514-9.391,6.285
			C857.514,329.281,861.47,331.794,866.904,331.794z M862.134,341.408h9.613v-8.023c-1.442,0.369-3.106,0.591-4.843,0.591
			c-1.701,0-3.328-0.222-4.771-0.554V341.408z"/>
		<path fill="#FFFFFF" d="M887.532,343.404c0-1.479,1.035-2.44,2.256-2.44c1.219,0,2.292,0.961,2.292,2.44
			c0,1.405-1.073,2.366-2.292,2.366C888.567,345.771,887.532,344.81,887.532,343.404z M888.346,321.295l-0.073-3.623h3.031
			l-0.074,3.623l-0.407,16.009h-2.07L888.346,321.295z"/>
	</g>
</g>
<rect x="391" y="404" opacity="0.8" fill="#441DB2" width="161" height="39"/>
<g>
	<g>
		<path fill="#FFFFFF" d="M411.552,421.182c0,6.236-3.178,10.097-7.454,10.097s-7.454-3.86-7.454-10.097
			c0-6.235,3.178-10.097,7.454-10.097S411.552,414.946,411.552,421.182z M401.247,421.182c0,3.92,1.129,5.732,2.851,5.732
			c1.723,0,2.851-1.813,2.851-5.732s-1.128-5.731-2.851-5.731C402.376,415.45,401.247,417.262,401.247,421.182z M419.273,409.214
			v28.034h-4.812v-28.034H419.273z"/>
		<path fill="#FFFFFF" d="M438.247,411.648v19.067h-13.69v-19.067H438.247z M429.278,415.391v11.582h4.247v-11.582H429.278z
			 M446.591,409.244v28.004h-4.812v-28.004H446.591z"/>
		<path fill="#FFFFFF" d="M484.153,423.736v3.771h-25.272v-3.771h10.186v-2.02h-7.038v-11.433h4.751v2.286h9.443v-2.286h4.751
			v11.433h-7.097v2.02H484.153z M466.662,432.971h14.641v3.772h-19.451v-7.929h4.811V432.971z M466.78,417.975h9.443v-1.781h-9.443
			V417.975z"/>
		<path fill="#FFFFFF" d="M507.579,422.549c-1.336,1.246-3.177,1.99-5.286,1.99c-4.187,0-7.454-2.941-7.454-6.921
			c0-4.008,3.267-6.949,7.454-6.949c2.168,0,4.039,0.772,5.375,2.079h5.612v-3.444h4.812v16.215h-4.812v-2.97H507.579z
			 M518.21,431.606c0,3.533-3.771,5.582-9.711,5.582c-5.91,0-9.681-2.049-9.681-5.582c0-3.535,3.771-5.584,9.681-5.584
			C514.439,426.022,518.21,428.071,518.21,431.606z M502.293,420.528c1.693,0,2.91-0.979,2.91-2.91c0-1.959-1.217-2.91-2.91-2.91
			c-1.692,0-2.91,0.951-2.91,2.91C499.383,419.549,500.601,420.528,502.293,420.528z M513.459,431.606
			c0-1.366-1.604-1.931-4.959-1.931s-4.929,0.564-4.929,1.931c0,1.396,1.574,1.93,4.929,1.93S513.459,433.002,513.459,431.606z
			 M513.28,416.52h-3.623c0.059,0.356,0.089,0.713,0.089,1.099c0,0.416-0.03,0.772-0.089,1.158h3.623V416.52z"/>
		<path fill="#FFFFFF" d="M532.67,428.814c1.93-0.119,3.831-0.268,5.672-0.534l0.356,3.444c-5.791,1.158-11.968,1.158-16.571,1.158
			l-0.564-3.831c1.871,0,4.039,0,6.295-0.06v-2.02c-2.731-0.653-4.543-2.554-4.514-4.989c0-3.117,2.911-5.285,6.949-5.285
			c4.039,0,6.949,2.168,6.949,5.285c0,2.436-1.812,4.336-4.573,4.989V428.814z M538.372,415.896h-16.245v-3.713h5.731v-2.701h4.812
			v2.701h5.702V415.896z M527.889,421.983c0,1.188,0.95,1.723,2.405,1.723c1.456,0,2.405-0.534,2.405-1.723
			c0-1.158-0.95-1.692-2.405-1.692C528.839,420.291,527.889,420.825,527.889,421.983z M547.458,424.241h-3.059v12.889h-4.811
			v-27.826h4.811v11.018h3.059V424.241z"/>
		<path fill="#FFFFFF" d="M562.985,426.469c3.266-0.09,6.8-0.416,10.394-1.101l0.505,3.892c-4.574,0.95-9.146,1.188-13.186,1.188
			h-2.494v-18.561h4.781V426.469z M583.15,423.409h-3.594v13.661h-4.81v-27.826h4.81v10.245h3.594V423.409z"/>
	</g>
</g>
<rect x="648" y="411" opacity="0.8" fill="#441DB2" width="189" height="40"/>
<g>
	<g>
		<path fill="#FFFFFF" d="M670.683,433.463c-5.732,1.1-12.087,1.218-16.839,1.248l-0.415-3.742c1.396,0,2.969,0,4.632-0.029v-5.049
			h4.723v4.9c2.583-0.149,5.196-0.356,7.602-0.684L670.683,433.463z M664.297,428.711c0.387-2.256,0.506-4.097,0.535-5.671h-9.8
			v-3.771h14.552v1.87c0,2.02,0,4.752-0.624,8.138L664.297,428.711z M662.188,440.977h15.175v3.771h-19.985v-8.522h4.811V440.977z
			 M679.473,425.476v3.89h-2.97v8.701h-4.811v-20.788h4.811v8.197H679.473z"/>
		<path fill="#FFFFFF" d="M696.219,432.156c-3.089-0.86-5.107-2.554-6.355-4.751c-1.247,2.405-3.355,4.307-6.622,5.227l-2.316-3.742
			c4.929-1.425,6.474-4.869,6.474-7.958v-2.644h4.9v2.644c0,3.058,1.454,6.206,6.206,7.513L696.219,432.156z M685.735,434.087
			h18.857v10.78h-18.857V434.087z M690.457,441.154h9.444V437.8h-9.444V441.154z M704.593,417.309v15.68h-4.811v-15.68H704.593z"/>
		<path fill="#FFFFFF" d="M731.82,426.781c-0.862,2.852-3.684,4.782-7.187,4.782c-4.217,0-7.454-2.792-7.454-6.683
			c0-3.86,3.237-6.652,7.454-6.652c3.475,0,6.295,1.9,7.157,4.723h3.83v-5.643h4.811v14.729h-4.811v-5.256H731.82z M738.828,435.275
			c0,2.881,1.1,5.285,4.514,6.354l-2.315,3.563c-2.287-0.772-3.742-2.138-4.633-3.949c-0.921,1.752-2.376,3.147-4.514,3.949
			l-1.545-2.375v2.078h-10.452v-11.284h4.423v2.316h1.634v-2.316h4.396v7.661c2.762-1.425,3.741-3.683,3.741-5.998v-1.931h4.752
			V435.275z M724.634,427.643c1.663,0,2.879-0.95,2.879-2.762c0-1.781-1.216-2.731-2.879-2.731c-1.664,0-2.88,0.95-2.88,2.731
			C721.754,426.692,722.97,427.643,724.634,427.643z M725.939,439.344h-1.634v1.988h1.634V439.344z"/>
		<path fill="#FFFFFF" d="M769.472,430.554v3.771H744.23v-3.771H769.472z M751.685,440.828h15.204v3.771h-20.017v-8.374h4.813
			V440.828z M766.711,428.118H747.14v-9.859h4.812v6.088h14.76V428.118z"/>
		<path fill="#FFFFFF" d="M792.869,430.554c-1.337,1.246-3.178,1.989-5.286,1.989c-4.187,0-7.454-2.94-7.454-6.92
			c0-4.009,3.268-6.949,7.454-6.949c2.168,0,4.039,0.772,5.375,2.079h5.613v-3.444h4.81v16.215h-4.81v-2.97H792.869z M803.5,439.611
			c0,3.533-3.771,5.582-9.711,5.582c-5.908,0-9.681-2.049-9.681-5.582c0-3.535,3.772-5.584,9.681-5.584
			C799.729,434.027,803.5,436.076,803.5,439.611z M787.583,428.533c1.692,0,2.91-0.98,2.91-2.91c0-1.959-1.218-2.91-2.91-2.91
			s-2.911,0.951-2.911,2.91C784.672,427.553,785.891,428.533,787.583,428.533z M798.749,439.611c0-1.367-1.604-1.931-4.96-1.931
			c-3.355,0-4.929,0.563-4.929,1.931c0,1.396,1.573,1.93,4.929,1.93C797.146,441.541,798.749,441.007,798.749,439.611z
			 M798.571,424.524h-3.623c0.06,0.356,0.089,0.713,0.089,1.099c0,0.416-0.029,0.772-0.089,1.158h3.623V424.524z"/>
		<path fill="#FFFFFF" d="M817.959,436.819c1.93-0.119,3.83-0.268,5.672-0.534l0.355,3.444c-5.79,1.158-11.967,1.158-16.57,1.158
			l-0.564-3.832c1.871,0,4.039,0,6.297-0.059v-2.02c-2.733-0.652-4.545-2.553-4.515-4.989c0-3.117,2.91-5.286,6.949-5.286
			s6.949,2.169,6.949,5.286c0,2.437-1.812,4.337-4.573,4.989V436.819z M823.66,423.901h-16.244v-3.713h5.732v-2.701h4.811v2.701
			h5.701V423.901z M813.178,429.988c0,1.188,0.951,1.724,2.405,1.724c1.455,0,2.405-0.535,2.405-1.724
			c0-1.158-0.95-1.692-2.405-1.692C814.129,428.296,813.178,428.83,813.178,429.988z M832.748,432.246h-3.06v12.888h-4.811v-27.825
			h4.811v11.018h3.06V432.246z"/>
		<path fill="#FFFFFF" d="M868.023,429.543v3.416h-25.213v-3.416H868.023z M850.323,441.838h15.474v3.178h-20.225v-7.068h14.789
			v-0.86h-14.818v-3.179h19.57v6.979h-14.79V441.838z M860.302,420.753H845.84v-3.178h19.214v7.009h-14.462v0.92h14.967v3.179
			H845.84v-7.039h14.462V420.753z"/>
		<path fill="#FFFFFF" d="M903.654,438.453v3.83h-25.212v-3.83h5.761v-4.485h-3.801v-3.742h3.326v-7.156h-3.504v-3.771h21.529v3.771
			h-3.504v7.156h3.355v3.742h-3.802v4.485H903.654z M888.51,430.226h4.959v-7.156h-4.959V430.226z M888.985,438.453h4.038v-4.485
			h-4.038V438.453z"/>
		<path fill="#FFFFFF" d="M917.074,422.832c0,5.228,1.574,10.306,6.683,12.443l-2.763,3.86c-3.088-1.367-5.077-3.772-6.295-6.831
			c-1.188,3.356-3.268,6.088-6.593,7.573l-2.821-3.979c5.227-2.169,6.948-7.572,6.948-13.066v-3.505h4.841V422.832z
			 M929.043,417.249v28.005h-4.812v-28.005H929.043z"/>
		<path fill="#FFFFFF" d="M943.411,421.229h5.644V425h-16.126v-3.771h5.673v-3.416h4.81V421.229z M948.223,432.959
			c0,3.949-3.089,6.771-7.217,6.771s-7.216-2.821-7.216-6.771c0-3.95,3.088-6.771,7.216-6.771S948.223,429.009,948.223,432.959z
			 M943.649,432.959c0-1.93-1.069-2.911-2.644-2.911c-1.544,0-2.642,0.981-2.642,2.911s1.098,2.909,2.642,2.909
			C942.58,435.868,943.649,434.889,943.649,432.959z M958.854,431.8h-3.683v13.334h-4.812v-27.825h4.812v10.572h3.683V431.8z"/>
		<path fill="#FFFFFF" d="M974.857,433.345h-13.423v-13.928h13.423v1.959h4.246v-4.067h4.812v20.254h-4.812v-6.415h-4.246V433.345z
			 M984.509,440.977v3.771h-19.333v-9.147h4.812v5.376H984.509z M970.165,423.129h-4.009v6.504h4.009V423.129z M974.857,425.147
			v2.228h4.246v-2.228H974.857z"/>
	</g>
</g>
<g>
	<g>
		<path fill="#FFFFFF" d="M405.149,509.46h-15.56v11.331h-7.284V509.46h-15.379v-5.802h38.224V509.46z M368.589,496.372
			c8.994-0.898,12.591-4.496,13.445-7.554h-11.827v-5.666h12.097V478.7h7.284v4.452h12.142v5.666h-11.827
			c0.899,3.013,4.542,6.655,13.401,7.554l-2.518,5.712c-7.331-0.764-12.142-3.462-14.84-6.88c-2.653,3.418-7.465,6.071-14.84,6.88
			L368.589,496.372z"/>
		<path fill="#FFFFFF" d="M430.382,505.187c-4.542-1.304-7.6-3.866-9.533-7.104c-1.798,3.553-4.856,6.386-9.578,7.779l-3.553-5.711
			c6.925-2.068,9.264-6.836,9.398-11.377h-7.735v-5.621h7.735v-4.272h7.285v4.272h7.779v5.621h-7.779
			c0.18,4.183,2.473,8.769,9.398,10.747L430.382,505.187z M444.817,514.405v5.712h-29.275v-12.952h7.285v7.24H444.817z
			 M436.633,490.438v-11.872h7.284v31.073h-7.284v-13.401h-5.711v-5.8H436.633z"/>
		<path fill="#FFFFFF" d="M479.404,486.93c0,7.915,2.384,15.604,10.119,18.842l-4.183,5.846c-4.677-2.068-7.689-5.71-9.533-10.342
			c-1.799,5.081-4.947,9.218-9.983,11.466l-4.272-6.024c7.915-3.284,10.522-11.468,10.522-19.787v-5.307h7.33V486.93z
			 M497.527,478.476v42.405h-7.285v-42.405H497.527z"/>
		<path fill="#FFFFFF" d="M541.828,510.043v5.847h-38.178v-5.847H541.828z M537.78,503.748c-7.689-1.395-12.636-5.262-15.29-10.164
			c-2.698,4.902-7.6,8.77-15.245,10.164l-3.013-6.025c10.613-1.799,14.39-8.59,14.39-14.03v-2.969h7.779v2.969
			c0,5.575,3.643,12.231,14.39,14.03L537.78,503.748z"/>
		<path fill="#FFFFFF" d="M564.182,501.635c-4.722,0.809-8.77,0.854-14.705,0.854h-3.013v-21.585h15.874v5.666h-8.903v2.383h7.509
			v5.441h-7.509v2.428c3.687-0.045,6.746-0.226,10.162-0.764L564.182,501.635z M552.085,505.097h29.095v15.2h-29.095V505.097z
			 M559.235,514.676h14.84v-3.958h-14.84V514.676z M565.981,494.17h-3.328v-5.712h3.328v-9.308h6.745v24.192h-6.745V494.17z
			 M581.18,478.565v25.048h-6.88v-25.048H581.18z"/>
		<path fill="#FFFFFF" d="M609.965,496.553c0,9.443-4.811,15.29-11.287,15.29s-11.287-5.847-11.287-15.29
			c0-9.442,4.812-15.289,11.287-15.289S609.965,487.11,609.965,496.553z M594.362,496.553c0,5.937,1.708,8.679,4.317,8.679
			c2.608,0,4.317-2.742,4.317-8.679c0-5.936-1.709-8.678-4.317-8.678C596.07,487.875,594.362,490.617,594.362,496.553z
			 M621.657,478.431v42.45h-7.285v-42.45H621.657z"/>
		<path fill="#FFFFFF" d="M649.547,504.917c5.261-0.09,9.263-0.36,13.579-1.124l0.675,5.846c-5.396,0.989-10.478,1.169-17.942,1.169
			h-3.553v-28.689h19.021v5.711h-11.78V504.917z M676.168,478.521v42.36h-7.285v-22.395h-9.354v-5.801h9.354v-14.165H676.168z"/>
		<path fill="#FFFFFF" d="M716.511,502.759c-4.452-1.438-7.374-4.182-9.218-7.555c-1.8,3.911-4.947,7.06-9.759,8.589l-3.688-5.756
			c6.565-2.203,9.084-6.881,9.534-11.513h-7.646v-5.711h22.756v5.711h-7.511c0.451,4.228,2.879,8.545,9.085,10.568L716.511,502.759z
			 M730.137,512.606c0,5.217-5.666,8.274-14.705,8.274c-8.994,0-14.659-3.058-14.659-8.274s5.665-8.319,14.659-8.319
			C724.471,504.287,730.137,507.39,730.137,512.606z M722.852,512.606c0-2.023-2.384-2.833-7.42-2.833
			c-4.991,0-7.374,0.81-7.374,2.833c0,1.979,2.383,2.788,7.374,2.788C720.468,515.395,722.852,514.586,722.852,512.606z
			 M722.673,488.323v-9.758h7.284v25.003h-7.284v-9.444h-5.308v-5.801H722.673z"/>
		<path fill="#FFFFFF" d="M773.942,510.269v5.8h-38.269v-5.8h7.329v-12.951h7.15v12.951h3.237v-12.951h7.15v12.951H773.942z
			 M762.296,504.781c1.258-7.239,1.393-12.814,1.438-17.312h-24.463v-5.712h31.748v3.822c0,4.992,0,11.017-1.439,19.922
			L762.296,504.781z"/>
		<path fill="#FFFFFF" d="M790.63,484.411h6.206v5.712H777.05v-5.712h6.431V479.6h7.149V484.411z M796.387,501.769
			c0,6.026-3.912,10.254-9.354,10.254s-9.354-4.228-9.354-10.254c0-6.024,3.912-10.252,9.354-10.252
			S796.387,495.744,796.387,501.769z M790,501.769c0-2.878-1.213-4.271-2.967-4.271s-2.968,1.393-2.968,4.271
			c0,2.924,1.214,4.273,2.968,4.273S790,504.692,790,501.769z M813.61,478.521v42.136h-6.882V501.14h-2.023v17.943h-6.744v-39.888
			h6.744v16.144h2.023v-16.818H813.61z"/>
		<path fill="#FFFFFF" d="M841.766,499.836c-4.767-1.214-7.914-3.732-9.804-6.88c-1.888,3.597-5.216,6.43-10.252,7.733l-3.373-5.62
			c6.386-1.62,9.038-5.442,9.668-9.174h-7.734v-5.666h22.935v5.666h-7.465c0.629,3.418,3.191,6.835,9.309,8.363L841.766,499.836z
			 M854.672,515.08v5.486h-29.5V508.47h21.405v-1.574h-21.45V501.5h28.646v12.006h-21.405v1.574H854.672z M853.772,500.016h-7.284
			v-21.45h7.284V500.016z"/>
		<path fill="#FFFFFF" d="M910.665,506.852h-15.649v13.939h-7.285v-13.939h-15.289v-5.801h38.179L910.665,506.852z M906.753,498.756
			c-7.601-1.079-12.501-4.316-15.2-8.543c-2.697,4.227-7.6,7.464-15.199,8.543l-2.788-5.8c10.792-1.439,14.12-7.151,14.12-11.512
			v-1.8h7.734v1.8c0,4.36,3.328,10.072,14.12,11.512L906.753,498.756z"/>
		<path fill="#FFFFFF" d="M926.815,490.796c0-5.935,5.082-10.252,11.737-10.252s11.736,4.317,11.736,10.252
			c0,5.937-5.081,10.255-11.736,10.255S926.815,496.732,926.815,490.796z M957.755,504.872c0,4.362,1.798,8.274,7.464,9.983
			l-3.506,5.217c-3.823-1.26-6.297-3.599-7.736-6.611c-1.438,3.058-3.822,5.666-7.51,7.061c-3.731-1.35-6.115-3.867-7.554-6.926
			c-1.438,2.923-3.913,5.217-7.6,6.477l-3.509-5.217c5.622-1.844,7.51-5.892,7.51-9.983v-0.899h7.062v0.899
			c0,3.148,1.033,6.34,4.001,8.634c3.013-2.383,4.183-5.621,4.183-8.634v-0.899h7.195V504.872z M933.921,490.796
			c0,2.834,1.979,4.273,4.632,4.273s4.631-1.439,4.631-4.273c0-2.833-1.978-4.271-4.631-4.271S933.921,487.963,933.921,490.796z
			 M961.713,502.264h-7.286v-23.698h7.286V502.264z"/>
		<path fill="#FFFFFF" d="M1003.583,478.431v42.45h-7.284v-21.855h-5.801c-0.765,7.961-5.172,12.817-11.018,12.817
			c-6.386,0-11.107-5.847-11.107-15.335c0-9.397,4.722-15.244,11.107-15.244c5.621,0,9.938,4.497,10.927,11.962h5.892v-14.795
			H1003.583z M983.662,496.508c0-5.891-1.619-8.633-4.182-8.633c-2.563,0-4.184,2.742-4.184,8.633c0,5.981,1.62,8.724,4.184,8.724
			C982.043,505.231,983.662,502.489,983.662,496.508z"/>
		<path fill="#FFFFFF" d="M1047.344,510.269v5.8h-38.179v-5.8h7.869v-9.804c-3.014-2.023-4.812-4.991-4.812-8.589
			c0-7.06,6.835-11.602,16.009-11.602c9.173,0,16.009,4.542,16.009,11.602c0,3.598-1.799,6.565-4.812,8.589v9.804H1047.344z
			 M1019.417,491.876c0,3.868,3.418,5.981,8.814,5.981s8.813-2.113,8.813-5.981c0-3.913-3.417-5.98-8.813-5.98
			S1019.417,487.963,1019.417,491.876z M1024.273,510.269h7.915v-7.15c-1.259,0.225-2.608,0.314-3.957,0.314
			c-1.35,0-2.698-0.09-3.958-0.314V510.269z"/>
		<path fill="#FFFFFF" d="M1053.105,512.113c0-2.744,1.979-4.948,4.721-4.948c2.789,0,4.767,2.204,4.767,4.948
			c0,2.787-1.978,4.991-4.767,4.991C1055.084,517.104,1053.105,514.9,1053.105,512.113z M1054.095,489.133l-0.271-7.104h8.049
			l-0.27,7.104l-1.169,15.199h-5.171L1054.095,489.133z"/>
	</g>
</g>
<g>
	<path fill="#F47B0F" d="M226.217,100.033h25.84c16.237,0,29.603,5.741,29.603,23.959c0,17.523-13.563,25.247-29.107,25.247h-8.614
		v24.455h-17.722V100.033z M251.662,135.278c8.613,0,12.771-4.059,12.771-11.286c0-7.425-4.752-10-13.267-10h-7.228v21.286H251.662z
		"/>
	<path fill="#F47B0F" d="M294.236,100.033h17.722v73.66h-17.722V100.033z"/>
	<path fill="#F47B0F" d="M325.523,137.259c0-24.553,16.435-38.612,35.147-38.612c9.604,0,17.326,4.455,22.375,9.604l-9.307,11.287
		c-3.663-3.366-7.524-5.742-12.771-5.742c-9.505,0-17.326,8.514-17.326,22.87c0,14.653,6.732,23.168,17.128,23.168
		c5.841,0,10.594-2.971,14.059-6.733l9.306,11.089c-6.237,7.228-14.455,10.891-24.058,10.891
		C341.364,175.079,325.523,162.208,325.523,137.259z"/>
	<path fill="#F47B0F" d="M394.929,100.033h17.722v29.107h0.297l20.891-29.107h19.404l-22.276,29.503l26.435,44.157h-19.405
		l-17.326-30.197l-8.02,10.89v19.307h-17.722V100.033z"/>
	<path fill="#FFFFFF" d="M480.214,131.889h13.151l5.069,19.249c1.029,4.114,2.058,8.449,3.159,12.857h0.368
		c0.955-4.408,2.058-8.743,3.085-12.857l5.143-19.249h12.563l-13.518,41.805H494.1L480.214,131.889z"/>
	<path fill="#FFFFFF" d="M525.547,162.011c0-8.817,6.905-13.592,23.216-15.355c-0.294-3.38-2.057-5.364-6.318-5.364
		c-3.306,0-6.759,1.323-10.947,3.674l-4.555-8.596c5.509-3.306,11.461-5.51,18-5.51c10.8,0,16.898,6.024,16.898,19.103v23.73
		h-10.653l-0.955-4.188h-0.294c-3.453,3.086-7.347,5.216-11.976,5.216C530.249,174.721,525.547,168.991,525.547,162.011z
		 M548.763,161.277v-6.686c-8.155,1.103-10.8,3.453-10.8,6.392c0,2.425,1.764,3.601,4.482,3.601
		C545.089,164.583,546.853,163.334,548.763,161.277z"/>
	<path fill="#FFFFFF" d="M571.907,160.101V114.99h13.004v45.625c0,2.719,1.322,3.527,2.351,3.527c0.441,0,0.734,0,1.469-0.147
		l1.543,9.625c-1.396,0.587-3.601,1.102-6.466,1.102C574.846,174.721,571.907,168.844,571.907,160.101z"/>
	<path fill="#FFFFFF" d="M595.858,157.75v-25.861h13.077v24.245c0,5.804,1.543,7.42,4.849,7.42c2.939,0,4.775-1.175,6.98-4.261
		v-27.404h13.077v41.805h-10.653l-0.955-5.73h-0.294c-3.453,4.114-7.347,6.758-13.078,6.758
		C599.751,174.721,595.858,168.183,595.858,157.75z"/>
	<path fill="#FFFFFF" d="M642.513,162.011c0-8.817,6.906-13.592,23.217-15.355c-0.295-3.38-2.058-5.364-6.318-5.364
		c-3.307,0-6.76,1.323-10.947,3.674l-4.556-8.596c5.511-3.306,11.461-5.51,18-5.51c10.801,0,16.898,6.024,16.898,19.103v23.73
		h-10.653l-0.955-4.188h-0.294c-3.453,3.086-7.347,5.216-11.976,5.216C647.215,174.721,642.513,168.991,642.513,162.011z
		 M665.729,161.277v-6.686c-8.155,1.103-10.801,3.453-10.801,6.392c0,2.425,1.764,3.601,4.482,3.601
		C662.056,164.583,663.819,163.334,665.729,161.277z"/>
	<path fill="#FFFFFF" d="M688.873,160.101V114.99h13.005v45.625c0,2.719,1.322,3.527,2.351,3.527c0.441,0,0.734,0,1.469-0.147
		l1.543,9.625c-1.396,0.587-3.6,1.102-6.465,1.102C691.813,174.721,688.873,168.844,688.873,160.101z"/>
	<path fill="#FFFFFF" d="M710.914,152.828c0-13.592,9.698-21.968,19.836-21.968c12.05,0,17.928,8.742,17.928,20.204
		c0,2.278-0.294,4.629-0.588,5.583h-24.539c1.176,5.73,5.143,8.082,10.433,8.082c3.013,0,5.805-0.881,8.816-2.645l4.335,7.862
		c-4.335,3.086-10.065,4.775-14.988,4.775C720.171,174.721,710.914,166.64,710.914,152.828z M737.584,148.126
		c0-4.188-1.838-7.274-6.613-7.274c-3.6,0-6.758,2.278-7.64,7.274H737.584z"/>
	<path fill="#FFFFFF" d="M820.605,174.721c-4.556-0.808-9.479-2.792-14.254-5.436c-4.628,3.379-10.433,5.436-17.265,5.436
		c-12.269,0-18.515-7.42-18.515-15.722c0-7.64,4.629-12.049,9.918-15.355c-2.13-3.967-3.306-7.787-3.306-11.241
		c0-7.788,5.805-14.399,15.208-14.399c8.376,0,13.813,4.922,13.813,12.563c0,7.201-5.584,11.608-11.314,15.429
		c3.012,3.379,6.686,6.539,10.506,9.331c2.646-3.527,4.775-7.789,6.172-12.784h11.903c-1.984,6.612-4.924,12.71-9.111,18.294
		c3.38,1.689,6.612,2.938,9.331,3.306L820.605,174.721z M790.703,164.729c2.057,0,4.261-0.661,6.392-1.837
		c-4.04-3.232-7.715-6.906-10.873-10.727c-1.91,1.837-3.232,3.747-3.232,6.025C782.989,162.084,786.001,164.729,790.703,164.729z
		 M789.601,138.574c3.747-2.204,6.613-4.481,6.613-8.008c0-2.498-1.176-3.967-3.601-3.967c-2.57,0-4.702,2.13-4.702,5.804
		C787.911,134.313,788.499,136.444,789.601,138.574z"/>
	<path fill="#FFFFFF" d="M843.823,168.844l5.804-8.155c3.82,2.939,7.273,4.409,10.579,4.409c3.453,0,4.924-1.25,4.924-3.307
		c0-2.499-4.042-3.674-8.303-5.364c-4.995-1.983-10.874-5.363-10.874-12.27c0-7.935,6.467-13.297,16.164-13.297
		c6.612,0,11.314,2.645,14.987,5.363l-5.877,7.789c-2.938-2.057-5.878-3.527-8.67-3.527c-2.938,0-4.407,1.029-4.407,3.013
		c0,2.498,3.819,3.453,8.154,4.996c5.216,1.984,11.021,4.996,11.021,12.563c0,7.715-6.024,13.665-17.413,13.665
		C854.476,174.721,848.01,172.37,843.823,168.844z"/>
	<path fill="#FFFFFF" d="M883.938,119.399c0-3.968,3.086-6.76,7.494-6.76c4.334,0,7.42,2.792,7.42,6.76
		c0,3.894-3.086,6.685-7.42,6.685C887.024,126.084,883.938,123.293,883.938,119.399z M884.893,131.889h13.005v41.805h-13.005
		V131.889z"/>
	<path fill="#FFFFFF" d="M908.479,131.889h10.652l0.883,5.29h0.292c3.454-3.453,7.054-6.318,12.711-6.318
		c5.805,0,9.331,2.424,11.461,6.906c3.601-3.674,7.494-6.906,13.079-6.906c9.109,0,13.077,6.539,13.077,16.971v25.862h-13.077
		v-24.246c0-5.73-1.471-7.42-4.777-7.42c-1.909,0-4.187,1.175-6.685,3.747v27.919h-13.151v-24.246c0-5.73-1.469-7.42-4.775-7.42
		c-1.91,0-4.188,1.175-6.686,3.747v27.919h-13.004V131.889z"/>
	<path fill="#FFFFFF" d="M980.849,131.889h10.653l0.881,4.041h0.294c3.306-2.939,7.42-5.069,11.755-5.069
		c9.992,0,16.311,8.375,16.311,21.232c0,14.4-8.596,22.628-17.559,22.628c-3.527,0-6.906-1.542-9.698-4.334l0.366,6.539v11.975
		h-13.003V131.889z M1007.297,152.313c0-7.347-2.13-10.8-6.759-10.8c-2.425,0-4.408,1.102-6.687,3.526v16.531
		c2.058,1.837,4.262,2.424,6.245,2.424C1004.064,163.995,1007.297,160.688,1007.297,152.313z"/>
	<path fill="#FFFFFF" d="M1029.192,160.101V114.99h13.005v45.625c0,2.719,1.321,3.527,2.35,3.527c0.441,0,0.734,0,1.47-0.147
		l1.543,9.625c-1.396,0.587-3.601,1.102-6.465,1.102C1032.131,174.721,1029.192,168.844,1029.192,160.101z"/>
	<path fill="#FFFFFF" d="M1051.232,152.828c0-13.592,9.699-21.968,19.838-21.968c12.049,0,17.927,8.742,17.927,20.204
		c0,2.278-0.294,4.629-0.589,5.583h-24.538c1.176,5.73,5.143,8.082,10.433,8.082c3.013,0,5.805-0.881,8.816-2.645l4.334,7.862
		c-4.334,3.086-10.064,4.775-14.987,4.775C1060.49,174.721,1051.232,166.64,1051.232,152.828z M1077.902,148.126
		c0-4.188-1.836-7.274-6.611-7.274c-3.602,0-6.76,2.278-7.641,7.274H1077.902z"/>
</g>
<polyline fill="none" stroke="#441DB2" stroke-width="20" stroke-miterlimit="10" points="208.103,637.688 195.686,580.171 
	237.88,573.533 212.83,524.284 "/>
<polyline fill="none" stroke="#F47B0F" stroke-width="20" stroke-miterlimit="10" points="191.672,630.37 179.257,572.85 
	221.452,566.219 196.403,516.968 "/>
<line fill="none" stroke="#441DB2" stroke-width="20" stroke-miterlimit="10" x1="223.405" y1="735.266" x2="93.586" y2="670.753"/>
<polyline fill="none" stroke="#FFFFFF" stroke-width="16" stroke-miterlimit="10" points="1244.788,387.147 1249.002,432.622 
	1209.297,439.402 1230.248,480.95 1177.688,505.839 "/>
<polyline fill="none" stroke="#FFFFFF" stroke-width="20" stroke-miterlimit="10" points="-25.017,482.401 37.439,515.272 
	26.533,536.915 77.631,550.115 61.578,581.964 109.538,592.339 "/>
<line fill="none" stroke="#F47B0F" stroke-width="16" stroke-miterlimit="10" x1="1081.494" y1="428.526" x2="1145.673" y2="443.477"/>
<polygon fill="none" stroke="#F47B0F" stroke-width="16" stroke-miterlimit="10" points="1194.504,334.846 1173.578,308.646 
	1199.083,287.153 1220.008,313.351 "/>
<line fill="none" stroke="#441DB2" stroke-width="16" stroke-miterlimit="10" x1="1161.04" y1="404.339" x2="1102.412" y2="350.616"/>
</svg>
