<?xml version="1.0" encoding="utf-8"?>
<!-- Generator: Adobe Illustrator 16.0.0, SVG Export Plug-In . SVG Version: 6.00 Build 0)  -->
<!DOCTYPE svg PUBLIC "-//W3C//DTD SVG 1.1//EN" "http://www.w3.org/Graphics/SVG/1.1/DTD/svg11.dtd">
<svg version="1.1" id="레이어_1" xmlns="http://www.w3.org/2000/svg" xmlns:xlink="http://www.w3.org/1999/xlink" x="0px"
	 y="0px" width="1280px" height="720px" viewBox="0 0 1280 720" enable-background="new 0 0 1280 720" xml:space="preserve">
<g>
	<path fill="#F47B0F" d="M112.435,239.035h29.429c18.493,0,33.714,6.539,33.714,27.287c0,19.958-15.448,28.753-33.15,28.753h-9.81
		v27.851h-20.183L112.435,239.035L112.435,239.035z M141.414,279.176c9.81,0,14.546-4.623,14.546-12.854
		c0-8.458-5.412-11.388-15.109-11.388h-8.232v24.242H141.414z"/>
	<path fill="#F47B0F" d="M189.902,239.035h20.183v83.89h-20.183V239.035z"/>
	<path fill="#F47B0F" d="M225.534,281.431c0-27.963,18.717-43.975,40.029-43.975c10.938,0,19.732,5.074,25.482,10.937
		l-10.599,12.854c-4.172-3.833-8.57-6.539-14.546-6.539c-10.825,0-19.733,9.697-19.733,26.046c0,16.688,7.667,26.386,19.507,26.386
		c6.652,0,12.065-3.384,16.011-7.667l10.599,12.629c-7.104,8.231-16.462,12.403-27.4,12.403
		C243.574,324.504,225.534,309.844,225.534,281.431z"/>
	<path fill="#F47B0F" d="M304.579,239.035h20.183v33.149h0.338l23.791-33.149h22.1l-25.37,33.601l30.106,50.29h-22.101
		l-19.732-34.391l-9.133,12.402v21.988h-20.183L304.579,239.035L304.579,239.035z"/>
	<path fill="#FFFFFF" d="M401.708,275.315h14.977l5.774,21.922c1.172,4.686,2.343,9.623,3.598,14.643h0.418
		c1.088-5.02,2.343-9.957,3.515-14.643l5.857-21.922h14.308l-15.396,47.61h-17.237L401.708,275.315z"/>
	<path fill="#FFFFFF" d="M453.337,309.621c0-10.042,7.865-15.48,26.44-17.488c-0.335-3.85-2.343-6.109-7.195-6.109
		c-3.765,0-7.699,1.506-12.468,4.184l-5.188-9.789c6.276-3.766,13.053-6.276,20.5-6.276c12.3,0,19.245,6.861,19.245,21.754v27.026
		h-12.132l-1.088-4.77h-0.335c-3.931,3.515-8.368,5.941-13.638,5.941C458.692,324.096,453.337,317.57,453.337,309.621z
		 M479.777,308.785v-7.615c-9.287,1.257-12.3,3.934-12.3,7.28c0,2.762,2.008,4.1,5.104,4.1
		C475.595,312.549,477.602,311.127,479.777,308.785z"/>
	<path fill="#FFFFFF" d="M506.136,307.445v-51.375h14.811v51.961c0,3.096,1.505,4.017,2.678,4.017c0.502,0,0.836,0,1.673-0.168
		l1.757,10.962c-1.59,0.669-4.1,1.255-7.364,1.255C509.483,324.096,506.136,317.402,506.136,307.445z"/>
	<path fill="#FFFFFF" d="M533.413,304.767v-29.452h14.894v27.612c0,6.609,1.757,8.451,5.522,8.451c3.348,0,5.439-1.338,7.95-4.853
		v-31.21h14.893v47.61H564.54l-1.087-6.527h-0.335c-3.933,4.686-8.368,7.698-14.894,7.698
		C537.848,324.096,533.413,316.65,533.413,304.767z"/>
	<path fill="#FFFFFF" d="M586.548,309.621c0-10.042,7.865-15.48,26.441-17.488c-0.335-3.85-2.345-6.109-7.196-6.109
		c-3.766,0-7.698,1.506-12.468,4.184l-5.188-9.789c6.275-3.766,13.052-6.276,20.499-6.276c12.301,0,19.246,6.861,19.246,21.754
		v27.026H615.75l-1.087-4.77h-0.335c-3.932,3.515-8.367,5.941-13.639,5.941C591.902,324.096,586.548,317.57,586.548,309.621z
		 M612.988,308.785v-7.615c-9.288,1.257-12.299,3.934-12.299,7.28c0,2.762,2.009,4.1,5.104,4.1
		C608.804,312.549,610.813,311.127,612.988,308.785z"/>
	<path fill="#F47B0F" d="M643.02,239.035h20.184v66.976h32.586v16.914h-52.77V239.035z"/>
	<path fill="#F47B0F" d="M710.337,239.035h53.221v16.687h-33.037v15.561h28.075v16.913h-28.075v17.815h34.277v16.914h-54.461
		V239.035L710.337,239.035z"/>
</g>
<g>
	<path fill="#F47B0F" d="M112.435,92.225h29.429c18.493,0,33.714,6.54,33.714,27.287c0,19.958-15.448,28.753-33.15,28.753h-9.81
		v27.851h-20.183L112.435,92.225L112.435,92.225z M141.414,132.366c9.81,0,14.546-4.622,14.546-12.854
		c0-8.457-5.412-11.389-15.109-11.389h-8.232v24.242H141.414L141.414,132.366z"/>
	<path fill="#F47B0F" d="M189.902,92.225h20.183v83.891h-20.183V92.225z"/>
	<path fill="#F47B0F" d="M225.534,134.62c0-27.963,18.717-43.975,40.029-43.975c10.938,0,19.732,5.075,25.482,10.938l-10.599,12.854
		c-4.172-3.834-8.57-6.539-14.546-6.539c-10.825,0-19.733,9.697-19.733,26.046c0,16.688,7.667,26.385,19.507,26.385
		c6.652,0,12.065-3.383,16.011-7.668l10.599,12.629c-7.104,8.231-16.462,12.402-27.4,12.402
		C243.574,177.694,225.534,163.036,225.534,134.62z"/>
	<path fill="#F47B0F" d="M304.579,92.225h20.183v33.151h0.338l23.791-33.15h22.1l-25.37,33.601l30.106,50.29h-22.101l-19.732-34.391
		l-9.133,12.402v21.988h-20.183L304.579,92.225L304.579,92.225z"/>
	<path fill="#FFFFFF" d="M402.461,170.593l6.611-9.288c4.351,3.348,8.283,5.02,12.048,5.02c3.933,0,5.606-1.423,5.606-3.766
		c0-2.845-4.602-4.184-9.456-6.107c-5.69-2.259-12.383-6.109-12.383-13.975c0-9.036,7.364-15.145,18.408-15.145
		c7.53,0,12.885,3.013,17.068,6.109l-6.693,8.87c-3.348-2.343-6.694-4.017-9.874-4.017c-3.348,0-5.021,1.171-5.021,3.431
		c0,2.844,4.352,3.931,9.289,5.69c5.94,2.259,12.551,5.69,12.551,14.308c0,8.786-6.861,15.563-19.831,15.563
		C414.594,177.287,407.23,174.61,402.461,170.593z"/>
	<path fill="#FFFFFF" d="M448.148,114.281c0-4.518,3.515-7.697,8.536-7.697c4.937,0,8.451,3.18,8.451,7.697
		c0,4.436-3.515,7.615-8.451,7.615C451.663,121.896,448.148,118.716,448.148,114.281z M449.237,128.506h14.811v47.61h-14.811
		V128.506z"/>
	<path fill="#FFFFFF" d="M476.097,128.506h12.132l1.004,6.024h0.335c3.932-3.932,8.033-7.196,14.475-7.196
		c6.611,0,10.627,2.762,13.054,7.865c4.1-4.184,8.534-7.865,14.894-7.865c10.375,0,14.894,7.447,14.894,19.329v29.453H531.99
		v-27.612c0-6.527-1.674-8.451-5.439-8.451c-2.176,0-4.77,1.338-7.613,4.268v31.795H503.96v-27.612c0-6.527-1.673-8.451-5.438-8.451
		c-2.177,0-4.77,1.338-7.614,4.268v31.795h-14.81L476.097,128.506L476.097,128.506z"/>
	<path fill="#FFFFFF" d="M558.517,128.506h12.134l1.004,4.602h0.334c3.765-3.347,8.45-5.773,13.388-5.773
		c11.378,0,18.575,9.539,18.575,24.183c0,16.399-9.789,25.771-19.998,25.771c-4.017,0-7.866-1.758-11.045-4.937l0.419,7.448v13.638
		h-14.812L558.517,128.506L558.517,128.506z M588.64,151.766c0-8.368-2.427-12.3-7.699-12.3c-2.761,0-5.019,1.256-7.613,4.017
		v18.826c2.343,2.092,4.854,2.761,7.111,2.761C584.958,165.071,588.64,161.305,588.64,151.766z"/>
	<path fill="#F47B0F" d="M617.248,92.225h20.184v66.978h32.587v16.913h-52.771V92.225z"/>
	<path fill="#F47B0F" d="M684.565,92.225h53.222v16.688h-33.038v15.56h28.075v16.914h-28.075v17.815h34.278v16.913h-54.462V92.225
		L684.565,92.225z"/>
</g>
<g>
	<path fill="#F47B0F" d="M112.435,385.843h29.429c18.493,0,33.714,6.54,33.714,27.288c0,19.958-15.448,28.753-33.15,28.753h-9.81
		v27.851h-20.183L112.435,385.843L112.435,385.843z M141.414,425.985c9.81,0,14.546-4.623,14.546-12.854
		c0-8.457-5.412-11.389-15.109-11.389h-8.232v24.242H141.414z"/>
	<path fill="#F47B0F" d="M189.902,385.843h20.183v83.891h-20.183V385.843z"/>
	<path fill="#F47B0F" d="M225.534,428.24c0-27.964,18.717-43.976,40.029-43.976c10.938,0,19.732,5.073,25.482,10.938l-10.599,12.854
		c-4.172-3.834-8.57-6.539-14.546-6.539c-10.825,0-19.733,9.697-19.733,26.046c0,16.688,7.667,26.386,19.507,26.386
		c6.652,0,12.065-3.383,16.011-7.668l10.599,12.629c-7.104,8.232-16.462,12.404-27.4,12.404
		C243.574,471.313,225.534,456.655,225.534,428.24z"/>
	<path fill="#F47B0F" d="M304.579,385.843h20.183v33.151h0.338l23.791-33.151h22.1l-25.37,33.602l30.106,50.29h-22.101
		l-19.732-34.391l-9.133,12.403v21.987h-20.183L304.579,385.843L304.579,385.843z"/>
	<path fill="#FFFFFF" d="M402.412,431.641h11.783l3.414,17.071c0.603,3.75,1.004,7.565,1.606,11.381h0.335
		c0.669-3.815,1.272-7.698,2.209-11.381l3.882-17.071h10.311l4.084,17.071c0.87,3.75,1.54,7.565,2.342,11.381h0.335
		c0.603-3.815,0.937-7.631,1.674-11.381l3.281-17.071h11.046l-8.97,38.094h-13.926l-3.213-14.527
		c-0.736-3.548-1.338-7.03-2.009-11.18h-0.334c-0.603,4.15-1.139,7.632-1.808,11.18l-3.08,14.527h-13.589L402.412,431.641z"/>
	<path fill="#FFFFFF" d="M464.533,420.261c0-3.616,2.812-6.159,6.829-6.159c3.95,0,6.761,2.543,6.761,6.159
		c0,3.547-2.811,6.092-6.761,6.092C467.345,426.353,464.533,423.808,464.533,420.261z M465.404,431.641h11.85v38.094h-11.85V431.641
		z"/>
	<path fill="#FFFFFF" d="M488.431,455.609v-14.661h-5.155v-8.838l5.826-0.469l1.338-10.042h9.909v10.042h8.971v9.307h-8.971v14.528
		c0,4.216,2.008,5.891,4.82,5.891c1.205,0,2.544-0.402,3.481-0.67l1.874,8.569c-2.007,0.602-4.752,1.406-8.635,1.406
		C492.313,470.672,488.431,464.646,488.431,455.609z"/>
	<path fill="#FFFFFF" d="M516.68,416.243h11.85v12.854l-0.535,6.761c2.744-2.544,6.493-5.155,11.648-5.155
		c8.301,0,11.85,5.958,11.85,15.466v23.565h-11.917v-22.093c0-5.222-1.405-6.762-4.418-6.762c-2.678,0-4.284,1.206-6.627,3.415
		v25.439h-11.85L516.68,416.243L516.68,416.243z"/>
	<path fill="#FFFFFF" d="M575.168,456.43c0-10.041,7.865-15.479,26.44-17.488c-0.335-3.85-2.343-6.107-7.195-6.107
		c-3.766,0-7.699,1.506-12.468,4.184l-5.188-9.79c6.276-3.765,13.053-6.275,20.5-6.275c12.3,0,19.245,6.862,19.245,21.756v27.025
		h-12.133l-1.087-4.77h-0.335c-3.932,3.514-8.368,5.941-13.638,5.941C580.523,470.906,575.168,464.379,575.168,456.43z
		 M601.608,455.594v-7.614c-9.288,1.255-12.3,3.933-12.3,7.279c0,2.762,2.008,4.101,5.104,4.101
		C597.425,459.36,599.433,457.936,601.608,455.594z"/>
	<path fill="#FFFFFF" d="M627.966,422.124h12.133l1.004,8.283h0.334c3.515-6.359,8.786-9.455,13.556-9.455
		c2.845,0,4.435,0.419,5.772,1.004l-2.509,12.804c-1.674-0.419-3.097-0.755-5.188-0.755c-3.514,0-7.781,2.261-10.291,8.536v27.193
		h-14.811V422.124L627.966,422.124z"/>
	<path fill="#FFFFFF" d="M668.717,452.079v-18.324h-6.442V422.71l7.278-0.586l1.675-12.551h12.383v12.551h11.213v11.631H683.61
		v18.157c0,5.271,2.509,7.363,6.024,7.363c1.506,0,3.18-0.502,4.351-0.837l2.344,10.711c-2.51,0.753-5.942,1.758-10.794,1.758
		C673.57,470.906,668.717,463.375,668.717,452.079z"/>
	<path fill="#FFFFFF" d="M702.94,407.9c0-4.518,3.514-7.697,8.534-7.697c4.938,0,8.452,3.18,8.452,7.697
		c0,4.436-3.515,7.614-8.452,7.614C706.454,415.514,702.94,412.335,702.94,407.9z M704.027,422.124h14.811v47.61h-14.811V422.124z"
		/>
	<path fill="#FFFFFF" d="M728.21,445.971c0-15.814,11.714-25.019,25.019-25.019c5.773,0,10.29,2.009,13.889,5.104l-6.945,9.539
		c-2.175-1.84-4.017-2.594-6.107-2.594c-6.527,0-10.627,5.021-10.627,12.97c0,7.865,4.268,12.886,10.125,12.886
		c3.012,0,5.857-1.423,8.283-3.349l5.69,9.791c-4.603,4.099-10.627,5.605-15.648,5.605
		C738.501,470.906,728.21,461.701,728.21,445.971z"/>
	<path fill="#F47B0F" d="M779.493,385.843h20.185v66.978h32.586v16.913h-52.771V385.843z"/>
	<path fill="#F47B0F" d="M846.811,385.843h53.222v16.688h-33.038v15.561h28.076v16.913h-28.076v17.815h34.278v16.913h-54.462
		V385.843z"/>
</g>
<g id="deco" opacity="0.8">
	<polyline fill="none" stroke="#441DB2" stroke-width="20" stroke-miterlimit="10" points="1144.242,529.31 1167.725,486.477 
		1196.982,505.716 1208.313,461.048 	"/>
	
		<line fill="none" stroke="#FFFFFF" stroke-width="20" stroke-miterlimit="10" x1="1226.735" y1="556.861" x2="1299.295" y2="525.824"/>
	<polyline fill="none" stroke="#F47B0F" stroke-width="20" stroke-miterlimit="10" points="1139.011,513.148 1162.493,470.317 
		1191.75,489.555 1203.084,444.887 	"/>
	<polygon fill="none" stroke="#441DB2" stroke-width="20" stroke-miterlimit="10" points="1050.003,639.64 1024.942,608.264 
		1055.487,582.524 1080.547,613.897 	"/>
	<polygon fill="none" stroke="#F47B0F" stroke-width="20" stroke-miterlimit="10" points="1050.003,639.64 1024.942,608.264 
		1055.487,582.524 1080.547,613.897 	"/>
	<line fill="none" stroke="#441DB2" stroke-width="20" stroke-miterlimit="10" x1="1029.69" y1="720" x2="941.707" y2="639.381"/>
	<polyline fill="none" stroke="#F47B0F" stroke-width="20" stroke-miterlimit="10" points="1219.888,608.384 1221.82,652.448 
		1184.225,657.171 1202.055,698.214 1151.579,719.823 	"/>
	<polyline fill="none" stroke="#FFFFFF" stroke-width="20" stroke-miterlimit="10" points="979.152,351.351 1027.305,406.365 
		1008.708,423.23 1053.197,455.004 1025.832,479.821 1068.339,507.696 	"/>
	
		<line fill="none" stroke="#441DB2" stroke-width="20" stroke-miterlimit="10" x1="1278.856" y1="391.25" x2="1208.644" y2="326.914"/>
</g>
</svg>
