<?xml version="1.0" encoding="utf-8"?>
<!-- Generator: Adobe Illustrator 16.0.0, SVG Export Plug-In . SVG Version: 6.00 Build 0)  -->
<!DOCTYPE svg PUBLIC "-//W3C//DTD SVG 1.1//EN" "http://www.w3.org/Graphics/SVG/1.1/DTD/svg11.dtd">
<svg version="1.1" id="Layer_1" xmlns="http://www.w3.org/2000/svg" xmlns:xlink="http://www.w3.org/1999/xlink" x="0px" y="0px"
	 width="512px" height="512px" viewBox="0 0 512 512" enable-background="new 0 0 512 512" xml:space="preserve">
<g>
	<path fill="#FF9433" d="M245.002,10.998c-84.462,0-158.939,42.742-202.989,107.773l58.746,335.268
		c40.467,29.525,90.315,46.962,144.243,46.962c97,0,180.826-56.374,220.522-138.142v-29.545h12.016
		c8.077-24.306,12.464-50.297,12.464-77.315C490.004,120.689,380.313,10.998,245.002,10.998z"/>
	<path fill="#4848AA" d="M511.682,280.848L457.46,63.22c-1.213-4.865-5.635-8.208-10.647-8.122
		c-14.09,0.242-27.191-7.632-33.588-20.189c-2.276-4.468-7.303-6.804-12.168-5.592c-4.15,1.034-53.228,13.261-117.256,29.214
		l19.811,79.513h120.51c4.385,0,8.142,3.01,9.138,7.32c3.274,14.175,14.549,25.45,28.724,28.724c4.311,0.996,7.32,4.753,7.32,9.138
		v156.138c4.667-1.163,7.592-1.892,8.475-2.112c4.865-1.212,8.208-5.634,8.122-10.646c-0.242-14.09,7.633-27.191,20.189-33.588
		C510.558,290.74,512.894,285.713,511.682,280.848L511.682,280.848z"/>
	<path fill="#353389" d="M30.227,138.043h276.201L286.452,57.87c-76.64,19.094-175.588,43.748-244.439,60.902
		C37.797,124.996,33.868,131.429,30.227,138.043L30.227,138.043z"/>
	<path fill="#301F84" d="M179.025,136.691c-16.333-9.057-7.891-25.006-7.891-25.006c-16.391-8.23-8.579-22.946-8.579-22.946
		C119.2,99.54,76.771,110.112,42.013,118.771c-4.216,6.224-8.145,12.657-11.786,19.272h147.348
		C178.411,137.168,179.025,136.691,179.025,136.691z"/>
	<path fill="#FFFFFF" d="M303.612,138.043h118.787l-15.747-63.202c-2.829-11.355-14.327-18.267-25.682-15.438l-91.285,22.744
		L303.612,138.043z"/>
	<path fill="#DBDBDB" d="M306.428,138.043l-14.091-56.556L65.34,138.043H306.428z"/>
	<path fill="#BABABA" d="M179.025,136.691c-16.333-9.057-7.892-25.006-7.891-25.006L65.34,138.043h112.234
		C178.411,137.168,179.025,136.691,179.025,136.691z"/>
	<g>
		<path fill="#FFB332" d="M334.055,124.243c-3.157,0-6.029-2.139-6.826-5.34c-0.941-3.773,1.357-7.594,5.129-8.534l46.944-11.696
			c3.771-0.942,7.593,1.356,8.534,5.13c0.94,3.773-1.357,7.594-5.13,8.534l-46.943,11.696
			C335.19,124.175,334.617,124.243,334.055,124.243L334.055,124.243z"/>
	</g>
	<g>
		<path fill="#FFB332" d="M288.015,71.204c-3.157,0-6.029-2.139-6.826-5.341l-1.567-6.292c-0.941-3.773,1.356-7.594,5.129-8.534
			c3.771-0.942,7.593,1.356,8.534,5.13l1.567,6.293c0.941,3.773-1.356,7.594-5.129,8.533
			C289.15,71.136,288.578,71.204,288.015,71.204L288.015,71.204z"/>
	</g>
	<g>
		<path fill="#FFB332" d="M296.365,104.72c-3.156,0-6.028-2.139-6.825-5.34l-1.568-6.293c-0.941-3.773,1.357-7.594,5.129-8.534
			c3.772-0.942,7.593,1.356,8.534,5.13l1.567,6.293c0.941,3.773-1.356,7.594-5.129,8.533
			C297.501,104.652,296.929,104.72,296.365,104.72z"/>
	</g>
	<g>
		<path fill="#FF9433" d="M304.716,138.236c-3.157,0-6.028-2.139-6.826-5.34l-1.568-6.293c-0.939-3.773,1.357-7.594,5.129-8.533
			c3.771-0.942,7.595,1.356,8.534,5.13l1.568,6.292c0.94,3.773-1.357,7.594-5.129,8.534
			C305.852,138.168,305.28,138.236,304.716,138.236L304.716,138.236z"/>
	</g>
	<path fill="#5242CC" d="M462.287,172.769c-13.73-3.171-24.539-13.98-27.711-27.71c-1.128-4.885-5.44-8.368-10.455-8.368
		c-4.258,0-54.418,0-119.984,0V454.04h119.984c5.015,0,9.327-3.482,10.455-8.368c3.172-13.73,13.98-24.539,27.711-27.711
		c4.887-1.128,8.368-5.441,8.368-10.455V183.225C470.655,178.211,467.173,173.898,462.287,172.769z"/>
	<path fill="#726DE2" d="M462.287,172.769c-13.73-3.171-24.539-13.98-27.711-27.71c-1.128-4.885-5.44-8.368-10.455-8.368
		c-1.915,0-13.121,0-30.837,0c0,0-13.646,10.694,0,24.34l25.261,123.232c0,0,23.252,28.858,52.109,0V183.225
		C470.655,178.211,467.173,173.898,462.287,172.769L462.287,172.769z"/>
	<path fill="#4C33C4" d="M30.983,136.691c-4.393,7.864-8.363,15.997-11.886,24.364l53.126,268.619
		c8.87,8.823,18.407,16.977,28.536,24.366h205.255V136.691C217.971,136.691,101.358,136.691,30.983,136.691z"/>
	<path fill="#441DB2" d="M172.025,429.7c-12-6.798-11.5-20.702-11.5-20.702s0-44,0-62.5s9.509-25.121,9.509-25.121l-13.636-27.076
		l19.121-28.699c-15.985-22.31,3.506-35.722,3.506-35.722v-33.035c-17.952-17.952,0-35.814,0-35.814c-13.733-13.734,0-24.34,0-24.34
		c-55.08,0-108.763,0-148.043,0c-4.393,7.864-8.363,15.997-11.886,24.364l53.126,268.619c8.87,8.823,18.407,16.977,28.536,24.366
		h71.266C158.546,440.561,172.025,429.7,172.025,429.7z"/>
	<path fill="#FFFFFF" d="M397.357,161.031h-93.22V429.7h93.22c11.702,0,21.188-9.487,21.188-21.188V182.219
		C418.545,170.517,409.059,161.031,397.357,161.031z"/>
	<path fill="#DBDBDB" d="M0,256c0,67.891,27.619,129.328,72.228,173.7h233.786V161.03H19.092C6.799,190.237,0,222.324,0,256L0,256z"
		/>
	<path fill="#BABABA" d="M160.525,408.998c0,0,0-44,0-62.5s9.509-25.121,9.509-25.121l-13.636-27.076l19.121-28.699
		c-15.985-22.31,3.506-35.722,3.506-35.722v-33.035c-17.952-17.952,0-35.814,0-35.814H19.092C6.799,190.237,0,222.324,0,256
		c0,67.891,27.619,129.327,72.228,173.7h99.797C160.025,422.903,160.525,408.998,160.525,408.998L160.525,408.998z"/>
	<g>
		<g>
			<path fill="#FFB332" d="M306.014,150.216c-3.889,0-7.041-3.152-7.041-7.041v-6.485c0-3.888,3.152-7.041,7.041-7.041
				s7.041,3.152,7.041,7.041v6.485C313.055,147.064,309.903,150.216,306.014,150.216z"/>
		</g>
		<g>
			<path fill="#FFB332" d="M306.014,184.757c-3.889,0-7.041-3.152-7.041-7.04v-6.485c0-3.888,3.152-7.041,7.041-7.041
				s7.041,3.152,7.041,7.041v6.485C313.055,181.605,309.903,184.757,306.014,184.757z"/>
		</g>
		<g>
			<path fill="#FFB332" d="M306.014,219.297c-3.889,0-7.041-3.152-7.041-7.04v-6.485c0-3.888,3.152-7.041,7.041-7.041
				s7.041,3.152,7.041,7.041v6.485C313.055,216.145,309.903,219.297,306.014,219.297z"/>
		</g>
		<g>
			<path fill="#FFB332" d="M306.014,253.838c-3.889,0-7.041-3.152-7.041-7.041v-6.485c0-3.888,3.152-7.041,7.041-7.041
				s7.041,3.152,7.041,7.041v6.485C313.055,250.685,309.903,253.838,306.014,253.838z"/>
		</g>
		<g>
			<path fill="#FFB332" d="M306.014,288.378c-3.889,0-7.041-3.151-7.041-7.041v-6.485c0-3.888,3.152-7.041,7.041-7.041
				s7.041,3.152,7.041,7.041v6.485C313.055,285.227,309.903,288.378,306.014,288.378z"/>
		</g>
		<g>
			<path fill="#FFB332" d="M306.014,322.919c-3.889,0-7.041-3.151-7.041-7.041v-6.485c0-3.888,3.152-7.041,7.041-7.041
				s7.041,3.152,7.041,7.041v6.485C313.055,319.768,309.903,322.919,306.014,322.919z"/>
		</g>
		<g>
			<path fill="#FFB332" d="M306.014,357.459c-3.889,0-7.041-3.152-7.041-7.04v-6.485c0-3.888,3.152-7.041,7.041-7.041
				s7.041,3.152,7.041,7.041v6.485C313.055,354.307,309.903,357.459,306.014,357.459z"/>
		</g>
		<g>
			<path fill="#FFB332" d="M306.014,391.999c-3.889,0-7.041-3.151-7.041-7.041v-6.483c0-3.889,3.152-7.041,7.041-7.041
				s7.041,3.151,7.041,7.041v6.483C313.055,388.848,309.903,391.999,306.014,391.999z"/>
		</g>
		<g>
			<path fill="#FFB332" d="M306.014,426.54c-3.889,0-7.041-3.152-7.041-7.041v-6.485c0-3.888,3.152-7.041,7.041-7.041
				s7.041,3.152,7.041,7.041v6.485C313.055,423.388,309.903,426.54,306.014,426.54z"/>
		</g>
		<g>
			<path fill="#FFB332" d="M306.014,461.081c-3.889,0-7.041-3.152-7.041-7.041v-6.485c0-3.888,3.152-7.041,7.041-7.041
				s7.041,3.152,7.041,7.041v6.485C313.055,457.928,309.903,461.081,306.014,461.081z"/>
		</g>
	</g>
	<g>
		<path fill="#FFB332" d="M386.243,212.812h-48.379c-3.889,0-7.041-3.152-7.041-7.041c0-3.888,3.152-7.041,7.041-7.041h48.379
			c3.89,0,7.041,3.152,7.041,7.041S390.133,212.812,386.243,212.812z"/>
	</g>
	<g>
		<path fill="#FFDD40" d="M386.243,236.92h-48.379c-3.889,0-7.041-3.152-7.041-7.041c0-3.889,3.152-7.041,7.041-7.041h48.379
			c3.89,0,7.041,3.152,7.041,7.041C393.284,233.768,390.133,236.92,386.243,236.92z"/>
	</g>
	<g>
		<path fill="#FFDD40" d="M386.243,261.027h-48.379c-3.889,0-7.041-3.151-7.041-7.041c0-3.888,3.152-7.041,7.041-7.041h48.379
			c3.89,0,7.041,3.152,7.041,7.041C393.284,257.876,390.133,261.027,386.243,261.027z"/>
	</g>
	<g>
		<path fill="#FFDD40" d="M386.243,285.136h-48.379c-3.889,0-7.041-3.151-7.041-7.04s3.152-7.041,7.041-7.041h48.379
			c3.89,0,7.041,3.151,7.041,7.041C393.284,281.982,390.133,285.136,386.243,285.136z"/>
	</g>
	<g>
		<path fill="#FF9433" d="M386.243,364.65H370.92c-3.89,0-7.041-3.152-7.041-7.041s3.151-7.041,7.041-7.041h15.323
			c3.89,0,7.041,3.152,7.041,7.041C393.284,361.497,390.133,364.65,386.243,364.65z"/>
	</g>
	<g>
		<path fill="#FFB332" d="M386.243,388.757h-48.379c-3.889,0-7.041-3.151-7.041-7.041c0-3.889,3.152-7.04,7.041-7.04h48.379
			c3.89,0,7.041,3.152,7.041,7.04S390.133,388.757,386.243,388.757z"/>
	</g>
	<g>
		<path fill="#FF9433" d="M242.026,364.65h-15.323c-3.89,0-7.041-3.152-7.041-7.041s3.151-7.041,7.041-7.041h15.323
			c3.89,0,7.041,3.152,7.041,7.041C249.066,361.497,245.915,364.65,242.026,364.65z"/>
	</g>
	<g>
		<path fill="#FFB332" d="M242.026,388.757h-48.378c-3.889,0-7.041-3.151-7.041-7.041c0-3.889,3.152-7.04,7.041-7.04h48.378
			c3.89,0,7.041,3.152,7.041,7.04S245.915,388.757,242.026,388.757z"/>
	</g>
	<path fill="#FFFFFF" d="M243.651,196.844H37.039c-9.122,0-16.518,7.396-16.518,16.518c0,9.122,7.396,16.518,16.518,16.518h206.611
		c9.122,0,16.519-7.395,16.519-16.518C260.169,204.24,252.773,196.844,243.651,196.844z"/>
	<path fill="#DBDBDB" d="M163.977,213.362c0-9.122,7.396-16.518,16.519-16.518H37.039c-9.122,0-16.518,7.396-16.518,16.518
		c0,9.123,7.396,16.518,16.518,16.518h143.456C171.372,229.88,163.977,222.485,163.977,213.362z"/>
	<g id="KeyColor">
		<rect x="-108" y="118" fill="#FFFFFF" stroke="#000000" stroke-miterlimit="10" width="76" height="144"/>
		<rect x="-96.5" y="129.5" fill="#441DB2" width="53" height="23"/>
		<rect x="-96.5" y="159.5" fill="#F47B0F" width="53" height="23"/>
		<rect x="-96.5" y="197.5" fill="#292A33" width="53" height="23"/>
		<rect x="-96.5" y="227.5" fill="#1E1F26" width="53" height="23"/>
	</g>
	<g>
		<path fill="none" stroke="#441DB2" stroke-width="16" stroke-miterlimit="10" d="M27.884,267.391H43.85
			c10.775,0,19.055,3.745,19.055,15.243c0,11.104-8.345,16.098-18.792,16.098h-6.505v17.28h-9.724V267.391z M43.456,291.044
			c6.701,0,9.921-2.825,9.921-8.41c0-5.65-3.548-7.556-10.25-7.556h-5.52v15.966H43.456z"/>
		<path fill="none" stroke="#441DB2" stroke-width="16" stroke-miterlimit="10" d="M73.354,267.391h9.725v48.621h-9.725V267.391z"/>
		<path fill="none" stroke="#441DB2" stroke-width="16" stroke-miterlimit="10" d="M94.249,291.898
			c0-16.032,10.315-25.428,22.603-25.428c6.176,0,11.104,2.957,14.258,6.242l-5.125,6.176c-2.432-2.365-5.257-4.073-8.936-4.073
			c-7.359,0-12.879,6.308-12.879,16.754c0,10.579,4.994,16.952,12.682,16.952c4.139,0,7.424-1.971,10.053-4.797l5.125,6.045
			c-4.008,4.665-9.199,7.162-15.507,7.162C104.237,316.932,94.249,308.127,94.249,291.898z"/>
		<path fill="none" stroke="#441DB2" stroke-width="16" stroke-miterlimit="10" d="M141.493,267.391h9.725v21.091h0.197
			l16.098-21.091h10.71l-14.85,19.12l17.478,29.501h-10.71l-12.55-21.813l-6.373,8.147v13.666h-9.725V267.391z"/>
		<path fill="none" stroke="#441DB2" stroke-width="16" stroke-miterlimit="10" d="M187.423,305.696V263.58h9.594v42.576
			c0,2.168,1.051,2.891,1.971,2.891c0.395,0,0.657,0,1.314-0.131l1.183,7.161c-1.117,0.46-2.76,0.854-4.994,0.854
			C189.789,316.932,187.423,312.529,187.423,305.696z"/>
		<path fill="none" stroke="#441DB2" stroke-width="16" stroke-miterlimit="10" d="M207.464,297.681
			c0-11.959,8.345-19.383,17.149-19.383c10.118,0,15.374,7.424,15.374,17.608c0,1.774-0.196,3.548-0.46,4.402H216.86
			c0.789,6.045,4.731,9.198,10.185,9.198c3.022,0,5.65-0.92,8.278-2.563l3.285,5.913c-3.613,2.497-8.278,4.074-12.878,4.074
			C215.48,316.932,207.464,309.77,207.464,297.681z M231.709,293.936c0-4.994-2.234-8.147-6.965-8.147
			c-3.876,0-7.293,2.759-8.016,8.147H231.709z"/>
	</g>
	<g>
		<path fill="none" stroke="#FFFFFF" stroke-width="6" stroke-miterlimit="10" d="M27.884,267.391H43.85
			c10.775,0,19.055,3.745,19.055,15.243c0,11.104-8.345,16.098-18.792,16.098h-6.505v17.28h-9.724V267.391z M43.456,291.044
			c6.701,0,9.921-2.825,9.921-8.41c0-5.65-3.548-7.556-10.25-7.556h-5.52v15.966H43.456z"/>
		<path fill="none" stroke="#FFFFFF" stroke-width="6" stroke-miterlimit="10" d="M73.354,267.391h9.725v48.621h-9.725V267.391z"/>
		<path fill="none" stroke="#FFFFFF" stroke-width="6" stroke-miterlimit="10" d="M94.249,291.898
			c0-16.032,10.315-25.428,22.603-25.428c6.176,0,11.104,2.957,14.258,6.242l-5.125,6.176c-2.432-2.365-5.257-4.073-8.936-4.073
			c-7.359,0-12.879,6.308-12.879,16.754c0,10.579,4.994,16.952,12.682,16.952c4.139,0,7.424-1.971,10.053-4.797l5.125,6.045
			c-4.008,4.665-9.199,7.162-15.507,7.162C104.237,316.932,94.249,308.127,94.249,291.898z"/>
		<path fill="none" stroke="#FFFFFF" stroke-width="6" stroke-miterlimit="10" d="M141.493,267.391h9.725v21.091h0.197
			l16.098-21.091h10.71l-14.85,19.12l17.478,29.501h-10.71l-12.55-21.813l-6.373,8.147v13.666h-9.725V267.391z"/>
		<path fill="none" stroke="#FFFFFF" stroke-width="6" stroke-miterlimit="10" d="M187.423,305.696V263.58h9.594v42.576
			c0,2.168,1.051,2.891,1.971,2.891c0.395,0,0.657,0,1.314-0.131l1.183,7.161c-1.117,0.46-2.76,0.854-4.994,0.854
			C189.789,316.932,187.423,312.529,187.423,305.696z"/>
		<path fill="none" stroke="#FFFFFF" stroke-width="6" stroke-miterlimit="10" d="M207.464,297.681
			c0-11.959,8.345-19.383,17.149-19.383c10.118,0,15.374,7.424,15.374,17.608c0,1.774-0.196,3.548-0.46,4.402H216.86
			c0.789,6.045,4.731,9.198,10.185,9.198c3.022,0,5.65-0.92,8.278-2.563l3.285,5.913c-3.613,2.497-8.278,4.074-12.878,4.074
			C215.48,316.932,207.464,309.77,207.464,297.681z M231.709,293.936c0-4.994-2.234-8.147-6.965-8.147
			c-3.876,0-7.293,2.759-8.016,8.147H231.709z"/>
	</g>
	<g>
		<path fill="#F47B0F" d="M27.884,267.391H43.85c10.775,0,19.055,3.746,19.055,15.244c0,11.104-8.345,16.098-18.792,16.098h-6.505
			v17.279h-9.724V267.391z M43.456,291.045c6.701,0,9.921-2.826,9.921-8.41c0-5.65-3.548-7.557-10.25-7.557h-5.52v15.967H43.456z"/>
		<path fill="#F47B0F" d="M73.354,267.391h9.725v48.621h-9.725V267.391z"/>
		<path fill="#F47B0F" d="M94.249,291.898c0-16.031,10.315-25.428,22.603-25.428c6.176,0,11.104,2.957,14.258,6.242l-5.125,6.176
			c-2.432-2.365-5.257-4.072-8.936-4.072c-7.359,0-12.879,6.307-12.879,16.754c0,10.578,4.994,16.951,12.682,16.951
			c4.139,0,7.424-1.971,10.053-4.797l5.125,6.045c-4.008,4.666-9.199,7.162-15.507,7.162
			C104.237,316.932,94.249,308.127,94.249,291.898z"/>
		<path fill="#F47B0F" d="M141.493,267.391h9.725v21.092h0.197l16.098-21.092h10.71l-14.85,19.121l17.478,29.5h-10.71l-12.55-21.813
			l-6.373,8.146v13.666h-9.725V267.391z"/>
		<path fill="#F47B0F" d="M187.423,305.697V263.58h9.594v42.576c0,2.168,1.051,2.891,1.971,2.891c0.395,0,0.657,0,1.314-0.131
			l1.183,7.162c-1.117,0.459-2.76,0.854-4.994,0.854C189.789,316.932,187.423,312.529,187.423,305.697z"/>
		<path fill="#F47B0F" d="M207.464,297.682c0-11.959,8.345-19.383,17.149-19.383c10.118,0,15.374,7.424,15.374,17.607
			c0,1.775-0.196,3.549-0.46,4.402H216.86c0.789,6.045,4.731,9.199,10.185,9.199c3.022,0,5.65-0.92,8.278-2.563l3.285,5.912
			c-3.613,2.498-8.278,4.074-12.878,4.074C215.48,316.932,207.464,309.77,207.464,297.682z M231.709,293.936
			c0-4.994-2.234-8.146-6.965-8.146c-3.876,0-7.293,2.758-8.016,8.146H231.709z"/>
	</g>
</g>
</svg>
