<?xml version="1.0" encoding="utf-8"?>
<!-- Generator: Adobe Illustrator 16.0.0, SVG Export Plug-In . SVG Version: 6.00 Build 0)  -->
<!DOCTYPE svg PUBLIC "-//W3C//DTD SVG 1.1//EN" "http://www.w3.org/Graphics/SVG/1.1/DTD/svg11.dtd">
<svg version="1.1" id="레이어_1" xmlns="http://www.w3.org/2000/svg" xmlns:xlink="http://www.w3.org/1999/xlink" x="0px"
	 y="0px" width="500px" height="500px" viewBox="0 0 500 500" enable-background="new 0 0 500 500" xml:space="preserve">
<g>
	<g transform="matrix(6.05327e-17,0.988574,-0.733333,4.49037e-17,229.667,57.3444)">
		<path fill="#1312C1" d="M153.603-268.935c9.269-18.57,24.76-29.654,41.344-29.654c16.583,0,32.074,11.084,41.336,29.654
			c53.175,106.322,145.395,290.767,202.026,404.024c9.638,19.273,10.603,44.131,2.504,64.662
			c-8.094,20.505-23.927,33.324-41.16,33.324c-110.152,0-298.11,0-408.622,0c-17.399,0-33.364-12.941-41.527-33.633
			c-8.17-20.7-7.202-45.784,2.515-65.226C8.686,20.871,100.569-162.877,153.603-268.935z"/>
	</g>
	<path fill="#0154FA" d="M58.745,252.467c28.257-7.998,58.869-9.104,89.436-1.581c46.695,11.547,60.592,44.081,99.08,66.806
		c34.721,20.515,75.868,25.028,114.666,17.033l-231.332,155.92c-14.126,9.528-32.356,10.481-47.412,2.476
		c-15.037-8.002-24.438-23.644-24.438-40.689V252.467z"/>
	<path fill="#14BFF3" d="M58.745,391.555c16.652-6.331,34.724-9.813,53.598-9.813c43.182,0,82.164,18.174,109.695,47.285
		l-91.443,61.619c-14.126,9.528-32.356,10.481-47.412,2.476c-15.037-8.002-24.438-23.644-24.438-40.689V391.555z"/>
</g>
</svg>
