<?xml version="1.0" encoding="utf-8"?>
<!-- Generator: Adobe Illustrator 16.0.0, SVG Export Plug-In . SVG Version: 6.00 Build 0)  -->
<!DOCTYPE svg PUBLIC "-//W3C//DTD SVG 1.1//EN" "http://www.w3.org/Graphics/SVG/1.1/DTD/svg11.dtd">
<svg version="1.1" id="레이어_1" xmlns="http://www.w3.org/2000/svg" xmlns:xlink="http://www.w3.org/1999/xlink" x="0px"
	 y="0px" width="416px" height="624px" viewBox="0 0 416 624" enable-background="new 0 0 416 624" xml:space="preserve">
<rect x="-42" y="-49" fill="#1E1F26" width="505" height="697"/>
<g enable-background="new    ">
	<path fill="#441DB2" d="M45.41,88.3c0-24.146,16.163-37.973,34.565-37.973c9.445,0,17.039,4.382,22.005,9.444l-9.152,11.1
		c-3.603-3.311-7.4-5.646-12.56-5.646c-9.347,0-17.04,8.373-17.04,22.491c0,14.41,6.621,22.784,16.845,22.784
		c5.745,0,10.418-2.922,13.826-6.621l9.153,10.904c-6.134,7.108-14.216,10.711-23.66,10.711
		C60.989,125.494,45.41,112.836,45.41,88.3z"/>
	<path fill="#441DB2" d="M112.304,106.118V46.335h17.234V106.8c0,3.603,1.752,4.674,3.116,4.674c0.584,0,0.974,0,1.947-0.195
		l2.045,12.755c-1.85,0.779-4.771,1.461-8.568,1.461C116.199,125.494,112.304,117.705,112.304,106.118z"/>
	<path fill="#441DB2" d="M142.197,108.649c0-11.684,9.152-18.013,30.768-20.35c-0.389-4.479-2.726-7.107-8.373-7.107
		c-4.382,0-8.958,1.753-14.508,4.868l-6.037-11.392c7.302-4.382,15.189-7.303,23.854-7.303c14.313,0,22.395,7.984,22.395,25.315
		v31.449h-14.118l-1.266-5.55h-0.39c-4.576,4.089-9.737,6.913-15.871,6.913C148.428,125.494,142.197,117.899,142.197,108.649z
		 M172.964,107.676v-8.86c-10.808,1.461-14.313,4.576-14.313,8.471c0,3.214,2.336,4.771,5.939,4.771
		C168.096,112.058,170.433,110.402,172.964,107.676z"/>
	<path fill="#441DB2" d="M198.866,117.705l7.692-10.808c5.063,3.895,9.64,5.842,14.021,5.842c4.576,0,6.523-1.655,6.523-4.382
		c0-3.311-5.354-4.868-11.002-7.107c-6.621-2.629-14.41-7.108-14.41-16.261c0-10.516,8.568-17.623,21.42-17.623
		c8.764,0,14.995,3.505,19.863,7.107l-7.789,10.321c-3.895-2.727-7.789-4.674-11.489-4.674c-3.895,0-5.842,1.363-5.842,3.992
		c0,3.311,5.063,4.576,10.808,6.621c6.912,2.629,14.605,6.621,14.605,16.649c0,10.224-7.984,18.11-23.076,18.11
		C212.985,125.494,204.416,122.378,198.866,117.705z"/>
	<path fill="#441DB2" d="M248.526,117.705l7.691-10.808c5.063,3.895,9.639,5.842,14.021,5.842c4.576,0,6.523-1.655,6.523-4.382
		c0-3.311-5.355-4.868-11.002-7.107c-6.621-2.629-14.41-7.108-14.41-16.261c0-10.516,8.566-17.623,21.42-17.623
		c8.764,0,14.994,3.505,19.863,7.107l-7.791,10.321c-3.895-2.727-7.789-4.674-11.488-4.674c-3.895,0-5.842,1.363-5.842,3.992
		c0,3.311,5.063,4.576,10.807,6.621c6.914,2.629,14.605,6.621,14.605,16.649c0,10.224-7.984,18.11-23.076,18.11
		C262.643,125.494,254.074,122.378,248.526,117.705z"/>
	<path fill="#441DB2" d="M301.69,52.177c0-5.258,4.09-8.957,9.932-8.957c5.744,0,9.834,3.699,9.834,8.957
		c0,5.161-4.09,8.86-9.834,8.86C305.78,61.037,301.69,57.338,301.69,52.177z M302.955,68.729h17.234v55.401h-17.234V68.729z"/>
	<path fill="#441DB2" d="M331.096,96.479c0-18.402,13.633-29.112,29.113-29.112c6.719,0,11.977,2.337,16.162,5.939l-8.08,11.1
		c-2.533-2.142-4.674-3.019-7.109-3.019c-7.594,0-12.365,5.843-12.365,15.092c0,9.152,4.967,14.995,11.781,14.995
		c3.506,0,6.816-1.655,9.641-3.896l6.621,11.393c-5.355,4.771-12.367,6.523-18.209,6.523
		C343.073,125.494,331.096,114.783,331.096,96.479z"/>
</g>
<g enable-background="new    ">
	<path fill="#FFFFFF" d="M36.063,88.3c0-24.146,16.163-37.973,34.565-37.973c9.445,0,17.039,4.382,22.005,9.444l-9.152,11.1
		c-3.603-3.311-7.4-5.646-12.56-5.646c-9.347,0-17.04,8.373-17.04,22.491c0,14.41,6.621,22.784,16.845,22.784
		c5.745,0,10.418-2.922,13.826-6.621l9.153,10.904c-6.134,7.108-14.216,10.711-23.66,10.711
		C51.641,125.494,36.063,112.836,36.063,88.3z"/>
	<path fill="#FFFFFF" d="M102.957,106.118V46.335h17.234V106.8c0,3.603,1.752,4.674,3.116,4.674c0.584,0,0.974,0,1.947-0.195
		l2.045,12.755c-1.85,0.779-4.771,1.461-8.568,1.461C106.851,125.494,102.957,117.705,102.957,106.118z"/>
	<path fill="#FFFFFF" d="M132.849,108.649c0-11.684,9.152-18.013,30.768-20.35c-0.389-4.479-2.726-7.107-8.373-7.107
		c-4.382,0-8.958,1.753-14.508,4.868l-6.037-11.392c7.302-4.382,15.189-7.303,23.854-7.303c14.313,0,22.395,7.984,22.395,25.315
		v31.449H166.83l-1.266-5.55h-0.39c-4.576,4.089-9.737,6.913-15.871,6.913C139.08,125.494,132.849,117.899,132.849,108.649z
		 M163.616,107.676v-8.86c-10.808,1.461-14.313,4.576-14.313,8.471c0,3.214,2.336,4.771,5.939,4.771
		C158.748,112.058,161.085,110.402,163.616,107.676z"/>
	<path fill="#FFFFFF" d="M189.518,117.705l7.692-10.808c5.063,3.895,9.64,5.842,14.021,5.842c4.576,0,6.523-1.655,6.523-4.382
		c0-3.311-5.354-4.868-11.002-7.107c-6.621-2.629-14.41-7.108-14.41-16.261c0-10.516,8.568-17.623,21.42-17.623
		c8.764,0,14.995,3.505,19.863,7.107l-7.789,10.321c-3.895-2.727-7.789-4.674-11.489-4.674c-3.895,0-5.842,1.363-5.842,3.992
		c0,3.311,5.063,4.576,10.808,6.621c6.912,2.629,14.605,6.621,14.605,16.649c0,10.224-7.984,18.11-23.076,18.11
		C203.636,125.494,195.068,122.378,189.518,117.705z"/>
	<path fill="#FFFFFF" d="M239.178,117.705l7.691-10.808c5.063,3.895,9.639,5.842,14.021,5.842c4.576,0,6.523-1.655,6.523-4.382
		c0-3.311-5.355-4.868-11.002-7.107c-6.621-2.629-14.41-7.108-14.41-16.261c0-10.516,8.566-17.623,21.42-17.623
		c8.764,0,14.994,3.505,19.863,7.107l-7.791,10.321c-3.895-2.727-7.789-4.674-11.488-4.674c-3.895,0-5.842,1.363-5.842,3.992
		c0,3.311,5.063,4.576,10.807,6.621c6.914,2.629,14.605,6.621,14.605,16.649c0,10.224-7.984,18.11-23.076,18.11
		C253.295,125.494,244.727,122.378,239.178,117.705z"/>
	<path fill="#FFFFFF" d="M292.342,52.177c0-5.258,4.09-8.957,9.932-8.957c5.744,0,9.834,3.699,9.834,8.957
		c0,5.161-4.09,8.86-9.834,8.86C296.432,61.037,292.342,57.338,292.342,52.177z M293.608,68.729h17.234v55.401h-17.234V68.729z"/>
	<path fill="#FFFFFF" d="M321.748,96.479c0-18.402,13.633-29.112,29.113-29.112c6.719,0,11.977,2.337,16.162,5.939l-8.08,11.1
		c-2.533-2.142-4.674-3.019-7.109-3.019c-7.594,0-12.365,5.843-12.365,15.092c0,9.152,4.967,14.995,11.781,14.995
		c3.506,0,6.816-1.655,9.641-3.896l6.621,11.393c-5.355,4.771-12.367,6.523-18.209,6.523
		C333.725,125.494,321.748,114.783,321.748,96.479z"/>
</g>
<g enable-background="new    ">
	<path fill="#FFFFFF" d="M94.273,177.104v1.813H70.316v-1.813h18.072c0.297-1.338,0.446-2.497,0.535-3.597l-15.902,0.743
		l-0.297-1.754l16.318-0.535c0.03-0.892,0.03-1.724,0.03-2.497v-0.237H73.377v-1.754h17.834v1.991c0,2.021,0,4.43-0.654,7.64H94.273
		z M75.339,190.628h16.972v1.724H73.199v-6.36H89.25v-2.676h-16.11v-1.724h18.25v6.063H75.339V190.628z"/>
	<path fill="#FFFFFF" d="M100.601,184.445c3.121,0,6.034-0.148,9.541-0.743l0.179,1.783c-3.716,0.654-6.777,0.773-10.077,0.773
		H98.52v-9.81h7.758v-5.559h-7.847v-1.813h9.958v9.185h-7.788V184.445z M120.1,166.135v26.574h-2.081V178.53h-3.983v12.811h-2.051
		v-24.611h2.051v9.987h3.983v-10.582H120.1z"/>
	<path fill="#FFFFFF" d="M149.078,187.269v1.813h-24.136v-1.813H149.078z M146.819,181.443c-3.894-0.951-8.204-3.835-9.928-7.788
		c-1.665,3.953-5.945,6.837-9.869,7.788l-0.98-1.813c4.369-0.862,9.72-4.904,9.72-9.541v-2.052h2.289v2.052
		c0,4.637,5.351,8.679,9.72,9.541L146.819,181.443z"/>
	<path fill="#FFFFFF" d="M176.362,179.749v1.813h-24.106v-1.813H176.362z M157.576,190.271h16.17v1.813h-18.34v-7.758h2.17V190.271z
		 M173.568,176.063h-18.013v-8.946h2.17v7.163h15.843V176.063z"/>
	<path fill="#FFFFFF" d="M198.888,177.995c-1.219,1.456-3.121,2.318-5.38,2.318c-3.924,0-6.807-2.615-6.807-6.302
		c0-3.656,2.883-6.242,6.807-6.242c2.259,0,4.131,0.862,5.35,2.26h7.045v-3.895h2.17v15.784h-2.17v-3.924H198.888z M193.508,178.471
		c2.705,0,4.726-1.873,4.726-4.459c0-2.556-2.021-4.398-4.726-4.398c-2.705,0-4.756,1.843-4.756,4.398
		C188.752,176.598,190.803,178.471,193.508,178.471z M208.162,187.596c0,3.181-3.329,5.083-8.828,5.083
		c-5.439,0-8.769-1.902-8.769-5.083c0-3.15,3.329-5.053,8.769-5.053C204.833,182.543,208.162,184.445,208.162,187.596z
		 M206.022,187.596c0-2.051-2.526-3.299-6.688-3.299c-4.102,0-6.628,1.248-6.628,3.299c0,2.081,2.527,3.329,6.628,3.329
		C203.495,190.925,206.022,189.677,206.022,187.596z M199.928,171.842c0.208,0.684,0.356,1.397,0.356,2.17
		c0,0.773-0.119,1.517-0.356,2.17h5.975v-4.34H199.928z"/>
	<path fill="#FFFFFF" d="M221.267,180.225c-2.705,0.119-5.291,0.148-7.491,0.148l-0.326-1.813c4.934,0,11.533-0.06,17.181-0.803
		l0.179,1.605c-2.408,0.356-4.904,0.624-7.372,0.743v5.291h-2.17V180.225z M215.59,171.872c0-2.765,2.645-4.637,6.51-4.637
		c3.893,0,6.539,1.872,6.539,4.637c0,2.794-2.646,4.607-6.539,4.607C218.235,176.479,215.59,174.666,215.59,171.872z M235.92,190.33
		v1.813h-18.606v-7.758h2.169v5.944H235.92z M217.641,171.872c0,1.783,1.813,2.942,4.459,2.942c2.645,0,4.488-1.159,4.488-2.942
		s-1.844-2.973-4.488-2.973C219.453,168.899,217.641,170.089,217.641,171.872z M233.067,181.919v-15.754h2.17v20.242h-2.17v-2.854
		h-5.439v-1.635H233.067z"/>
	<path fill="#FFFFFF" d="M249.828,170.445h6.688v1.783h-15.724v-1.783h6.866v-4.013h2.17V170.445z M255.208,180.641
		c0,3.597-2.675,6.063-6.45,6.063c-3.686,0-6.391-2.467-6.391-6.063c0-3.567,2.705-6.063,6.391-6.063
		C252.533,174.577,255.208,177.073,255.208,180.641z M253.157,180.641c0-2.467-1.843-4.251-4.399-4.251
		c-2.496,0-4.34,1.784-4.34,4.251s1.844,4.25,4.34,4.25C251.315,184.891,253.157,183.107,253.157,180.641z M265.76,179.006h-4.458
		v13.732h-2.17v-26.604h2.17v11.058h4.458V179.006z"/>
	<path fill="#FFFFFF" d="M271.614,184.237c4.934,0,8.322-0.179,12.275-0.922l0.238,1.873c-4.102,0.743-7.551,0.921-12.633,0.921
		h-2.051v-17.389h12.336v1.813h-10.166V184.237z M293.104,178.56h-4.459v14.208h-2.17v-26.633h2.17v10.612h4.459V178.56z"/>
</g>
<g enable-background="new    ">
	<path fill="#FFFFFF" d="M94.719,229.694v3.181h-24.79v-3.181h10.403v-4.637c-4.815-0.595-8.233-3.359-8.233-7.432
		c0-4.577,4.369-7.55,10.195-7.55c5.855,0,10.225,2.973,10.225,7.55c0,4.072-3.418,6.866-8.264,7.432v4.637H94.719z M82.295,222.056
		c3.775,0,6.361-1.635,6.361-4.43c0-2.794-2.586-4.429-6.361-4.429c-3.746,0-6.332,1.635-6.332,4.429
		C75.963,220.421,78.549,222.056,82.295,222.056z"/>
	<path fill="#FFFFFF" d="M101.82,226.781c2.497-0.06,4.875-0.208,7.609-0.624l0.297,3.181c-3.507,0.564-6.479,0.653-9.779,0.653
		h-1.932v-11.146h6.539v-4.369h-6.569v-3.15h10.344v10.611h-6.509V226.781z M120.754,208.649v27.376h-3.715v-13.881h-2.467v12.603
		h-3.656v-25.592h3.656v9.838h2.467v-10.344H120.754z"/>
	<path fill="#FFFFFF" d="M142.093,225.235c-5.707,0.833-11.83,0.951-16.854,0.951l-0.505-3.121c2.17,0,4.548,0,6.956-0.059v-2.824
		h-4.696v-9.868h13.227v3.121h-9.304v3.626h9.482v3.121h-4.786v2.675c2.111-0.089,4.221-0.237,6.212-0.416L142.093,225.235z
		 M148.127,232.459v3.121h-19.261v-7.788h3.953v4.667H148.127z M147.413,229.278h-3.954v-20.629h3.954V229.278z"/>
	<path fill="#FFFFFF" d="M172.734,223.244h-12.9v-12.603h12.9v1.991h4.934v-3.953h3.923v16.051h-3.923v-3.508h-4.934V223.244z
		 M181.711,230.734c0,3.359-3.567,5.321-9.393,5.321c-5.796,0-9.363-1.962-9.363-5.321c0-3.358,3.567-5.32,9.363-5.32
		C178.144,225.414,181.711,227.376,181.711,230.734z M168.9,213.763h-5.202v6.391h5.202V213.763z M177.787,230.734
		c0-1.575-1.873-2.318-5.469-2.318c-3.567,0-5.439,0.743-5.439,2.318s1.873,2.318,5.439,2.318
		C175.914,233.053,177.787,232.31,177.787,230.734z M172.734,215.754v2.348h4.934v-2.348H172.734z"/>
	<path fill="#FFFFFF" d="M196.302,228.119c2.111-0.119,4.221-0.268,6.183-0.565l0.297,2.824c-5.766,1.13-11.919,1.13-16.556,1.13
		l-0.476-3.181c1.962,0,4.221,0,6.628-0.06v-2.318c-2.854-0.564-4.726-2.438-4.726-4.935c0-3.091,2.764-5.172,6.688-5.172
		c3.923,0,6.688,2.081,6.688,5.172c0,2.497-1.873,4.37-4.727,4.935V228.119z M202.365,214.772h-16.11v-3.091h6.123v-2.884h3.923
		v2.884h6.064V214.772z M194.34,223.215c1.783,0,2.972-0.773,2.972-2.2s-1.189-2.199-2.972-2.199c-1.784,0-2.973,0.772-2.973,2.199
		S192.556,223.215,194.34,223.215z M211.223,223.065h-3.418v12.99h-3.923V208.68h3.923v11.146h3.418V223.065z"/>
</g>
<g enable-background="new    ">
	<path fill="#FFFFFF" d="M229.291,221.847c-3.953,0-6.807-2.407-6.807-5.915c0-3.447,2.854-5.885,6.807-5.885
		c3.982,0,6.836,2.438,6.836,5.885C236.127,219.439,233.274,221.847,229.291,221.847z M229.291,220.063
		c2.734,0,4.727-1.724,4.727-4.132c0-2.348-1.992-4.102-4.727-4.102c-2.705,0-4.696,1.754-4.696,4.102
		C224.595,218.34,226.586,220.063,229.291,220.063z M227.953,233.499H243.5v1.783h-17.687v-6.628h14.565v-2.943h-14.625v-1.753
		h16.734v6.36h-14.535V233.499z M246.472,214.922v1.813h-3.983v5.945h-2.17v-13.614h2.17v5.856H246.472z"/>
	<path fill="#FFFFFF" d="M252.413,227.613c4.013,0,7.401-0.148,11.474-0.802l0.178,1.813c-4.221,0.654-7.639,0.803-11.83,0.803
		h-1.961v-10.344h9.333v-5.767h-9.394v-1.813h11.533v9.393h-9.333V227.613z M271.08,209.036v26.633h-2.17v-11.354h-5.618v-1.813
		h5.618v-5.469h-5.439v-1.813h5.439v-6.183H271.08z"/>
	<path fill="#FFFFFF" d="M300.653,226.098h-10.969v9.542h-2.17v-9.542h-10.879v-1.813h24.018V226.098z M278.092,220.183
		c4.458-0.654,9.333-3.716,9.333-7.342v-0.268h-8.501v-1.813h19.38v1.813h-8.442v0.268c0,3.626,4.875,6.688,9.305,7.342
		l-0.832,1.724c-3.983-0.713-8.115-2.942-9.721-6.212c-1.575,3.27-5.707,5.499-9.689,6.212L278.092,220.183z"/>
	<path fill="#FFFFFF" d="M311.707,216.734c0,4.191,2.17,8.769,5.617,10.85l-1.248,1.664c-2.557-1.545-4.43-4.429-5.381-7.698
		c-0.951,3.597-2.942,6.658-5.646,8.293l-1.368-1.635c3.597-2.11,5.944-6.866,5.944-11.414v-5.201h2.082V216.734z M319.019,209.69
		h2.051v24.611h-2.051V220.51h-4.577v-1.813h4.577V209.69z M326.479,209.065v26.574h-2.08v-26.574H326.479z"/>
	<path fill="#FFFFFF" d="M355.428,230.378v1.813h-24.166v-1.813h6.033v-7.282c-2.258-1.159-3.626-3.062-3.626-5.47
		c0-4.131,4.013-6.807,9.631-6.807s9.601,2.676,9.601,6.807c0,2.408-1.338,4.28-3.566,5.47v7.282H355.428z M343.3,222.649
		c4.369,0,7.55-2.021,7.55-5.023c0-3.031-3.181-5.053-7.55-5.053c-4.37,0-7.55,2.021-7.55,5.053
		C335.75,220.629,338.93,222.649,343.3,222.649z M339.465,230.378h7.729v-6.45c-1.159,0.298-2.496,0.476-3.894,0.476
		c-1.368,0-2.675-0.178-3.835-0.445V230.378z"/>
	<path fill="#FFFFFF" d="M359.883,231.983c0-1.189,0.832-1.962,1.813-1.962s1.844,0.772,1.844,1.962
		c0,1.129-0.863,1.902-1.844,1.902S359.883,233.112,359.883,231.983z M360.536,214.208l-0.06-2.913h2.438l-0.059,2.913
		l-0.328,12.871h-1.664L360.536,214.208z"/>
</g>
<g>
	<g>
		<path fill="#EF9348" d="M215.492,473.418c-87.347,0-150.743-97.4-137.766-120.354c27.146-48.016,78.67-80.424,137.766-80.424
			c59.048,0,110.536,32.358,137.7,80.312C366.211,375.932,302.838,473.418,215.492,473.418z"/>
		<path fill="#F47B0F" d="M373.644,430.791c0,16.094-2.404,31.625-6.876,46.254c-3.107,10.174-7.21,19.911-12.201,29.104
			c-5.097,9.391-91.055,31.009-139.073,31.009c-48.02,0-133.979-21.619-139.069-31.01c-2.031-3.727-3.911-7.544-5.635-11.448
			c-8.648-19.539-13.448-41.161-13.448-63.908c0-28.555,7.567-55.335,20.807-78.458c27.257,47.612,78.558,79.693,137.346,79.693
			c58.786,0,110.095-32.081,137.344-79.693C366.075,375.456,373.644,402.236,373.644,430.791z"/>
		<path fill="#CE650F" d="M354.654,505.975c-4.424,8.169-9.535,15.902-15.273,23.123c-4.302,5.42-8.955,10.549-13.925,15.352
			c-1.052,1.019-180.173,32.089-206.954,11.263c-3.369-2.619-6.63-5.373-9.773-8.252c-6.178-5.653-11.912-11.793-17.124-18.361
			c-5.739-7.221-10.851-14.954-15.272-23.123L354.654,505.975L354.654,505.975z"/>
	</g>
	<g>
		<path fill="#4B5055" d="M325.968,446.53H221.965H118.394v109.097c26.8,20.876,60.495,33.315,97.1,33.315
			c42.992,0,81.97-17.162,110.476-44.999L325.968,446.53L325.968,446.53z"/>
		<path fill="#697077" d="M118.394,446.53v109.097c15.326,11.938,32.909,21.11,52.001,26.78V446.53H144.34H118.394z"/>
		<path fill="#373C41" d="M221.965,588.8c40.424-1.628,76.936-18.424,104.003-44.855V446.53H221.965V588.8z"/>
		<path fill="#FCF6E5" d="M299.645,498.317V485.37h-77.68h-77.678v12.947h25.892v38.839h-25.892v12.947h77.678h77.68v-12.947
			h-25.894v-38.839H299.645L299.645,498.317z M260.806,537.156h-38.841h-38.84v-38.839h38.84h38.841V537.156z"/>
		<path fill="#F7E4CB" d="M299.645,537.156h-25.894v-38.839h25.894V485.37h-77.68v12.947h38.841v38.839h-38.841v12.945h77.68
			V537.156z"/>
		<path fill="#F7E4CB" d="M318.128,384.803c-0.661-3.744-4.301-10.002-10.688-12.24l-26.622,14.599l-33.529,35.791l3.955,9.599
			l73.074-12.66L318.128,384.803z"/>
		<path fill="#4B5055" d="M299.397,371.68l-40.227,6.957l-28.38,16.477l-9.257,9.88l-18.271,19.505l-2.848,16.86l21.118-3.66
			l29.707-5.147l56.197-59.986C304.919,371.68,302.24,371.188,299.397,371.68z"/>
		<path fill="#373C41" d="M307.439,372.563c-2.521-0.883-5.198-1.375-8.042-0.883l-40.227,6.957l-28.38,16.477l-9.257,9.88v32.705
			l29.708-5.148L307.439,372.563z"/>
		<path fill="#FCF6E5" d="M221.535,385.146l-13.172,2.275l-29.567,17.744l-22.433,23.947l-6.772,21.051l50.825-8.807l21.119-22.545
			l37.636-40.177L221.535,385.146z"/>
		<path fill="#F7E4CB" d="M221.535,385.146v33.666l37.636-40.176L221.535,385.146z"/>
		<path fill="#4B5055" d="M157.555,396.21l-36.102,24.72l-11.69,26.299l1.683,9.546l38.146-6.609l58.772-62.742L157.555,396.21z"/>
		<path fill="#FCF6E5" d="M118.387,402.982c-4.255,0.754-7.966,3.117-10.442,6.658c-2.479,3.539-3.434,7.838-2.674,12.092
			l4.492,25.494l47.792-51.018L118.387,402.982z"/>
		<g>
			<path fill="#373C41" d="M124.866,472.423c-10.709,0-19.421-8.71-19.421-19.419c0-10.708,8.712-19.42,19.421-19.42
				s19.42,8.712,19.42,19.42C144.286,463.713,135.575,472.423,124.866,472.423z"/>
		</g>
	</g>
	<g>
		<path fill="#FFFFFF" d="M140.258,361.311h-0.941c-4.173,0-7.553-3.383-7.553-7.554v-0.94h-5.384v0.94
			c0,4.171-3.384,7.554-7.554,7.554h-0.943v5.385h0.943c4.17,0,7.554,3.38,7.554,7.553v0.943h5.384v-0.943
			c0-4.173,3.38-7.553,7.553-7.553h0.941V361.311z"/>
		<path fill="#FFFFFF" d="M198.329,315.111h-0.941c-4.173,0-7.553-3.383-7.553-7.553v-0.941h-5.384v0.941
			c0,4.17-3.385,7.553-7.555,7.553h-0.942v5.384h0.942c4.17,0,7.555,3.381,7.555,7.554v0.943h5.384v-0.943
			c0-4.173,3.38-7.554,7.553-7.554h0.941V315.111z"/>
		<path fill="#FFFFFF" d="M266.903,339.07h-0.941c-4.172,0-7.552-3.385-7.552-7.555v-0.94h-5.386v0.94
			c0,4.17-3.384,7.555-7.554,7.555h-0.943v5.384h0.943c4.17,0,7.554,3.38,7.554,7.554v0.943h5.386v-0.943
			c0-4.174,3.38-7.554,7.552-7.554h0.941V339.07z"/>
	</g>
</g>
</svg>
