<?xml version="1.0" encoding="utf-8"?>
<!-- Generator: Adobe Illustrator 16.0.0, SVG Export Plug-In . SVG Version: 6.00 Build 0)  -->
<!DOCTYPE svg PUBLIC "-//W3C//DTD SVG 1.1//EN" "http://www.w3.org/Graphics/SVG/1.1/DTD/svg11.dtd">
<svg version="1.1" id="레이어_1" xmlns="http://www.w3.org/2000/svg" xmlns:xlink="http://www.w3.org/1999/xlink" x="0px"
	 y="0px" width="416px" height="624px" viewBox="0 0 416 624" enable-background="new 0 0 416 624" xml:space="preserve">
<rect x="-42" y="-49" fill="#1E1F26" width="505" height="697"/>
<g>
	<path fill="#441DB2" d="M48.678,47.029h48.518v15.117H66.961v16.649h25.944v15.219H66.961v29.008H48.678V47.029z"/>
	<path fill="#441DB2" d="M103.423,94.015c0-19.305,13.687-30.541,28.497-30.541c14.709,0,28.396,11.235,28.396,30.541
		c0,19.203-13.687,30.438-28.396,30.438C117.11,124.454,103.423,113.218,103.423,94.015z M141.726,94.015
		c0-9.704-3.063-15.832-9.806-15.832c-6.843,0-9.907,6.128-9.907,15.832c0,9.601,3.064,15.73,9.907,15.73
		C138.662,109.745,141.726,103.616,141.726,94.015z"/>
	<path fill="#441DB2" d="M171.753,104.127V41.412h18.079v63.431c0,3.779,1.839,4.903,3.269,4.903c0.612,0,1.021,0,2.043-0.205
		l2.145,13.381c-1.94,0.817-5.005,1.532-8.988,1.532C175.838,124.454,171.753,116.282,171.753,104.127z"/>
	<path fill="#441DB2" d="M205.66,104.127V41.412h18.079v63.431c0,3.779,1.839,4.903,3.269,4.903c0.612,0,1.021,0,2.043-0.205
		l2.145,13.381c-1.94,0.817-5.005,1.532-8.988,1.532C209.746,124.454,205.66,116.282,205.66,104.127z"/>
	<path fill="#441DB2" d="M236.3,94.015c0-19.305,13.687-30.541,28.497-30.541c14.709,0,28.396,11.235,28.396,30.541
		c0,19.203-13.687,30.438-28.396,30.438C249.987,124.454,236.3,113.218,236.3,94.015z M274.603,94.015
		c0-9.704-3.063-15.832-9.806-15.832c-6.843,0-9.907,6.128-9.907,15.832c0,9.601,3.064,15.73,9.907,15.73
		C271.539,109.745,274.603,103.616,274.603,94.015z"/>
	<path fill="#441DB2" d="M299.013,64.904h17.977l5.209,26.046c0.92,5.72,1.532,11.542,2.452,17.364h0.511
		c1.021-5.822,1.94-11.747,3.37-17.364l5.925-26.046h15.729l6.23,26.046c1.328,5.72,2.35,11.542,3.575,17.364h0.511
		c0.919-5.822,1.43-11.644,2.554-17.364l5.005-26.046h16.854l-13.688,58.119h-21.245l-4.903-22.165
		c-1.123-5.414-2.042-10.725-3.063-17.058h-0.511c-0.92,6.333-1.736,11.644-2.758,17.058l-4.699,22.165h-20.734L299.013,64.904z"/>
</g>
<g>
	<path fill="#FFFFFF" d="M39.678,47.006h48.518v15.117H57.961v16.649h25.944v15.219H57.961V123H39.678V47.006z"/>
	<path fill="#FFFFFF" d="M94.423,93.992c0-19.305,13.687-30.541,28.497-30.541c14.709,0,28.396,11.235,28.396,30.541
		c0,19.203-13.687,30.438-28.396,30.438C108.11,124.43,94.423,113.194,94.423,93.992z M132.726,93.992
		c0-9.704-3.063-15.832-9.806-15.832c-6.843,0-9.907,6.128-9.907,15.832c0,9.601,3.064,15.73,9.907,15.73
		C129.662,109.722,132.726,103.593,132.726,93.992z"/>
	<path fill="#FFFFFF" d="M162.753,104.104V41.388h18.079v63.431c0,3.779,1.839,4.903,3.269,4.903c0.612,0,1.021,0,2.043-0.205
		l2.145,13.381c-1.94,0.817-5.005,1.532-8.988,1.532C166.838,124.43,162.753,116.259,162.753,104.104z"/>
	<path fill="#FFFFFF" d="M196.66,104.104V41.388h18.079v63.431c0,3.779,1.839,4.903,3.269,4.903c0.612,0,1.021,0,2.043-0.205
		l2.145,13.381c-1.94,0.817-5.005,1.532-8.988,1.532C200.746,124.43,196.66,116.259,196.66,104.104z"/>
	<path fill="#FFFFFF" d="M227.3,93.992c0-19.305,13.687-30.541,28.497-30.541c14.709,0,28.396,11.235,28.396,30.541
		c0,19.203-13.687,30.438-28.396,30.438C240.987,124.43,227.3,113.194,227.3,93.992z M265.603,93.992
		c0-9.704-3.063-15.832-9.806-15.832c-6.843,0-9.907,6.128-9.907,15.832c0,9.601,3.064,15.73,9.907,15.73
		C262.539,109.722,265.603,103.593,265.603,93.992z"/>
	<path fill="#FFFFFF" d="M290.013,64.881h17.977l5.209,26.046c0.92,5.72,1.532,11.542,2.452,17.364h0.511
		c1.021-5.822,1.94-11.747,3.37-17.364l5.925-26.046h15.729l6.23,26.046c1.328,5.72,2.35,11.542,3.575,17.364h0.511
		c0.919-5.822,1.43-11.644,2.554-17.364l5.005-26.046h16.854L362.227,123h-21.245l-4.903-22.165
		c-1.123-5.414-2.042-10.725-3.063-17.058h-0.511c-0.92,6.333-1.736,11.644-2.758,17.058L325.047,123h-20.734L290.013,64.881z"/>
</g>
<g>
	<path fill="#FFFFFF" d="M50.683,176.254c0,5.412,2.447,10.754,6.652,13.202l-1.551,1.827c-3.034-1.827-5.24-5.205-6.308-9.238
		c-1.068,4.343-3.344,8.031-6.48,9.996l-1.585-1.861c4.24-2.551,6.825-8.204,6.825-13.926v-3.033h-6.032v-2.103h14.167v2.103h-5.688
		V176.254z M59.301,168.188h2.378v28.472h-2.378v-15.959h-5.308v-2.103h5.308V168.188z M67.849,167.43v30.85h-2.413v-30.85H67.849z"
		/>
	<path fill="#FFFFFF" d="M89.186,170.773c0,8.686-4.136,16.614-14.029,21.578l-1.413-1.999c7.997-3.999,12.34-10.1,12.926-17.476
		H75.156v-2.103H89.186z M102.146,182.183h-5.067v16.063h-2.517V167.43h2.517v12.65h5.067V182.183z"/>
	<path fill="#FFFFFF" d="M131.41,181.562c-6.239,1-13.202,1.103-18.648,1.103l-0.448-3.584c1.034,0,2.171,0,3.309,0v-6.653h-2.482
		v-3.516h16.924v3.516h-2.516v6.239c1.241-0.069,2.447-0.172,3.619-0.311L131.41,181.562z M121.07,194.971h17.304v3.516h-21.819
		V189.8h16.442v-1.792H116.52v-3.481h20.958v8.514H121.07V194.971z M120.001,179.011c1.068-0.034,2.137-0.069,3.206-0.103v-6.48
		h-3.206V179.011z M141.648,173.221v3.688h-4.171v6.342h-4.55v-16.235h4.55v6.205H141.648z"/>
	<path fill="#FFFFFF" d="M172.947,191.524v3.723h-28.748v-3.723h12.064v-4.722h-8.755v-10.755h17.717v-3.412h-17.752v-3.62h22.233
		v10.583h-17.683v3.55h18.407v3.654h-9.617v4.722H172.947z"/>
	<path fill="#FFFFFF" d="M204.659,188.387h-12.202v10.375h-4.55v-10.375h-11.995v-3.654h28.748V188.387z M178.738,175.186
		c0-4.309,4.688-7.135,11.479-7.135c6.756,0,11.479,2.826,11.479,7.135c0,4.377-4.723,7.169-11.479,7.169
		C183.426,182.355,178.738,179.563,178.738,175.186z M183.391,175.186c0,2.309,2.654,3.55,6.825,3.55
		c4.136,0,6.791-1.241,6.791-3.55c0-2.275-2.654-3.516-6.791-3.516C186.045,171.669,183.391,172.91,183.391,175.186z"/>
	<path fill="#FFFFFF" d="M226.34,173.393h-18.2v-2.068h7.825v-3.826h2.516v3.826h7.859V173.393z M217.205,186.595
		c-4.377,0-7.342-2.275-7.342-5.688c0-3.481,2.965-5.756,7.342-5.756c4.378,0,7.343,2.275,7.343,5.756
		C224.548,184.32,221.583,186.595,217.205,186.595z M217.205,184.596c2.931,0,4.964-1.482,4.964-3.688
		c0-2.24-2.033-3.757-4.964-3.757c-2.964,0-4.963,1.517-4.963,3.757C212.242,183.113,214.241,184.596,217.205,184.596z
		 M215.31,195.488h17.959v2.103h-20.476v-8.858h2.517V195.488z M236.474,177.771v2.103h-4.619v10.72h-2.516v-23.095h2.516v10.272
		H236.474z"/>
	<path fill="#FFFFFF" d="M257.57,175.909c0,5.377,3.688,10.996,7.962,13.133l-1.551,2c-3.344-1.758-6.239-5.481-7.652-9.858
		c-1.345,4.619-4.274,8.617-7.722,10.479l-1.551-2.034c4.309-2.206,8.031-8.135,8.031-13.719v-5.722h2.482V175.909z
		 M276.183,182.183h-5.171v16.097h-2.516v-30.815h2.516v12.581h5.171V182.183z"/>
	<path fill="#FFFFFF" d="M297.588,183.148c-4.964,0.827-9.1,1.034-14.684,1.034h-2.413v-8.721h11.306v-4.24h-11.375v-2.103h13.857
		v8.342h-11.307v4.619c5.48,0,9.514-0.207,14.374-1.034L297.588,183.148z M283.662,187.388h19.303v10.444h-19.303V187.388z
		 M286.11,195.764h14.408v-6.308H286.11V195.764z M307.619,177.563h-4.654v8.308h-2.516v-18.407h2.516v7.997h4.654V177.563z"/>
	<path fill="#FFFFFF" d="M338.71,180.494v2.068h-27.852v-2.068H338.71z M316.787,195.833h19.234v2.034H314.34v-7.273h18.27v-3.171
		h-18.373v-1.999h20.854v7.066h-18.304V195.833z M335.402,177.839h-20.82v-9.307h20.476v2.068h-17.959v5.17h18.304V177.839z"/>
	<path fill="#FFFFFF" d="M342.743,189.318c5.653,0,13.478,0,20.199-1.068l0.207,1.861c-6.929,1.31-14.478,1.344-20.027,1.344
		L342.743,189.318z M360.771,176.909c0,4.274-3.412,7.17-8.204,7.17c-4.791,0-8.203-2.896-8.203-7.17
		c0-4.274,3.412-7.169,8.203-7.169C357.359,169.739,360.771,172.635,360.771,176.909z M346.777,176.909
		c0,2.93,2.447,5.033,5.79,5.033c3.344,0,5.757-2.103,5.757-5.033c0-2.93-2.413-4.998-5.757-4.998
		C349.224,171.911,346.777,173.979,346.777,176.909z M367.527,167.43v30.885h-2.481V167.43H367.527z"/>
	<path fill="#FFFFFF" d="M43.031,218.256h8.376c5.653,0,9.997,1.964,9.997,7.997c0,5.826-4.378,8.445-9.858,8.445h-3.413v9.065
		h-5.102V218.256z M51.2,230.665c3.516,0,5.205-1.482,5.205-4.412c0-2.964-1.861-3.964-5.377-3.964h-2.896v8.376H51.2z"/>
	<path fill="#FFFFFF" d="M66.022,218.256h5.102v25.507h-5.102V218.256z"/>
	<path fill="#FFFFFF" d="M76.121,231.113c0-8.411,5.412-13.34,11.857-13.34c3.24,0,5.826,1.551,7.48,3.275l-2.688,3.24
		c-1.275-1.241-2.758-2.137-4.688-2.137c-3.86,0-6.756,3.309-6.756,8.79c0,5.55,2.62,8.893,6.652,8.893
		c2.172,0,3.895-1.034,5.274-2.516l2.688,3.171c-2.103,2.447-4.826,3.757-8.135,3.757C81.361,244.246,76.121,239.627,76.121,231.113
		z"/>
	<path fill="#FFFFFF" d="M100.043,218.256h5.102v11.064h0.104l8.445-11.064h5.619l-7.79,10.03l9.169,15.477h-5.619l-6.583-11.444
		l-3.344,4.274v7.17h-5.102V218.256z"/>
	<path fill="#FFFFFF" d="M150.299,228.873v2.068h-27.851v-2.068H150.299z M125.55,221.358c0-3.447,4.033-5.377,10.789-5.377
		s10.754,1.931,10.754,5.377c0,3.413-3.999,5.343-10.754,5.343S125.55,224.771,125.55,221.358z M128.377,243.867h19.234v2.034
		h-21.681v-7.239h18.269v-2.964h-18.372v-1.93h20.854v6.756h-18.303V243.867z M128.135,221.358c0,2.171,3.033,3.413,8.204,3.413
		c5.136,0,8.204-1.241,8.204-3.413s-3.068-3.447-8.204-3.447C131.169,217.912,128.135,219.187,128.135,221.358z"/>
	<path fill="#FFFFFF" d="M189.767,240.179v2.103h-27.955v-2.103h12.685v-6.791h-9.307v-15.752h2.482v5.653h16.201v-5.653h2.447
		v15.752h-9.307v6.791H189.767z M167.672,231.286h16.201v-5.894h-16.201V231.286z"/>
	<path fill="#FFFFFF" d="M221.41,239.731v2.103h-27.852v-2.103h10.996v-11.1h2.516v11.1H221.41z M215.447,220.738h-18.889v-2.103
		h21.406v3.103c0,3.757,0,7.997-1.138,14.132l-2.516-0.345c1.137-5.825,1.137-10.134,1.137-13.788V220.738z"/>
	<path fill="#FFFFFF" d="M250.295,231.354c-3.585-1.275-6.48-3.929-7.894-7.273c-1.311,3.619-4.24,6.515-7.929,7.859l-1.275-1.999
		c4.516-1.655,7.929-5.791,7.929-10.307v-3.033h2.481v3.033c0,4.378,3.447,8.204,7.928,9.721L250.295,231.354z M258.671,243.764
		v2.068h-21.096v-2.068h4.619v-7.17h-4.378v-2.068h20.51v2.068h-4.309v7.17H258.671z M244.676,243.764h6.859v-7.17h-6.859V243.764z
		 M258.154,232.596h-2.516v-17.097h2.516V232.596z"/>
	<path fill="#FFFFFF" d="M289.935,215.43v30.885h-2.517V229.39h-6.997c-0.241,6.067-3.31,9.893-7.583,9.893
		c-4.481,0-7.618-4.206-7.618-10.72s3.137-10.686,7.618-10.686c4.171,0,7.204,3.619,7.583,9.41h6.997V215.43H289.935z
		 M278.077,228.563c0-5.067-2.172-8.445-5.239-8.445c-3.103,0-5.239,3.378-5.239,8.445c0,5.102,2.137,8.479,5.239,8.479
		C275.906,237.042,278.077,233.664,278.077,228.563z"/>
	<path fill="#FFFFFF" d="M324.336,240.145v2.103h-28.023v-2.103h6.997v-8.445c-2.62-1.344-4.205-3.55-4.205-6.342
		c0-4.792,4.653-7.894,11.168-7.894s11.134,3.102,11.134,7.894c0,2.792-1.551,4.963-4.137,6.342v8.445H324.336z M310.273,231.182
		c5.067,0,8.755-2.344,8.755-5.825c0-3.516-3.688-5.86-8.755-5.86s-8.755,2.344-8.755,5.86
		C301.518,228.838,305.205,231.182,310.273,231.182z M305.826,240.145h8.962v-7.48c-1.345,0.345-2.896,0.551-4.516,0.551
		c-1.586,0-3.103-0.207-4.446-0.517V240.145z"/>
	<path fill="#FFFFFF" d="M329.506,242.006c0-1.379,0.966-2.275,2.104-2.275c1.137,0,2.137,0.896,2.137,2.275
		c0,1.31-1,2.206-2.137,2.206C330.472,244.212,329.506,243.315,329.506,242.006z M330.265,221.393l-0.069-3.378h2.827l-0.069,3.378
		l-0.379,14.925h-1.931L330.265,221.393z"/>
</g>
<g>
	<path fill="#365E7D" d="M124.622,427.607h-11.347l-0.697,0.747v6.685c0,5.971-3.521,9.37-8.83,12.106
		c-7.286,3.756-9.475,25.071,4.224,32.023l3.893,0.589l27.247-10.547v-15.448L124.622,427.607z"/>
	<path fill="#2B4D66" d="M122.606,447.146c4.051-2.089,7.057-4.568,8.254-8.277l-6.237-11.261h-11.347l-0.697,0.747v6.685
		c0,5.971-3.521,9.37-8.83,12.106c-7.286,3.756-9.475,25.071,4.224,32.023l3.893,0.589l10.364-4.012
		C113.803,466.904,116.28,450.407,122.606,447.146z"/>
	<path fill="#365E7D" d="M205.702,447.146c-5.323-2.745-8.828-6.146-8.828-12.105v-6.79l-1.113-1.053h-11.9l-13.669,27.631v13.982
		l28.126,10.947l2.616-0.792c13.415-7.141,11.984-28.1,4.769-31.82H205.702z"/>
	<path fill="#FF7F87" d="M217.337,485.318c-1.462-0.567-21.086-8.166-33.477-12.966l-2.987,1.324h-51.67l-3.693-1.307
		c-12.338,4.785-33.054,12.814-33.396,12.948c-7.188,2.957-16.812,12.265-16.812,26.075v46.994h158.846c0-15.079,0-44.626,0-46.994
		C234.149,499.499,226.533,489.103,217.337,485.318L217.337,485.318z"/>
	<path fill="#FFCEBE" d="M196.82,408.77l-0.938-0.944h-11.207v19.637l0.619,1.277h8.458c5.645,0,10.221-4.576,10.221-10.22
		C203.972,413.944,200.964,410.073,196.82,408.77L196.82,408.77z"/>
	<path fill="#FFCEBE" d="M112.578,408.675l0.001,0.009c-4.308,1.202-7.473,5.146-7.473,9.836c0,5.644,4.576,10.22,10.22,10.22h8.83
		l0.971-1.132v-19.842h-11.827L112.578,408.675z"/>
	<path fill="#FFB1A0" d="M194.687,407.825h-10.012v19.637l0.619,1.277h8.459c0.315,0,0.626-0.02,0.934-0.047V407.825
		L194.687,407.825z"/>
	<path fill="#FFB1A0" d="M115.116,418.52c0-4.69,3.167-8.634,7.476-9.836l-0.001-0.009l0.723-0.908h-10.01l-0.725,0.908l0.002,0.009
		c-4.309,1.202-7.474,5.146-7.474,9.836c0,5.644,4.577,10.22,10.22,10.22h8.831l0.056-0.063c-5.116-0.562-9.095-4.892-9.095-10.156
		H115.116z"/>
	<path fill="#FFCEBE" d="M173.902,468.496c-1.19-0.461-1.984-1.607-1.987-2.893l-0.01-10.413l-1.366-1.428h-31.428l-1.593,1.489
		v10.334c0,2.378-2.121,2.951-3.025,3.303c-0.202,0.078-3.876,1.502-8.982,3.481c3.665,11.839,14.543,21.17,29.527,21.22
		c13.446,0.046,24.915-8.988,28.822-21.237C178.518,470.282,174.517,468.734,173.902,468.496z"/>
	<path fill="#FFB1A0" d="M154.727,453.763h-15.616l-1.593,1.489v10.334c0,2.378-2.121,2.951-3.025,3.303
		c-0.202,0.078-3.876,1.502-8.982,3.481c3.639,11.755,14.393,21.035,29.216,21.215V453.763z"/>
	<path fill="#FFDECF" d="M182.153,405.715h-13.424l-10.546-13.104h-6.287l-9.778,10.591v27.022c0,12.762,7.847,24.656,20.539,29.198
		c12.984-3.418,22.637-15.446,22.637-29.456V408.3L182.153,405.715z"/>
	<path fill="#FFCEBE" d="M142.836,430.263v-27.838l-3.725,4.036h-13.6l-1.354,1.839v21.963c0,15.708,12.28,30.069,30.881,30.132
		c3.169,0.011,6.228-0.486,9.104-1.406C151.019,455.005,142.836,443.085,142.836,430.263L142.836,430.263z"/>
	<path fill="#365E7D" d="M154.17,353.215c-23.162,0.298-41.591,19.605-41.591,42.771v12.697c0.875-0.244,1.794-0.384,2.748-0.384
		h8.831h7.992c1.042,0,6.906-0.477,6.474-0.444c7.419-0.568,13.836-6.173,15.603-13.456c0.057-0.232,0.261-0.397,0.5-0.397
		c0.238,0,0.443,0.165,0.499,0.397c1.767,7.267,8.124,12.806,15.434,13.426c5.308,0.45,5.38,0.475,6.337,0.475h8.296h8.458
		c1.09,0,2.138,0.175,3.123,0.49v-13.431C196.874,371.896,177.704,352.911,154.17,353.215z"/>
	<g>
		<path fill="#2B4D66" d="M131.436,395.986c0-20.125,13.91-37.329,32.748-41.698c-3.213-0.737-6.564-1.118-10.014-1.073
			c-23.162,0.298-41.591,19.605-41.591,42.771v12.697c0.875-0.244,1.794-0.384,2.748-0.384h8.831h7.278V395.986z"/>
	</g>
	<path fill="#365E7D" d="M204.106,509.29h-11.347l-0.698,0.747v6.683c0,5.973-3.521,9.37-8.829,12.107
		c-7.287,3.756-9.475,25.071,4.224,32.024l3.893,0.589l27.246-10.549v-15.448L204.106,509.29z"/>
	<path fill="#2B4D66" d="M202.088,528.827c4.051-2.089,7.056-4.568,8.254-8.278l-6.237-11.259h-11.346l-0.698,0.747v6.683
		c0,5.973-3.521,9.37-8.829,12.107c-7.287,3.756-9.475,25.071,4.224,32.024l3.893,0.589l10.363-4.013
		C193.284,548.587,195.761,532.09,202.088,528.827L202.088,528.827z"/>
	<path fill="#365E7D" d="M285.186,528.827c-5.323-2.744-8.828-6.145-8.828-12.106v-6.79l-1.112-1.052h-11.902l-13.667,27.632v13.981
		l28.125,10.948l2.616-0.794C293.832,553.506,292.4,532.548,285.186,528.827L285.186,528.827z"/>
	<path fill="#FFD064" d="M296.82,566.999c-1.461-0.565-21.085-8.166-33.478-12.965l-2.986,1.325h-51.671l-3.691-1.308
		c-12.339,4.785-33.056,12.815-33.396,12.947c-7.188,2.958-16.813,12.267-16.813,26.076v36.333h130.07v-20.004h28.777
		c0-15.079,0-13.961,0-16.329C313.631,581.182,306.016,570.784,296.82,566.999L296.82,566.999z"/>
	<path fill="#FFCEBE" d="M276.302,490.451l-0.938-0.942h-11.207v19.634l0.62,1.279h8.457c5.645,0,10.22-4.576,10.22-10.22
		C283.454,495.626,280.448,491.755,276.302,490.451L276.302,490.451z"/>
	<path fill="#FFCEBE" d="M192.061,490.355l0.002,0.011c-4.309,1.2-7.475,5.144-7.475,9.836c0,5.644,4.577,10.22,10.221,10.22h8.832
		l0.97-1.132v-19.843h-11.826L192.061,490.355z"/>
	<path fill="#FFB1A0" d="M274.168,489.509h-10.011v19.634l0.62,1.279h8.457c0.315,0,0.626-0.021,0.935-0.047L274.168,489.509
		L274.168,489.509z"/>
	<path fill="#FFB1A0" d="M194.6,500.202c0-4.692,3.165-8.636,7.474-9.836l-0.001-0.011l0.724-0.907h-10.011l-0.724,0.907
		l0.002,0.011c-4.309,1.2-7.475,5.144-7.475,9.836c0,5.644,4.576,10.22,10.22,10.22h8.831l0.055-0.064
		C198.581,509.796,194.6,505.465,194.6,500.202L194.6,500.202z"/>
	<path fill="#FFCEBE" d="M284.854,608.764v20.643h23.176c3.094,0,5.603-2.508,5.603-5.602c0-2.646,0,4.736,0-15.041H284.854z"/>
	<path fill="#FFCEBE" d="M253.384,550.177c-1.191-0.46-1.983-1.606-1.987-2.891l-0.007-10.413l-1.367-1.43h-31.429l-1.594,1.49
		v10.334c0,2.379-2.121,2.951-3.026,3.304c-0.2,0.077-3.874,1.501-8.979,3.48c3.665,11.839,14.542,21.171,29.527,21.221
		c13.446,0.045,24.914-8.988,28.82-21.238C258,551.965,253.999,550.415,253.384,550.177L253.384,550.177z"/>
	<path fill="#FFB1A0" d="M234.209,535.443h-15.615l-1.594,1.49v10.334c0,2.379-2.121,2.951-3.026,3.304
		c-0.2,0.077-3.874,1.501-8.979,3.48c3.639,11.755,14.392,21.035,29.215,21.214V535.443z"/>
	<path fill="#FFC250" d="M289.648,629.406v-33.357c0-2.647-2.146-4.793-4.794-4.793c-2.648,0-4.795,2.146-4.795,4.793v33.357
		H289.648z"/>
	<path fill="#FFDECF" d="M261.635,487.397h-13.424l-10.548-13.104h-6.284l-9.778,10.592v27.021c0,12.763,7.846,24.658,20.539,29.199
		c12.983-3.418,22.638-15.445,22.638-29.456v-21.665L261.635,487.397z"/>
	<path fill="#FFCEBE" d="M222.318,511.943v-27.836l-3.724,4.035h-13.6l-1.354,1.839v21.962c0,15.709,12.279,30.07,30.881,30.133
		c3.168,0.011,6.227-0.484,9.103-1.406C230.502,536.687,222.318,524.767,222.318,511.943L222.318,511.943z"/>
	<path fill="#365E7D" d="M233.653,434.896c-23.164,0.299-41.592,19.607-41.592,42.772v12.698c0.876-0.243,1.794-0.385,2.749-0.385
		h8.831h7.991c1.042,0,6.906-0.477,6.476-0.443c7.418-0.568,13.835-6.174,15.603-13.456c0.057-0.232,0.26-0.398,0.499-0.398
		s0.443,0.166,0.5,0.398c1.766,7.266,8.122,12.806,15.433,13.427c5.309,0.447,5.38,0.473,6.339,0.473h8.296h8.458
		c1.089,0,2.137,0.174,3.123,0.49v-13.431C276.358,453.579,257.187,434.593,233.653,434.896z"/>
	<g>
		<path fill="#2B4D66" d="M210.918,477.668c0-20.124,13.911-37.33,32.749-41.698c-3.215-0.737-6.565-1.118-10.015-1.074
			c-23.164,0.299-41.592,19.607-41.592,42.772v12.698c0.876-0.243,1.794-0.385,2.749-0.385h8.83h7.278V477.668z"/>
	</g>
	<path fill="#FFCEBE" d="M114.495,488.341h-2.433l-1.095-1.051h-6.473v21.579l1.889,0.991h8.113c5.645,0,10.221-4.817,10.221-10.761
		C124.716,493.158,120.14,488.341,114.495,488.341z"/>
	<path fill="#FFCEBE" d="M36.053,488.341c-5.637,0.011-10.203,4.823-10.203,10.761c0,5.941,4.576,10.759,10.219,10.759h8.114
		l1.32-2.435V487.29h-7.569L36.053,488.341z"/>
	<path fill="#FFB1A0" d="M115.161,488.376c-0.221-0.015-0.44-0.035-0.666-0.035h-2.433l-1.095-1.051h-6.473v21.579l1.889,0.991
		h8.113c0.226,0,0.445-0.021,0.666-0.036V488.376z"/>
	<path fill="#FFB1A0" d="M36.518,499.102c0-5.502,3.924-10.031,8.985-10.674v-1.138h-7.569l-1.881,1.051
		c-5.637,0.011-10.203,4.823-10.203,10.761c0,5.941,4.576,10.759,10.219,10.759h8.114l0.167-0.308
		C39.859,508.42,36.518,504.177,36.518,499.102z"/>
	<path fill="#B3E59F" d="M137.895,566.999c-1.447-0.558-20.649-7.996-33.06-12.803l-2.553,1.223H48.004L45.7,554.1l-33.029,12.899
		c-7.188,2.958-16.812,12.267-16.812,26.076v14.621h28.778v21.712h130.069c0-15.079,0-33.963,0-36.332
		C154.706,581.182,147.092,570.784,137.895,566.999L137.895,566.999z"/>
	<path fill="#95D6A4" d="M20.482,581.788c0-9.737,2.312-16.475,7.746-20.865l-15.557,6.076
		c-7.188,2.958-16.812,12.265-16.812,26.076v14.621h24.623C20.482,590.137,20.482,589.783,20.482,581.788L20.482,581.788z"/>
	<path fill="#FFB1A0" d="M24.636,607.057H-4.141v16.748c0,3.094,2.509,5.602,5.603,5.602h23.175V607.057L24.636,607.057z"/>
	<path fill="#FFCEBE" d="M94.459,550.177c-1.193-0.46-1.983-1.606-1.987-2.891l-0.008-10.218l-2.112-2.157H59.988l-1.913,2.113
		v10.244c0,1.279-0.615,2.034-1.324,2.516L45.7,554.1c3.87,11.872,14.903,21.156,30.025,21.156c13.554,0,25.072-8.843,29.11-21.06
		C99.284,552.047,95.09,550.422,94.459,550.177L94.459,550.177z"/>
	<path fill="#FFB1A0" d="M75.269,534.911H59.988l-1.913,2.113v10.244c0,1.279-0.615,2.034-1.324,2.516L45.7,554.1
		c3.83,11.751,14.682,20.963,29.569,21.148V534.911z"/>
	<path fill="#95D6A4" d="M29.43,629.406v-33.357c0-2.647-2.147-4.793-4.794-4.793c-2.647,0-4.794,2.146-4.794,4.793v33.357H29.43z"
		/>
	<path fill="#FFDECF" d="M104.836,485.691l-2.553-1.704l-1.918-8.31h-3.729l-15.554,11.293H67.305l-1.16,1.872v22.492
		c0,12.508,7.483,24.184,19.663,29.016c11.964-4.182,20.573-15.572,20.573-28.946v-22.228L104.836,485.691z"/>
	<g>
		<path fill="#FFCEBE" d="M66.604,511.404v-21.983l1.518-2.45H45.7l-1.517,2.45v21.983c0,16.021,12.553,30.656,31.542,30.656
			c3.825,0,7.485-0.71,10.863-1.995C74.233,535.537,66.604,523.895,66.604,511.404z"/>
	</g>
	<path fill="#365E7D" d="M104.39,449.066c-2.929,0.225-5.617-1.616-6.181-4.5c-0.949-4.855-3.354-9.674-12.744-9.674h-32.58
		c-11.958,0-21.651,9.693-21.651,21.65v23.761c0,5.034,4.081,9.116,9.116,9.116h36.977c8.271,0,15.454-4.642,19.099-11.458
		c0.282-0.527,1.084-0.321,1.084,0.278c0,6.147,5.031,11.18,11.18,11.18c3.223,0,5.86-2.637,5.86-5.861v-24.796
		C114.552,452.922,109.456,448.677,104.39,449.066L104.39,449.066z"/>
	<g>
		<path fill="#2B4D66" d="M49.614,480.305v-23.762c0-11.957,9.694-21.649,21.65-21.649H52.886c-11.958,0-21.65,9.692-21.65,21.649
			v23.762c0,5.034,4.081,9.116,9.116,9.116H58.73C53.695,489.421,49.614,485.339,49.614,480.305z"/>
	</g>
</g>
<g>
	<path fill="#FABE2C" d="M340.526,286.5h-59.555h-8.508c-21.111,0-38.569,17.174-38.569,38.285v25.524
		c0,19.674,15.197,35.926,34.315,38.049v21.506c0,1.72,1.034,3.274,2.625,3.931c1.569,0.654,3.409,0.304,4.636-0.923l5.501-5.5
		l18.776-18.777h40.778c21.111,0,38.569-17.174,38.569-38.285v-25.524C379.095,303.674,361.637,286.5,340.526,286.5L340.526,286.5z"
		/>
	<path fill="#FF9100" d="M340.526,388.595c21.111,0,38.569-17.174,38.569-38.285v-25.524c0-21.111-17.458-38.285-38.569-38.285
		h-59.555v120.872l18.776-18.777H340.526z"/>
	<path fill="#DFE7F4" d="M349.033,346.056h-4.254v-21.271c0-1.719-1.034-3.273-2.626-3.93c-1.586-0.668-3.423-0.295-4.636,0.922
		l-8.508,8.508c-1.662,1.662-1.662,4.355,0,6.016c1.662,1.662,4.354,1.662,6.016,0l1.246-1.246v11.001h-4.254
		c-2.351,0-4.254,1.902-4.254,4.254c0,2.351,1.903,4.254,4.254,4.254h17.016c2.352,0,4.254-1.903,4.254-4.254
		C353.287,347.958,351.385,346.056,349.033,346.056z"/>
	<circle fill="#F0F7FF" cx="280.971" cy="324.785" r="12.762"/>
	<path fill="#DFE7F4" d="M293.733,324.785c0-7.037-5.726-12.762-12.762-12.762v25.523
		C288.007,337.547,293.733,331.822,293.733,324.785z"/>
	<path fill="#F0F7FF" d="M280.971,337.547c-11.728,0-21.27,9.542-21.27,21.271c0,2.351,1.902,4.254,4.254,4.254h17.016h17.016
		c2.351,0,4.254-1.903,4.254-4.254C302.24,347.09,292.698,337.547,280.971,337.547z"/>
	<path fill="#DFE7F4" d="M302.24,358.817c0-11.729-9.542-21.271-21.27-21.271v25.524h17.016
		C300.337,363.071,302.24,361.168,302.24,358.817z"/>
</g>
</svg>
