<?xml version="1.0" encoding="utf-8"?>
<!-- Generator: Adobe Illustrator 16.0.0, SVG Export Plug-In . SVG Version: 6.00 Build 0)  -->
<!DOCTYPE svg PUBLIC "-//W3C//DTD SVG 1.1//EN" "http://www.w3.org/Graphics/SVG/1.1/DTD/svg11.dtd">
<svg version="1.1" id="레이어_1" xmlns="http://www.w3.org/2000/svg" xmlns:xlink="http://www.w3.org/1999/xlink" x="0px"
	 y="0px" width="416px" height="624px" viewBox="0 0 416 624" enable-background="new 0 0 416 624" xml:space="preserve">
<rect x="-42" y="-49" fill="#1E1F26" width="505" height="697"/>
<g enable-background="new    ">
	<path fill="#441DB2" d="M47.255,94.684c0-27.239,18.342-42.835,40.199-42.835c11.972,0,20.539,5.052,26.14,10.653L103.16,75.023
		c-3.954-3.625-8.237-6.371-15.047-6.371c-12.082,0-20.759,9.446-20.759,25.372c0,16.255,7.249,25.7,22.406,25.7
		c2.965,0,6.041-0.769,7.798-2.087v-13.18h-12.96V88.423h30.423v38.222c-5.711,5.491-15.816,9.995-27.238,9.995
		C65.048,136.64,47.255,122.361,47.255,94.684z"/>
	<path fill="#441DB2" d="M126.448,103.909c0-20.319,14.498-32.84,29.655-32.84c18.012,0,26.799,13.069,26.799,30.204
		c0,3.404-0.439,6.919-0.878,8.347H145.34c1.757,8.567,7.688,12.082,15.596,12.082c4.503,0,8.677-1.318,13.18-3.954l6.48,11.752
		c-6.48,4.613-15.047,7.14-22.406,7.14C140.287,136.64,126.448,124.558,126.448,103.909z M166.318,96.88
		c0-6.261-2.746-10.874-9.885-10.874c-5.382,0-10.104,3.405-11.422,10.874H166.318z"/>
	<path fill="#441DB2" d="M195.427,72.606h15.925l1.318,7.799h0.439c5.162-5.053,11.533-9.336,19.99-9.336
		c13.619,0,19.439,9.774,19.439,25.371v38.661h-19.55V98.856c0-8.566-2.307-11.093-7.249-11.093c-4.393,0-7.029,1.977-10.873,5.602
		v41.736h-19.441V72.606z"/>
	<path fill="#441DB2" d="M267.699,72.606h15.926l1.318,10.874h0.439c4.613-8.348,11.531-12.411,17.793-12.411
		c3.734,0,5.82,0.549,7.578,1.317l-3.295,16.805c-2.197-0.549-4.064-0.988-6.811-0.988c-4.611,0-10.213,2.965-13.508,11.203v35.695
		h-19.441V72.606z"/>
	<path fill="#441DB2" d="M313.832,103.909c0-20.319,14.498-32.84,29.654-32.84c18.014,0,26.801,13.069,26.801,30.204
		c0,3.404-0.439,6.919-0.879,8.347h-36.686c1.758,8.567,7.689,12.082,15.598,12.082c4.502,0,8.676-1.318,13.18-3.954l6.48,11.752
		c-6.48,4.613-15.047,7.14-22.406,7.14C327.672,136.64,313.832,124.558,313.832,103.909z M353.701,96.88
		c0-6.261-2.746-10.874-9.885-10.874c-5.381,0-10.104,3.405-11.422,10.874H353.701z"/>
</g>
<g enable-background="new    ">
	<path fill="#FFFFFF" d="M36.71,94.684c0-27.239,18.342-42.835,40.199-42.835c11.972,0,20.539,5.052,26.14,10.653L92.615,75.023
		c-3.954-3.625-8.237-6.371-15.047-6.371c-12.082,0-20.759,9.446-20.759,25.372c0,16.255,7.249,25.7,22.406,25.7
		c2.965,0,6.041-0.769,7.798-2.087v-13.18h-12.96V88.423h30.423v38.222c-5.711,5.491-15.816,9.995-27.238,9.995
		C54.503,136.64,36.71,122.361,36.71,94.684z"/>
	<path fill="#FFFFFF" d="M115.903,103.909c0-20.319,14.498-32.84,29.655-32.84c18.012,0,26.799,13.069,26.799,30.204
		c0,3.404-0.439,6.919-0.878,8.347h-36.684c1.757,8.567,7.688,12.082,15.596,12.082c4.503,0,8.677-1.318,13.18-3.954l6.48,11.752
		c-6.48,4.613-15.047,7.14-22.406,7.14C129.742,136.64,115.903,124.558,115.903,103.909z M155.773,96.88
		c0-6.261-2.746-10.874-9.885-10.874c-5.382,0-10.104,3.405-11.422,10.874H155.773z"/>
	<path fill="#FFFFFF" d="M184.882,72.606h15.926l1.318,7.799h0.439c5.163-5.053,11.533-9.336,19.99-9.336
		c13.619,0,19.439,9.774,19.439,25.371v38.661h-19.55V98.856c0-8.566-2.307-11.093-7.249-11.093c-4.393,0-7.029,1.977-10.874,5.602
		v41.736h-19.44V72.606z"/>
	<path fill="#FFFFFF" d="M257.155,72.606h15.926l1.318,10.874h0.439c4.613-8.348,11.531-12.411,17.793-12.411
		c3.734,0,5.82,0.549,7.578,1.317l-3.295,16.805c-2.197-0.549-4.064-0.988-6.811-0.988c-4.611,0-10.213,2.965-13.508,11.203v35.695
		h-19.441V72.606z"/>
	<path fill="#FFFFFF" d="M303.287,103.909c0-20.319,14.498-32.84,29.654-32.84c18.014,0,26.801,13.069,26.801,30.204
		c0,3.404-0.439,6.919-0.879,8.347h-36.686c1.758,8.567,7.689,12.082,15.598,12.082c4.502,0,8.676-1.318,13.18-3.954l6.48,11.752
		c-6.48,4.613-15.047,7.14-22.406,7.14C317.127,136.64,303.287,124.558,303.287,103.909z M343.156,96.88
		c0-6.261-2.746-10.874-9.885-10.874c-5.381,0-10.104,3.405-11.422,10.874H343.156z"/>
</g>
<g enable-background="new    ">
	<path fill="#FFFFFF" d="M84.16,181.527v3.345H57.048v-3.345H68.38V178.8h4.286v2.728H84.16z M58.184,177.273
		c5.358-0.324,8.28-1.786,9.157-3.409h-7.825v-3.247H81.66v3.247h-7.89c0.876,1.623,3.799,3.085,9.189,3.409l-1.331,3.183
		c-5.747-0.39-9.514-2.208-11.072-4.806c-1.559,2.598-5.293,4.416-11.04,4.806L58.184,177.273z M72.666,187.924h8.93v3.183H59.483
		v-3.183h8.897v-2.11h4.286V187.924z M79.647,195.944c0,2.565-3.345,3.929-9.157,3.929c-5.747,0-9.092-1.363-9.092-3.929
		s3.345-3.961,9.092-3.961C76.302,191.983,79.647,193.379,79.647,195.944z M75.231,195.944c0-0.812-1.591-1.137-4.741-1.137
		c-3.117,0-4.676,0.325-4.676,1.137c0,0.779,1.559,1.104,4.676,1.104C73.64,197.048,75.231,196.724,75.231,195.944z"/>
	<path fill="#FFFFFF" d="M102.794,182.599c0,6.592-3.345,10.716-7.858,10.716c-4.546,0-7.858-4.124-7.858-10.716
		c0-6.559,3.312-10.65,7.858-10.65C99.449,171.948,102.794,176.04,102.794,182.599z M98.67,182.599c0-4.416-1.526-6.786-3.734-6.786
		c-2.241,0-3.734,2.37-3.734,6.786c0,4.449,1.493,6.819,3.734,6.819C97.144,189.418,98.67,187.048,98.67,182.599z M114.678,184.677
		h-4.351v15.1h-4.286V169.87h4.286v11.268h4.351V184.677z"/>
	<path fill="#FFFFFF" d="M127.531,174.286h6.494v3.41h-17.404v-3.41h6.624v-3.896h4.286V174.286z M132.954,186.495
		c0,4.222-3.215,7.176-7.533,7.176c-4.352,0-7.599-2.954-7.599-7.176c0-4.156,3.247-7.111,7.599-7.111
		C129.739,179.384,132.954,182.339,132.954,186.495z M128.895,186.495c0-2.24-1.461-3.637-3.474-3.637
		c-2.014,0-3.507,1.396-3.507,3.67c0,2.272,1.493,3.637,3.507,3.637C127.433,190.165,128.895,188.801,128.895,186.495z
		 M144.546,185.099h-4.286v14.678h-4.286V169.87h4.286v11.689h4.286V185.099z"/>
	<path fill="#FFFFFF" d="M173.731,184.417v3.442h-27.08v-3.442H173.731z M154.022,195.717h16.885v3.442h-21.204v-8.93h4.319V195.717
		z M170.744,181.365h-20.749v-10.423h4.286v7.014h16.462V181.365z"/>
	<path fill="#FFFFFF" d="M199.669,186.755c-3.279-0.974-5.552-2.955-6.851-5.422c-1.332,2.954-3.702,5.324-7.208,6.461l-2.143-3.344
		c4.838-1.624,6.981-5.423,7.046-9.157h-5.942v-3.442h16.17v3.442h-5.845c0.065,3.409,2.111,6.754,6.819,8.15L199.669,186.755z
		 M207.754,193.996c0,3.637-3.896,5.78-10.098,5.78c-6.234,0-10.131-2.144-10.131-5.78c0-3.669,3.896-5.845,10.131-5.845
		C203.858,188.151,207.754,190.327,207.754,193.996z M203.501,193.996c0-1.721-2.046-2.532-5.845-2.532
		c-3.832,0-5.877,0.812-5.877,2.532c0,1.688,2.045,2.5,5.877,2.5C201.455,196.496,203.501,195.685,203.501,193.996z
		 M211.391,176.754v3.507h-3.961v7.371h-4.286V169.87h4.286v6.884H211.391z"/>
	<path fill="#FFFFFF" d="M240.836,192.892v3.508h-27.08v-3.508H240.836z M233.563,175.293h-16.722v-3.409h20.944v9.969h-16.658
		v3.344h17.34v3.41h-21.594v-10.099h16.689V175.293z"/>
</g>
<g enable-background="new    ">
	<path fill="#FFFFFF" d="M268.17,173.442c0,8.313-3.961,15.716-13.54,20.392l-1.267-1.916c7.857-3.767,11.917-9.546,12.404-16.527
		h-11.105v-1.948H268.17z M276.71,170.292v29.062h-2.37v-29.062H276.71z"/>
	<path fill="#FFFFFF" d="M297.422,186.723h-13.346V172.37h2.338v5.001h8.701v-5.001h2.307V186.723z M295.115,179.287h-8.701v5.487
		h8.701V179.287z M289.694,196.724h16.918v1.98h-19.289v-9.092h2.371V196.724z M309.631,179.222v1.98h-4.352v10.424h-2.371v-21.269
		h2.371v8.864H309.631z"/>
	<path fill="#FFFFFF" d="M339.043,193.444v1.98h-26.398v-1.98H339.043z M336.283,180.163c0,4.807-4.448,7.956-10.488,7.956
		c-6.039,0-10.52-3.149-10.52-7.956c0-4.805,4.48-7.955,10.52-7.955C331.835,172.208,336.283,175.358,336.283,180.163z
		 M317.548,180.163c0,3.54,3.54,5.975,8.247,5.975c4.709,0,8.248-2.435,8.248-5.975c0-3.539-3.539-5.975-8.248-5.975
		C321.088,174.188,317.548,176.624,317.548,180.163z"/>
	<path fill="#FFFFFF" d="M368.879,193.704v1.98h-26.334v-1.98h11.949v-5.65h-8.604v-8.832h17.338v-4.74h-17.404v-1.98h19.711v8.637
		h-17.307v4.968h17.988v1.948h-9.352v5.65H368.879z"/>
</g>
<g enable-background="new    ">
	<path fill="#FFFFFF" d="M83.674,236.768H71.724v9.514h-2.371v-9.514H57.437v-1.98h26.236V236.768z M59.126,230.533
		c5-0.682,10.228-3.831,10.228-7.598v-0.13h-9.352v-1.981h9.352v-3.604h2.371v3.604h9.384v1.981h-9.384v0.13
		c0,3.734,5.228,6.916,10.195,7.598l-0.844,1.884c-4.384-0.683-8.702-2.955-10.521-6.202c-1.818,3.279-6.17,5.52-10.553,6.202
		L59.126,230.533z"/>
	<path fill="#FFFFFF" d="M103.216,234.755c-3.344-1.137-6.039-3.475-7.338-6.494c-1.202,3.279-3.896,5.779-7.273,7.014l-1.202-1.884
		c4.221-1.429,7.273-5.065,7.273-9.222v-1.071h-6.591v-1.948h6.591v-3.767h2.371v3.767h6.526v1.948h-6.559v1.071
		c0,3.929,3.15,7.339,7.371,8.702L103.216,234.755z M111.95,243.619v1.98H92.663v-8.637h2.37v6.656H111.95z M108.736,226.247v-9.026
		h2.37v21.69h-2.37v-10.683h-6.137v-1.981H108.736z"/>
	<path fill="#FFFFFF" d="M138.991,232.319h-13.345v-13.508h2.338v4.578h8.702v-4.578h2.305V232.319z M136.686,225.306h-8.702v5.065
		h8.702V225.306z M131.231,243.879h16.43v1.98h-18.8v-10.033h18.281v1.98h-15.91V243.879z M151.2,224.267v1.98h-4.351v7.956h-2.37
		v-16.982h2.37v7.046H151.2z"/>
	<path fill="#FFFFFF" d="M180.516,229.852v1.948H154.28v-1.948H180.516z M157.203,222.773c0-3.248,3.799-5.066,10.163-5.066
		s10.131,1.818,10.131,5.066c0,3.214-3.767,5.032-10.131,5.032S157.203,225.987,157.203,222.773z M159.865,243.977h18.119v1.916
		H157.56v-6.819h17.209v-2.792h-17.307v-1.818h19.645v6.363h-17.242V243.977z M159.638,222.773c0,2.045,2.857,3.214,7.728,3.214
		c4.838,0,7.728-1.169,7.728-3.214c0-2.046-2.89-3.248-7.728-3.248C162.495,219.525,159.638,220.728,159.638,222.773z"/>
	<path fill="#FFFFFF" d="M187.395,237.189c3.409,0,6.591-0.162,10.423-0.812l0.195,1.948c-4.059,0.715-7.403,0.845-11.007,0.845
		h-1.884v-10.716h8.475v-6.072h-8.572v-1.98h10.877v10.033h-8.507V237.189z M208.696,217.188v29.029h-2.273v-15.488h-4.351v13.994
		h-2.241v-26.885h2.241v10.91h4.351v-11.561H208.696z"/>
	<path fill="#FFFFFF" d="M240.35,240.47v1.98h-26.398v-1.98h6.592v-7.956c-2.469-1.266-3.962-3.344-3.962-5.975
		c0-4.513,4.384-7.436,10.521-7.436s10.488,2.923,10.488,7.436c0,2.631-1.461,4.676-3.896,5.975v7.956H240.35z M227.102,232.027
		c4.773,0,8.248-2.208,8.248-5.488c0-3.312-3.475-5.52-8.248-5.52s-8.248,2.208-8.248,5.52
		C218.854,229.819,222.328,232.027,227.102,232.027z M222.912,240.47h8.443v-7.046c-1.267,0.324-2.729,0.52-4.254,0.52
		c-1.494,0-2.922-0.195-4.189-0.487V240.47z"/>
	<path fill="#FFFFFF" d="M245.215,242.223c0-1.299,0.909-2.143,1.98-2.143c1.072,0,2.014,0.844,2.014,2.143
		c0,1.234-0.941,2.078-2.014,2.078C246.124,244.301,245.215,243.457,245.215,242.223z M245.93,222.806l-0.065-3.183h2.663
		l-0.065,3.183l-0.356,14.06h-1.818L245.93,222.806z"/>
</g>
<g>
	<path fill="#FFD064" d="M356.896,507.061c0.189-0.657,0.609-1.243,1.151-1.66l22.035-16.071c2.12-1.547,1.549-4.854-0.97-5.597
		l-26.161-7.717c-0.998-0.294-1.79-1.063-2.112-2.054l-8.477-25.926c-0.813-2.493-4.136-2.97-5.621-0.806l-15.422,22.495
		c-0.59,0.86-1.563,1.374-2.604,1.376h-0.001l-9.224,0.018l-15.849,0.492c-2.624,0.004-4.102,3.02-2.501,5.097l16.17,21.151
		c0.64,0.834,0.828,1.913,0.505,2.91l-7.772,22.837c-0.8,2.501,1.603,4.839,4.074,3.961l23.566-7.346
		c0.981-0.352,2.074-0.193,2.918,0.418l20.568,15.365c2.127,1.541,5.096-0.026,5.021-2.653l0.793-16.649l-0.234-8.654
		C356.771,507.714,356.777,507.377,356.896,507.061L356.896,507.061z"/>
	<path fill="#FFC250" d="M352.465,537.962l-22.088-15.995c-0.845-0.614-1.937-0.77-2.918-0.419l-25.704,9.138
		c-2.476,0.88-4.874-1.459-4.075-3.96l8.385-25.949c0.323-0.998,0.134-2.078-0.506-2.913l-16.621-21.614
		c-1.602-2.077-0.123-5.094,2.501-5.098l18.053-0.033c3.498,22.953,21.633,41.9,45.805,45.37c0.565,0.083,1.128,0.152,1.688,0.218
		l0.506,18.604C357.561,537.934,354.592,539.502,352.465,537.962L352.465,537.962z"/>
</g>
<g>
	<path fill="#FFD064" d="M105.18,335.503c0.175-0.61,0.565-1.155,1.068-1.541l20.435-14.903c1.969-1.436,1.437-4.502-0.897-5.188
		l-24.261-7.156c-0.928-0.272-1.661-0.985-1.962-1.904l-7.856-24.041c-0.756-2.313-3.838-2.755-5.213-0.749L72.19,300.882
		c-0.546,0.797-1.449,1.273-2.416,1.276h-0.001l-8.552,0.016l-14.698,0.456c-2.434,0.004-3.804,2.802-2.318,4.727l14.995,19.614
		c0.594,0.772,0.77,1.774,0.469,2.699l-7.209,21.178c-0.74,2.319,1.485,4.487,3.778,3.674l21.855-6.812
		c0.911-0.325,1.922-0.181,2.705,0.388l19.073,14.25c1.973,1.428,4.727-0.025,4.658-2.461l0.735-15.44l-0.219-8.027
		C105.063,336.107,105.072,335.796,105.18,335.503L105.18,335.503z"/>
	<path fill="#FFC250" d="M101.07,364.159l-20.48-14.833c-0.784-0.569-1.795-0.715-2.706-0.389l-23.837,8.474
		c-2.295,0.815-4.521-1.353-3.78-3.671l7.776-24.066c0.301-0.925,0.125-1.927-0.471-2.701l-15.412-20.043
		c-1.484-1.927-0.115-4.724,2.318-4.728l16.741-0.03c3.245,21.285,20.062,38.858,42.478,42.075c0.525,0.074,1.045,0.143,1.563,0.199
		l0.471,17.253C105.799,364.133,103.043,365.587,101.07,364.159z"/>
</g>
<g>
	<path fill="#F2D1A5" d="M136.578,435.7l7.996-23.578c4.067-12,1.164-25.022-7.057-34.075c-1.758-1.936-5.013-1.813-7.242-3.338
		c-5.22-3.57-8.587,0.199-11.444,5.866L86.34,445.728c-8.858,17.563-18.038,37.782-36.56,44.213l-12.438,86.688
		c-2.038,14.2-2.143,34.998,30.785,39.723l80.89,11.638l37.769-6.402l17.653-123.035l-32.471-19.21l-9.895-1.42
		C142.029,475.045,130.044,454.968,136.578,435.7L136.578,435.7z"/>
	<path fill="#F2BB88" d="M46.636,575.234l10.862-75.694c0.766-5.334,3.867-10.062,8.487-12.833
		c15.17-9.101,28.372-27.879,35.913-42.831l30.813-61.097c1.088-2.161,2.807-3.762,4.802-4.728
		c-1.759-1.936-3.755-3.694-5.983-5.219c-5.219-3.571-12.382-1.714-15.237,3.953L85.48,437.882
		c-8.857,17.563-24.729,34.876-43.251,41.307l-16.997,55.067l1.92,50.005c-2.036,14.2,10.923,27.777,43.848,32.502
		C71.001,616.764,41.612,606.956,46.636,575.234L46.636,575.234z"/>
	<path fill="#F2D1A5" d="M191.377,629.52l-41.72-5.985c-9.413-1.353-11.241-4.854-9.892-14.269
		c1.352-9.413,4.729-16.717,14.145-15.364l1.313,0.188l22.76-5.829l18.535,11.755c6.148,0.883,10.416,6.58,9.534,12.729
		l-0.802,5.588C204.369,624.479,197.523,630.401,191.377,629.52L191.377,629.52z"/>
	<path fill="#F2BB88" d="M169.398,612.724c-9.149-1.313-15.561-9.599-14.672-18.706l-0.815-0.116
		c-9.415-1.353-18.14,5.186-19.489,14.6c-1.352,9.413,5.184,18.137,14.597,19.487l42.61,6.114
		c6.146,0.883,11.845-3.388,12.729-9.533l0.959-6.691L169.398,612.724z"/>
	<path fill="#F2D1A5" d="M197.941,594.761l-41.304-5.016c-10.695-0.626-10.941-15.466-10.788-16.526l-0.893-0.128
		c1.517-10.566,5.965-18.669,16.529-17.153l21.322-6.034l26.093,12.839c7.686,1.103,13.021,8.225,11.917,15.91l-0.985,6.871
		C218.73,593.205,205.499,596.756,197.941,594.761L197.941,594.761z"/>
	<path fill="#F2BB88" d="M176.376,578.935c-10.565-1.516-17.902-11.31-16.386-21.877c0.061-0.42,0.154-0.825,0.24-1.236
		c-10.073-0.786-19.165,6.356-20.62,16.504c-1.517,10.564,5.819,20.359,16.387,21.875l47.415,6.804
		c7.685,1.104,14.807-4.231,15.908-11.916l0.562-3.909L176.376,578.935L176.376,578.935z"/>
	<path fill="#F2D1A5" d="M214.73,558.12l-52.854-6.674c-10.565-1.518-13.193-6.088-11.679-16.653
		c1.518-10.566,5.965-18.67,16.529-17.154l27.298-5.178l21.322,12.153l11.237,1.611c7.684,1.104,13.019,8.229,11.915,15.91
		l-0.985,6.871C236.412,556.692,222.414,559.224,214.73,558.12z"/>
	<path fill="#F2BB88" d="M181.616,540.636c-10.566-1.516-17.902-11.309-16.387-21.876c0.062-0.421,0.155-0.826,0.241-1.234
		c-10.073-0.789-19.165,6.354-20.62,16.502c-1.517,10.564,5.818,20.357,16.385,21.876l59.856,8.588
		c7.685,1.103,14.807-4.233,15.909-11.918l0.562-3.908L181.616,540.636L181.616,540.636z"/>
	<path fill="#F2D1A5" d="M207.012,518.87l-39.395-5.651c-10.565-1.517-10.788-16.524-10.788-16.524
		c1.517-10.567,5.072-18.797,15.639-17.281l47.415,6.804c7.685,1.104,13.019,8.226,11.916,15.91l-0.985,6.87
		C229.711,516.68,214.696,519.973,207.012,518.87L207.012,518.87z"/>
	<path fill="#F2BB88" d="M187.357,502.411c-10.565-1.517-17.901-11.313-16.387-21.878c0.061-0.422,0.156-0.828,0.242-1.237
		c-10.075-0.787-19.165,6.357-20.622,16.504c-1.516,10.564,5.821,20.358,16.387,21.875l47.415,6.805
		c7.686,1.102,14.808-4.232,15.909-11.917l0.562-3.908L187.357,502.411L187.357,502.411z"/>
	<path fill="#F1F6F7" d="M4.721,601.663l-10.99-1.577c-7.383-1.059-6.339-13.345-5.279-20.727L3.015,474.623
		c1.061-7.382,3.904-18.965,11.287-17.905l17.157,2.462c7.381,1.06,12.507,7.902,11.448,15.283L25.381,596.606
		C24.321,603.988,12.104,602.723,4.721,601.663z"/>
	<path fill="#E1EBF0" d="M4.408,589.05c-2.462-0.354-4.171-2.633-3.816-5.094l18.165-126.6l-4.455-0.64
		c-7.383-1.06-14.225,4.065-15.284,11.447L-18.509,590.31c-1.06,7.383,4.064,14.227,11.448,15.285l17.156,2.462
		c7.383,1.06,14.225-4.067,15.284-11.449l0.64-4.456L4.408,589.05z"/>
</g>
<path fill="#FFD064" d="M287.696,372.592c0.298-1.217,1.004-2.305,2.029-3.059l36.939-26.939c3.556-2.591,2.595-8.136-1.626-9.381
	l-43.852-12.931c-1.675-0.495-3-1.782-3.543-3.443l-14.205-43.455c-1.365-4.182-6.936-4.981-9.424-1.353l-25.851,37.707
	c-0.983,1.434-2.637,2.305-4.365,2.305l-14.789,0.027l-23.5,4.421c-4.4,0.011-6.888,5.06-4.199,8.54l26.625,33.349
	c1.067,1.394,1.386,3.21,0.851,4.875l-16.045,38.353c-1.348,4.188,2.688,8.11,6.83,6.636l39.673-17.413
	c1.648-0.594,3.476-0.331,4.894,0.702l33.026,25.36c3.563,2.58,8.546-0.052,8.421-4.447l2.358-23.907l-0.397-14.542
	C287.545,373.52,287.573,373.046,287.696,372.592z"/>
<path fill="#FFC250" d="M280.38,424.117l-37.032-26.807c-1.418-1.033-3.244-1.295-4.896-0.701l-43.076,15.313
	c-4.145,1.473-8.176-2.451-6.829-6.638l14.052-43.504c0.538-1.666,0.221-3.481-0.848-4.873l-27.868-36.236
	c-2.688-3.481-0.202-8.53,4.199-8.542l30.931-0.055c2.292,37.805,30.831,70.085,69.789,75.675c3.068,0.438,6.115,0.7,9.143,0.788
	l0.854,31.131C288.922,424.066,283.941,426.698,280.38,424.117L280.38,424.117z"/>
</svg>
