<?xml version="1.0" encoding="utf-8"?>
<!-- Generator: Adobe Illustrator 16.0.0, SVG Export Plug-In . SVG Version: 6.00 Build 0)  -->
<!DOCTYPE svg PUBLIC "-//W3C//DTD SVG 1.1//EN" "http://www.w3.org/Graphics/SVG/1.1/DTD/svg11.dtd">
<svg version="1.1" id="레이어_1" xmlns="http://www.w3.org/2000/svg" xmlns:xlink="http://www.w3.org/1999/xlink" x="0px"
	 y="0px" width="416px" height="624px" viewBox="0 0 416 624" enable-background="new 0 0 416 624" xml:space="preserve">
<rect x="-42" y="-49" fill="#1E1F26" width="505" height="697"/>
<g id="Page-1">
	<g id="_x30_28---Treasure-Map">
		<path id="Shape" fill="#B19046" d="M418.044,413.732v205.052c0,3.432-2.782,6.213-6.215,6.213h-37.282l-24.854-31.068
			l-24.854,31.068H181.924v-24.854c0-3.432-2.781-6.214-6.214-6.214s-6.213,2.782-6.213,6.214v24.854H83.935
			c-14.053,0.214-25.713-10.813-26.284-24.854v-1.181c0.632-13.264,11.576-23.688,24.855-23.675h49.708
			c3.431,0,6.215-2.781,6.215-6.213V407.52h80.776l18.642,24.854l18.641-24.854h18.643l1.554,2.36
			c12.025,18.421,27.338,34.472,45.173,47.348c17.725-12.904,32.93-28.953,44.863-47.348c0.496-0.808,1.056-1.554,1.489-2.36h43.496
			c1.67-0.033,3.282,0.605,4.475,1.775C417.371,410.463,418.044,412.063,418.044,413.732L418.044,413.732z"/>
		<g>
			<path id="Shape_1_" fill="#603E26" d="M418.044,519.365v12.427c-3.643,0.011-7.271-0.405-10.813-1.243
				c-3.029-0.75-5.951-1.876-8.699-3.354c-2.449-1.327-4.777-2.865-6.96-4.598c-2.08-1.63-2.902-4.396-2.051-6.896
				c0.246-0.646,0.581-1.251,0.995-1.803c1.064-1.3,2.61-2.111,4.285-2.251c1.674-0.143,3.333,0.401,4.601,1.506
				c1.584,1.281,3.291,2.406,5.095,3.354c1.957,1.047,4.049,1.819,6.215,2.3C413.127,519.262,415.586,519.449,418.044,519.365
				L418.044,519.365z"/>
			<path id="Shape_2_" fill="#603E26" d="M378.711,510.853c-1.021-0.005-2.023-0.261-2.923-0.746
				c-1.966-1.023-4.053-1.796-6.212-2.299c-2.444-0.568-4.946-0.86-7.457-0.87c-3.432,0-6.214-2.78-6.214-6.214
				c0-3.432,2.782-6.213,6.214-6.213c3.62-0.015,7.229,0.402,10.75,1.243c3.054,0.735,5.997,1.863,8.762,3.355
				c2.569,1.313,3.895,4.227,3.197,7.028C384.132,508.94,381.598,510.894,378.711,510.853L378.711,510.853z"/>
			<path id="Shape_3_" fill="#603E26" d="M322.787,527.939c-2.325,0.005-4.46-1.289-5.529-3.355
				c-1.596-3.037-0.428-6.792,2.608-8.388c1.733-0.884,3.396-1.901,4.972-3.045c1.739-1.367,3.354-2.858,5.032-4.352
				c1.679-1.489,3.667-3.229,5.655-4.784c1.641-1.733,4.132-2.375,6.405-1.647c2.274,0.729,3.933,2.695,4.263,5.062
				c0.33,2.365-0.726,4.71-2.716,6.032c-1.739,1.367-3.355,2.858-5.033,4.351c-1.678,1.491-3.665,3.23-5.653,4.784
				c-2.172,1.716-4.478,3.254-6.896,4.598C324.941,527.709,323.869,527.966,322.787,527.939L322.787,527.939z"/>
			<path id="Shape_4_" fill="#603E26" d="M296.877,530.736c-0.495,0.059-0.996,0.059-1.492,0c-3.053-0.737-5.997-1.864-8.761-3.355
				c-2.42-1.344-4.728-2.882-6.897-4.599c-1.849-1.356-2.801-3.621-2.476-5.894c0.326-2.27,1.874-4.178,4.031-4.959
				c2.156-0.781,4.567-0.313,6.273,1.222c1.604,1.256,3.308,2.379,5.095,3.354c1.968,1.024,4.055,1.797,6.214,2.3
				c3.433,0.411,5.88,3.526,5.468,6.958c-0.411,3.433-3.527,5.881-6.958,5.469L296.877,530.736z"/>
			<path id="Shape_5_" fill="#603E26" d="M266.864,510.853c-1.02-0.005-2.021-0.261-2.92-0.746
				c-1.967-1.023-4.054-1.796-6.214-2.299c-2.444-0.564-4.945-0.857-7.456-0.87c-3.433,0-6.214-2.78-6.214-6.214
				c0-3.432,2.781-6.213,6.214-6.213c3.619-0.011,7.229,0.405,10.749,1.243c3.055,0.735,5.998,1.863,8.763,3.355
				c1.464,0.776,2.557,2.105,3.034,3.693c0.479,1.586,0.304,3.299-0.487,4.755C271.256,509.582,269.155,510.846,266.864,510.853
				L266.864,510.853z"/>
			<path id="Shape_6_" fill="#603E26" d="M216.969,523.901c-1.912,0.01-3.723-0.86-4.909-2.361c-1.928-2.61-1.521-6.265,0.935-8.389
				c1.738-1.367,3.417-2.858,5.031-4.352c1.615-1.49,3.729-3.229,5.654-4.784c1.641-1.733,4.132-2.375,6.408-1.647
				c2.272,0.729,3.93,2.694,4.261,5.062c0.33,2.365-0.726,4.71-2.716,6.032c-1.802,1.367-3.417,2.858-5.095,4.35
				c-1.679,1.492-3.666,3.231-5.655,4.785C219.766,523.464,218.385,523.925,216.969,523.901z"/>
			<path id="Shape_7_" fill="#603E26" d="M194.351,531.792c-3.64,0.015-7.27-0.402-10.812-1.243c-3.028-0.75-5.952-1.876-8.7-3.354
				c-1.964-1.042-3.223-3.056-3.301-5.277c-0.08-2.224,1.033-4.32,2.919-5.5c1.887-1.18,4.259-1.263,6.223-0.221
				c1.842,1.011,3.806,1.783,5.841,2.3c2.567,0.59,5.194,0.881,7.829,0.87c3.433,0,6.214,2.781,6.214,6.214
				C200.565,529.011,197.783,531.792,194.351,531.792L194.351,531.792z"/>
			<path id="Shape_8_" fill="#603E26" d="M161.045,514.829c-1.401-0.008-2.759-0.49-3.853-1.367
				c-1.584-1.283-3.292-2.407-5.095-3.355c-1.863-1.011-3.847-1.782-5.903-2.299c-2.546-0.594-5.152-0.886-7.766-0.87
				c-3.433,0-6.215-2.78-6.215-6.214c0-3.432,2.782-6.213,6.215-6.213c3.639-0.015,7.269,0.401,10.811,1.243
				c3.028,0.749,5.952,1.876,8.7,3.355c2.429,1.328,4.736,2.865,6.896,4.597c2.686,2.117,3.157,6.003,1.057,8.699
				C164.733,513.912,162.947,514.806,161.045,514.829L161.045,514.829z"/>
		</g>
		<path id="Shape_9_" fill="#E4C05C" d="M138.429,388.878v180.196c0,3.432-2.784,6.213-6.215,6.213H82.506
			c-13.279-0.014-24.226,10.411-24.855,23.675V407.52c0-13.728,11.128-24.854,24.855-24.854h6.212v24.854
			c0,3.432,2.782,6.213,6.214,6.213s6.214-2.781,6.214-6.213v-24.854h31.068C135.646,382.664,138.429,385.445,138.429,388.878
			L138.429,388.878z"/>
		<path id="Shape_10_" fill="#603E26" d="M345.095,436.972c10.313,4.475,17.024,11.868,17.024,20.256
			c0,13.732-18.081,24.854-40.39,24.854c-22.307,0-40.388-11.122-40.388-24.854c0-8.449,6.835-15.844,17.212-20.38L345.095,436.972z
			"/>
		<path id="Shape_11_" fill="#E64C3C" d="M390.205,333.764c-0.192,26.155-7.773,51.725-21.871,73.756
			c-0.436,0.808-0.994,1.554-1.492,2.36c-11.97,18.405-27.219,34.454-44.986,47.348c-17.724-12.904-32.93-28.953-44.862-47.348
			l-1.554-2.36h-0.311c-13.997-21.957-21.533-47.408-21.748-73.445c0-37.749,30.602-68.35,68.35-68.35
			c37.75,0,68.352,30.601,68.352,68.35L390.205,333.764z"/>
		<ellipse id="Oval" fill="#F9EAB0" cx="321.421" cy="332.955" rx="43.06" ry="43.496"/>
		<path id="Shape_12_" fill="#C03A2B" d="M321.421,382.664c-20.146,0.177-38.403-11.822-46.234-30.383
			c-7.831-18.563-3.687-40.012,10.495-54.319c14.183-14.307,35.597-18.641,54.226-10.973c18.628,7.668,30.787,25.821,30.787,45.966
			C370.695,360.239,348.704,382.426,321.421,382.664z M321.421,295.673c-15.117-0.176-28.845,8.794-34.753,22.711
			s-2.826,30.022,7.802,40.775c10.627,10.753,26.696,14.022,40.681,8.278c13.985-5.742,23.116-19.363,23.117-34.482
			C358.269,312.533,341.841,295.911,321.421,295.673z"/>
		<path id="Shape_13_" fill="#C03A2B" d="M208.83,435.17c-1.878-2.65-5.479-3.409-8.266-1.739l-10.563,7.021l-10.564-7.021
			c-2.827-1.518-6.344-0.632-8.116,2.042c-1.771,2.676-1.218,6.26,1.281,8.271l6.214,4.164l-6.214,4.163
			c-2.224,1.483-3.247,4.226-2.542,6.805c0.704,2.578,2.98,4.417,5.649,4.565c1.221,0.014,2.417-0.355,3.418-1.057l10.563-7.021
			l10.874,7.021c1.001,0.7,2.196,1.069,3.417,1.057c2.726-0.021,5.118-1.814,5.902-4.425c0.785-2.609-0.223-5.427-2.485-6.945
			l-6.214-4.163l6.214-4.164c2.729-1.993,3.365-5.803,1.429-8.574H208.83L208.83,435.17z"/>
		<path id="Shape_14_" fill="#C03A2B" d="M276.495,572.181l14.665-10.501c2.021-1.195,3.193-3.432,3.032-5.772
			c-0.163-2.344-1.631-4.396-3.798-5.303c-2.166-0.909-4.659-0.518-6.442,1.011l-18.145,12.924l-18.145-12.924
			c-1.783-1.527-4.277-1.92-6.442-1.011c-2.167,0.906-3.636,2.959-3.798,5.303c-0.162,2.342,1.012,4.577,3.032,5.772l14.665,10.501
			l-14.665,10.501c-2.177,1.575-3.094,4.372-2.272,6.931c0.818,2.559,3.19,4.3,5.877,4.316c1.295-0.008,2.555-0.421,3.604-1.181
			l18.145-12.925l18.145,12.925c1.049,0.76,2.309,1.173,3.604,1.181c2.687-0.018,5.058-1.759,5.877-4.316
			c0.819-2.559-0.098-5.354-2.272-6.931L276.495,572.181z"/>
		<path id="Shape_15_" fill="#B19046" d="M107.36,581.501c-3.432,0-6.214-2.781-6.214-6.214v-24.854
			c0-3.432,2.782-6.214,6.214-6.214c3.433,0,6.215,2.782,6.215,6.214v24.854C113.574,578.72,110.792,581.501,107.36,581.501z"/>
	</g>
</g>
<g enable-background="new    ">
	<path fill="#441DB2" d="M74.663,107.773L63.247,85.941h-7.166v21.832H41.165V45.777h22.749c13.249,0,24.249,4.5,24.249,19.499
		c0,9.082-4.25,14.915-10.666,17.915l13.833,24.582H74.663z M56.081,74.192h6.666c7.083,0,10.833-3.083,10.833-8.916
		s-3.75-7.75-10.833-7.75h-6.666V74.192z"/>
	<path fill="#441DB2" d="M95.998,94.524c0-10,7.833-15.416,26.332-17.416c-0.333-3.833-2.333-6.083-7.166-6.083
		c-3.75,0-7.667,1.5-12.416,4.167l-5.167-9.75c6.25-3.749,13-6.249,20.416-6.249c12.25,0,19.166,6.833,19.166,21.665v26.915h-12.083
		l-1.083-4.75h-0.333c-3.917,3.5-8.333,5.917-13.583,5.917C101.331,108.94,95.998,102.44,95.998,94.524z M122.329,93.691v-7.583
		c-9.25,1.25-12.249,3.916-12.249,7.249c0,2.75,2,4.083,5.083,4.083C118.163,97.44,120.163,96.024,122.329,93.691z"/>
	<path fill="#441DB2" d="M148.578,60.359h12.083l1,5.917h0.333c3.917-3.833,8.75-7.083,15.166-7.083
		c10.333,0,14.749,7.416,14.749,19.248v29.332h-14.832V80.275c0-6.5-1.75-8.416-5.5-8.416c-3.333,0-5.333,1.499-8.25,4.249v31.665
		h-14.749V60.359z"/>
	<path fill="#441DB2" d="M200.992,84.108c0-15.583,9.75-24.915,19.583-24.915c5.25,0,8.332,1.916,11.416,4.916l-0.584-7.083V41.194
		h14.916v66.579H234.24l-1.084-4.583h-0.333c-3.333,3.333-7.916,5.75-12.416,5.75C208.574,108.94,200.992,99.524,200.992,84.108z
		 M231.406,92.774V74.108c-2.25-2.083-4.832-2.833-7.332-2.833c-4.084,0-7.834,3.833-7.834,12.583c0,9.083,3,12.916,8.084,12.916
		C227.156,96.774,229.406,95.857,231.406,92.774z"/>
	<path fill="#441DB2" d="M255.573,84.108c0-15.749,11.166-24.915,23.249-24.915c11.999,0,23.165,9.166,23.165,24.915
		c0,15.665-11.166,24.832-23.165,24.832C266.739,108.94,255.573,99.773,255.573,84.108z M286.821,84.108
		c0-7.916-2.5-12.916-7.999-12.916c-5.583,0-8.083,5-8.083,12.916c0,7.833,2.5,12.832,8.083,12.832
		C284.321,96.94,286.821,91.941,286.821,84.108z"/>
	<path fill="#441DB2" d="M311.321,60.359h12.082l1,6h0.333c3.917-3.916,8-7.166,14.416-7.166c6.583,0,10.583,2.75,12.999,7.833
		c4.083-4.167,8.5-7.833,14.833-7.833c10.332,0,14.832,7.416,14.832,19.248v29.332h-14.832V80.275c0-6.5-1.667-8.416-5.417-8.416
		c-2.166,0-4.749,1.333-7.582,4.249v31.665h-14.916V80.275c0-6.5-1.667-8.416-5.416-8.416c-2.167,0-4.75,1.333-7.583,4.249v31.665
		h-14.749V60.359z"/>
</g>
<g enable-background="new    ">
	<path fill="#FFFFFF" d="M66.663,107.773L55.247,85.941h-7.166v21.832H33.165V45.777h22.749c13.249,0,24.249,4.5,24.249,19.499
		c0,9.082-4.25,14.915-10.666,17.915l13.833,24.582H66.663z M48.081,74.192h6.666c7.083,0,10.833-3.083,10.833-8.916
		s-3.75-7.75-10.833-7.75h-6.666V74.192z"/>
	<path fill="#FFFFFF" d="M87.998,94.524c0-10,7.833-15.416,26.332-17.416c-0.333-3.833-2.333-6.083-7.166-6.083
		c-3.75,0-7.667,1.5-12.416,4.167l-5.167-9.75c6.25-3.749,13-6.249,20.416-6.249c12.25,0,19.166,6.833,19.166,21.665v26.915h-12.083
		l-1.083-4.75h-0.333c-3.917,3.5-8.333,5.917-13.583,5.917C93.331,108.94,87.998,102.44,87.998,94.524z M114.329,93.691v-7.583
		c-9.25,1.25-12.249,3.916-12.249,7.249c0,2.75,2,4.083,5.083,4.083C110.163,97.44,112.163,96.024,114.329,93.691z"/>
	<path fill="#FFFFFF" d="M140.578,60.359h12.083l1,5.917h0.333c3.917-3.833,8.75-7.083,15.166-7.083
		c10.333,0,14.749,7.416,14.749,19.248v29.332h-14.832V80.275c0-6.5-1.75-8.416-5.5-8.416c-3.333,0-5.333,1.499-8.25,4.249v31.665
		h-14.749V60.359z"/>
	<path fill="#FFFFFF" d="M192.992,84.108c0-15.583,9.75-24.915,19.583-24.915c5.25,0,8.332,1.916,11.416,4.916l-0.584-7.083V41.194
		h14.916v66.579H226.24l-1.084-4.583h-0.333c-3.333,3.333-7.916,5.75-12.416,5.75C200.575,108.94,192.992,99.524,192.992,84.108z
		 M223.406,92.774V74.108c-2.25-2.083-4.832-2.833-7.332-2.833c-4.084,0-7.833,3.833-7.833,12.583c0,9.083,3,12.916,8.083,12.916
		C219.156,96.774,221.406,95.857,223.406,92.774z"/>
	<path fill="#FFFFFF" d="M247.573,84.108c0-15.749,11.166-24.915,23.249-24.915c11.999,0,23.165,9.166,23.165,24.915
		c0,15.665-11.166,24.832-23.165,24.832C258.739,108.94,247.573,99.773,247.573,84.108z M278.821,84.108
		c0-7.916-2.5-12.916-7.999-12.916c-5.583,0-8.083,5-8.083,12.916c0,7.833,2.5,12.832,8.083,12.832
		C276.321,96.94,278.821,91.941,278.821,84.108z"/>
	<path fill="#FFFFFF" d="M303.321,60.359h12.082l1,6h0.333c3.917-3.916,8-7.166,14.416-7.166c6.583,0,10.583,2.75,12.999,7.833
		c4.083-4.167,8.5-7.833,14.833-7.833c10.332,0,14.832,7.416,14.832,19.248v29.332h-14.832V80.275c0-6.5-1.667-8.416-5.417-8.416
		c-2.166,0-4.749,1.333-7.582,4.249v31.665h-14.916V80.275c0-6.5-1.667-8.416-5.416-8.416c-2.167,0-4.75,1.333-7.583,4.249v31.665
		h-14.749V60.359z"/>
</g>
<g enable-background="new    ">
	<path fill="#FFFFFF" d="M77.979,154.286c0,7.375-3.742,11.989-8.792,11.989c-5.086,0-8.792-4.614-8.792-11.989
		c0-7.339,3.706-11.917,8.792-11.917C74.237,142.369,77.979,146.947,77.979,154.286z M73.365,154.286
		c0-4.941-1.708-7.593-4.178-7.593c-2.507,0-4.178,2.651-4.178,7.593c0,4.978,1.671,7.63,4.178,7.63
		C71.657,161.916,73.365,159.264,73.365,154.286z M91.277,156.611h-4.869v16.894h-4.795v-33.461h4.795v12.607h4.869V156.611z"/>
	<path fill="#FFFFFF" d="M123.933,162.569h-12.861v10.936h-4.795v-10.936H93.633v-3.814h30.3V162.569z M120.301,155.194h-23.18
		V141.68h23.18V155.194z M115.614,145.458h-13.77v5.958h13.77V145.458z"/>
	<path fill="#FFFFFF" d="M151.03,155.667c-1.599,1.599-3.887,2.543-6.503,2.543c-4.941,0-8.792-3.451-8.792-8.175
		c0-4.759,3.851-8.211,8.792-8.211c2.688,0,4.977,0.981,6.576,2.58h7.375v-4.36h4.795v19.619h-4.795v-3.996H151.03z
		 M144.527,154.177c2.47,0,4.287-1.562,4.287-4.142c0-2.615-1.817-4.142-4.287-4.142c-2.471,0-4.251,1.526-4.251,4.142
		C140.276,152.615,142.056,154.177,144.527,154.177z M163.419,166.93c0,4.142-4.396,6.612-11.48,6.612
		c-7.048,0-11.444-2.471-11.444-6.612c0-4.179,4.396-6.612,11.444-6.612C159.023,160.317,163.419,162.751,163.419,166.93z
		 M158.696,166.93c0-1.962-2.361-2.907-6.757-2.907c-4.396,0-6.722,0.945-6.722,2.907s2.325,2.906,6.722,2.906
		C156.335,169.836,158.696,168.892,158.696,166.93z M153.174,148.219c0.109,0.581,0.182,1.163,0.182,1.816
		c0,0.618-0.072,1.199-0.218,1.816h5.341v-3.633H153.174z"/>
	<path fill="#FFFFFF" d="M181.253,163.805c2.579-0.146,5.159-0.327,7.557-0.69l0.363,3.452c-7.048,1.38-14.569,1.38-20.236,1.38
		l-0.582-3.887c2.398,0,5.159,0,8.102-0.073v-2.834c-3.488-0.689-5.777-2.979-5.777-6.03c0-3.778,3.379-6.322,8.175-6.322
		c4.795,0,8.174,2.544,8.174,6.322c0,3.052-2.289,5.341-5.776,6.03V163.805z M188.665,147.492h-19.692v-3.778h7.484v-3.524h4.796
		v3.524h7.412V147.492z M178.855,157.811c2.18,0,3.633-0.945,3.633-2.688c0-1.744-1.453-2.688-3.633-2.688
		c-2.18,0-3.633,0.944-3.633,2.688C175.222,156.865,176.675,157.811,178.855,157.811z M199.491,157.629h-4.178v15.876h-4.796
		v-33.461h4.796v13.625h4.178V157.629z"/>
</g>
<g enable-background="new    ">
	<path fill="#FFFFFF" d="M208.461,162.497c4.759,0,9.665-0.363,15.042-1.453l0.29,2.216c-5.522,1.126-10.499,1.49-15.441,1.49
		h-2.543v-21.036h2.652V162.497z M234.692,155.849h-5.341v17.148h-2.651v-32.48h2.651v13.079h5.341V155.849z"/>
</g>
<g enable-background="new    ">
	<path fill="#FFFFFF" d="M69.659,208.793c-5.123,0-8.974-3.196-8.974-7.665c0-4.433,3.851-7.63,8.974-7.63
		c5.086,0,8.901,3.197,8.901,7.63C78.561,205.597,74.746,208.793,69.659,208.793z M69.659,204.906c2.471,0,4.251-1.381,4.251-3.778
		c0-2.362-1.78-3.779-4.251-3.779s-4.323,1.417-4.323,3.779C65.336,203.525,67.189,204.906,69.659,204.906z M88.843,221.873v3.741
		H65.736v-9.264h17.512v-2.035H65.699v-3.669h22.307v9.119H70.495v2.107H88.843z M88.007,209.266h-4.832v-16.749h4.832V209.266z"/>
	<path fill="#FFFFFF" d="M113.034,210.174c-4.105,0.908-7.92,1.09-15.332,1.09h-2.797v-16.095h14.968v3.815H99.664v8.429
		c5.958-0.037,9.264-0.255,12.897-1.018L113.034,210.174z M103.188,221.582h17.984v3.814H98.393V214.17h4.795V221.582z
		 M124.406,201.636v3.924h-4.433v11.154h-4.796v-24.197h4.796v9.119H124.406z"/>
</g>
<g enable-background="new    ">
	<path fill="#FFFFFF" d="M164.946,214.897h-13.37v10.645h-2.652v-10.645H135.59v-2.217h29.356V214.897z M137.479,207.922
		c5.595-0.764,11.444-4.287,11.444-8.502v-0.146H138.46v-2.216h10.463v-4.033h2.652v4.033h10.5v2.216h-10.5v0.146
		c0,4.178,5.849,7.738,11.408,8.502l-0.945,2.106c-4.905-0.763-9.737-3.306-11.771-6.938c-2.034,3.669-6.903,6.176-11.808,6.938
		L137.479,207.922z"/>
	<path fill="#FFFFFF" d="M186.811,212.645c-3.742-1.271-6.757-3.888-8.21-7.267c-1.344,3.67-4.36,6.467-8.138,7.848l-1.344-2.107
		c4.723-1.599,8.138-5.667,8.138-10.317v-1.199h-7.375v-2.18h7.375v-4.215h2.652v4.215h7.303v2.18h-7.339v1.199
		c0,4.396,3.524,8.211,8.247,9.736L186.811,212.645z M196.585,222.563v2.217h-21.581v-9.664h2.652v7.447H196.585z M192.988,203.126
		v-10.101h2.652v24.27h-2.652v-11.953h-6.866v-2.216H192.988z"/>
	<path fill="#FFFFFF" d="M211.766,198.693h6.83v2.216h-16.239v-2.216h6.794v-4.76h2.615V198.693z M217.434,210.537
		c0,4.36-2.906,7.339-6.976,7.339c-4.033,0-6.903-2.979-6.903-7.339c0-4.359,2.87-7.375,6.903-7.375
		C214.528,203.162,217.434,206.178,217.434,210.537z M215.073,210.537c0-2.942-1.926-5.123-4.614-5.123
		c-2.616,0-4.542,2.181-4.542,5.123c0,2.979,1.926,5.087,4.542,5.087C213.147,215.624,215.073,213.517,215.073,210.537z
		 M229.823,192.989v32.48h-2.543v-16.458h-4.469v14.859h-2.507v-30.082h2.507v13.006h4.469v-13.806H229.823z"/>
	<path fill="#FFFFFF" d="M265.205,213.807h-13.406v11.663h-2.652v-11.663h-13.298v-2.216h29.356V213.807z M237.629,206.577
		c5.449-0.799,11.408-4.541,11.408-8.974v-0.327h-10.391v-2.216h23.688v2.216h-10.318v0.327c0,4.433,5.959,8.175,11.372,8.974
		l-1.017,2.107c-4.869-0.872-9.919-3.597-11.881-7.594c-1.926,3.997-6.976,6.722-11.844,7.594L237.629,206.577z"/>
	<path fill="#FFFFFF" d="M278.715,202.362c0,5.123,2.652,10.718,6.867,13.262l-1.526,2.034c-3.124-1.89-5.413-5.413-6.576-9.41
		c-1.163,4.396-3.597,8.139-6.903,10.137l-1.671-1.998c4.396-2.58,7.267-8.393,7.267-13.951v-6.358h2.543V202.362z M287.653,193.752
		h2.507v30.082h-2.507v-16.857h-5.596v-2.216h5.596V193.752z M296.772,192.989v32.48h-2.543v-32.48H296.772z"/>
	<path fill="#FFFFFF" d="M332.154,219.039v2.216h-29.537v-2.216h7.375v-8.901c-2.761-1.417-4.433-3.742-4.433-6.685
		c0-5.051,4.904-8.32,11.771-8.32s11.734,3.27,11.734,8.32c0,2.942-1.635,5.231-4.359,6.685v8.901H332.154z M317.33,209.593
		c5.341,0,9.229-2.471,9.229-6.14c0-3.706-3.888-6.177-9.229-6.177s-9.229,2.471-9.229,6.177
		C308.102,207.122,311.99,209.593,317.33,209.593z M312.644,219.039h9.446v-7.884c-1.418,0.363-3.053,0.581-4.76,0.581
		c-1.672,0-3.27-0.218-4.687-0.545V219.039z"/>
	<path fill="#FFFFFF" d="M337.598,221.001c0-1.453,1.018-2.398,2.217-2.398s2.252,0.945,2.252,2.398c0,1.38-1.053,2.325-2.252,2.325
		S337.598,222.381,337.598,221.001z M338.397,199.274l-0.072-3.561h2.979l-0.072,3.561l-0.398,15.731h-2.035L338.397,199.274z"/>
</g>
</svg>
