<?xml version="1.0" encoding="utf-8"?>
<!-- Generator: Adobe Illustrator 16.0.0, SVG Export Plug-In . SVG Version: 6.00 Build 0)  -->
<!DOCTYPE svg PUBLIC "-//W3C//DTD SVG 1.1//EN" "http://www.w3.org/Graphics/SVG/1.1/DTD/svg11.dtd">
<svg version="1.1" id="레이어_1" xmlns="http://www.w3.org/2000/svg" xmlns:xlink="http://www.w3.org/1999/xlink" x="0px"
	 y="0px" width="416px" height="624px" viewBox="0 0 416 624" enable-background="new 0 0 416 624" xml:space="preserve">
<rect x="-42" y="-49" fill="#1E1F26" width="505" height="697"/>
<g enable-background="new    ">
	<path fill="#441DB2" d="M50.485,122.891l10.837-13.198c5.687,4.828,13.09,8.155,19.421,8.155c7.082,0,10.408-2.683,10.408-6.975
		c0-4.614-4.399-6.116-11.267-9.014l-10.193-4.292c-8.37-3.326-16.203-10.301-16.203-21.889c0-13.413,12.018-24.143,28.971-24.143
		c9.228,0,18.992,3.541,25.966,10.515l-9.549,12.018c-5.258-3.97-10.194-6.115-16.417-6.115c-5.901,0-9.55,2.36-9.55,6.652
		c0,4.399,5.043,6.116,12.125,8.906l9.979,3.97c9.872,3.97,15.773,10.622,15.773,21.889c0,13.306-11.159,25.001-30.473,25.001
		C69.906,134.371,58.747,130.509,50.485,122.891z"/>
	<path fill="#441DB2" d="M119.159,102.396c0-19.851,14.164-32.083,28.971-32.083c17.598,0,26.182,12.769,26.182,29.507
		c0,3.327-0.43,6.761-0.858,8.155h-35.838c1.717,8.369,7.511,11.803,15.237,11.803c4.399,0,8.477-1.287,12.876-3.862l6.331,11.48
		c-6.331,4.507-14.7,6.975-21.889,6.975C132.678,134.371,119.159,122.568,119.159,102.396z M158.109,95.529
		c0-6.116-2.682-10.623-9.657-10.623c-5.258,0-9.872,3.326-11.159,10.623H158.109z"/>
	<path fill="#441DB2" d="M186.545,71.815h15.559l1.288,10.623h0.429c4.506-8.155,11.266-12.125,17.383-12.125
		c3.648,0,5.687,0.536,7.403,1.287l-3.22,16.417c-2.145-0.536-3.969-0.966-6.652-0.966c-4.506,0-9.979,2.897-13.197,10.945v34.872
		h-18.992V71.815z"/>
	<path fill="#441DB2" d="M234.938,53.574c0-5.794,4.508-9.871,10.945-9.871c6.33,0,10.838,4.077,10.838,9.871
		c0,5.688-4.508,9.765-10.838,9.765C239.446,63.339,234.938,59.262,234.938,53.574z M236.333,71.815h18.991v61.054h-18.991V71.815z"
		/>
	<path fill="#441DB2" d="M267.344,102.396c0-19.851,14.164-32.083,28.971-32.083c17.598,0,26.182,12.769,26.182,29.507
		c0,3.327-0.43,6.761-0.857,8.155h-35.838c1.717,8.369,7.51,11.803,15.236,11.803c4.398,0,8.477-1.287,12.875-3.862l6.33,11.48
		c-6.33,4.507-14.699,6.975-21.889,6.975C280.864,134.371,267.344,122.568,267.344,102.396z M306.295,95.529
		c0-6.116-2.684-10.623-9.658-10.623c-5.258,0-9.871,3.326-11.158,10.623H306.295z"/>
	<path fill="#441DB2" d="M329.473,125.787l8.477-11.91c5.58,4.292,10.623,6.438,15.451,6.438c5.043,0,7.189-1.824,7.189-4.829
		c0-3.648-5.902-5.365-12.125-7.833c-7.297-2.896-15.881-7.833-15.881-17.919c0-11.588,9.443-19.421,23.605-19.421
		c9.658,0,16.525,3.862,21.891,7.833l-8.584,11.373c-4.293-3.004-8.584-5.15-12.662-5.15c-4.293,0-6.438,1.503-6.438,4.399
		c0,3.648,5.578,5.044,11.91,7.297c7.617,2.897,16.094,7.296,16.094,18.349c0,11.266-8.799,19.957-25.43,19.957
		C345.031,134.371,335.588,130.938,329.473,125.787z"/>
</g>
<g enable-background="new    ">
	<path fill="#FFFFFF" d="M40.184,122.891l10.837-13.198c5.687,4.828,13.09,8.155,19.421,8.155c7.082,0,10.408-2.683,10.408-6.975
		c0-4.614-4.399-6.116-11.267-9.014l-10.193-4.292c-8.37-3.326-16.203-10.301-16.203-21.889c0-13.413,12.018-24.143,28.971-24.143
		c9.228,0,18.992,3.541,25.966,10.515l-9.549,12.018c-5.258-3.97-10.194-6.115-16.417-6.115c-5.901,0-9.55,2.36-9.55,6.652
		c0,4.399,5.043,6.116,12.125,8.906l9.979,3.97c9.872,3.97,15.773,10.622,15.773,21.889c0,13.306-11.159,25.001-30.473,25.001
		C59.606,134.371,48.447,130.509,40.184,122.891z"/>
	<path fill="#FFFFFF" d="M108.858,102.396c0-19.851,14.164-32.083,28.971-32.083c17.598,0,26.182,12.769,26.182,29.507
		c0,3.327-0.43,6.761-0.858,8.155h-35.838c1.717,8.369,7.511,11.803,15.237,11.803c4.399,0,8.477-1.287,12.876-3.862l6.331,11.48
		c-6.331,4.507-14.7,6.975-21.889,6.975C122.378,134.371,108.858,122.568,108.858,102.396z M147.808,95.529
		c0-6.116-2.682-10.623-9.657-10.623c-5.258,0-9.872,3.326-11.159,10.623H147.808z"/>
	<path fill="#FFFFFF" d="M176.244,71.815h15.559l1.288,10.623h0.429c4.506-8.155,11.266-12.125,17.383-12.125
		c3.648,0,5.687,0.536,7.403,1.287l-3.22,16.417c-2.145-0.536-3.969-0.966-6.652-0.966c-4.507,0-9.979,2.897-13.198,10.945v34.872
		h-18.992V71.815z"/>
	<path fill="#FFFFFF" d="M224.637,53.574c0-5.794,4.508-9.871,10.945-9.871c6.33,0,10.838,4.077,10.838,9.871
		c0,5.688-4.508,9.765-10.838,9.765C229.145,63.339,224.637,59.262,224.637,53.574z M226.032,71.815h18.991v61.054h-18.991V71.815z"
		/>
	<path fill="#FFFFFF" d="M257.043,102.396c0-19.851,14.164-32.083,28.971-32.083c17.598,0,26.182,12.769,26.182,29.507
		c0,3.327-0.43,6.761-0.857,8.155H275.5c1.717,8.369,7.51,11.803,15.236,11.803c4.398,0,8.477-1.287,12.875-3.862l6.33,11.48
		c-6.33,4.507-14.699,6.975-21.889,6.975C270.563,134.371,257.043,122.568,257.043,102.396z M295.994,95.529
		c0-6.116-2.684-10.623-9.658-10.623c-5.258,0-9.871,3.326-11.158,10.623H295.994z"/>
	<path fill="#FFFFFF" d="M319.172,125.787l8.477-11.91c5.58,4.292,10.623,6.438,15.451,6.438c5.043,0,7.189-1.824,7.189-4.829
		c0-3.648-5.902-5.365-12.125-7.833c-7.297-2.896-15.881-7.833-15.881-17.919c0-11.588,9.443-19.421,23.605-19.421
		c9.658,0,16.525,3.862,21.891,7.833l-8.584,11.373c-4.293-3.004-8.584-5.15-12.662-5.15c-4.293,0-6.438,1.503-6.438,4.399
		c0,3.648,5.578,5.044,11.91,7.297c7.617,2.897,16.094,7.296,16.094,18.349c0,11.266-8.799,19.957-25.43,19.957
		C334.731,134.371,325.287,130.938,319.172,125.787z"/>
</g>
<g enable-background="new    ">
	<path fill="#FFFFFF" d="M96.363,183.346H85.335v9.304h-2.17v-9.304H72.256v-1.813h24.106V183.346z M93.301,177.936H75.615v-10.225
		h17.299v1.813h-15.1v6.599h15.486V177.936z"/>
	<path fill="#FFFFFF" d="M123.646,187.091v1.813H99.629v-1.813h9.482v-9.571h2.17v9.571H123.646z M118.504,170.713h-16.289v-1.813
		h18.459v2.675c0,3.24,0,6.896-0.981,12.188l-2.17-0.298c0.981-5.022,0.981-8.738,0.981-11.89V170.713z"/>
	<path fill="#FFFFFF" d="M151.048,183.346H140.02v9.304h-2.17v-9.304h-10.909v-1.813h24.106V183.346z M147.987,177.936h-17.686
		v-10.225H147.6v1.813h-15.1v6.599h15.486V177.936z"/>
	<path fill="#FFFFFF" d="M178.332,187.091v1.813h-24.017v-1.813h9.482v-9.571h2.17v9.571H178.332z M173.19,170.713h-16.289v-1.813
		h18.459v2.675c0,3.24,0,6.896-0.981,12.188l-2.17-0.298c0.981-5.022,0.981-8.738,0.981-11.89V170.713z"/>
	<path fill="#FFFFFF" d="M212.362,187.447v1.813h-24.106v-1.813h10.938v-6.629h-8.025v-12.424h18.191v12.424h-7.996v6.629H212.362z
		 M193.249,179.065h14.03v-8.918h-14.03V179.065z"/>
	<path fill="#FFFFFF" d="M229.301,177.46c0,5.618-2.765,9.244-6.629,9.244c-3.894,0-6.629-3.626-6.629-9.244
		s2.735-9.215,6.629-9.215C226.536,168.245,229.301,171.842,229.301,177.46z M227.22,177.46c0-4.369-1.872-7.282-4.548-7.282
		c-2.675,0-4.577,2.913-4.577,7.282c0,4.399,1.902,7.313,4.577,7.313C225.348,184.772,227.22,181.859,227.22,177.46z
		 M240.418,178.708h-4.459v14.03h-2.17v-26.573h2.17v10.7h4.459V178.708z"/>
	<path fill="#FFFFFF" d="M266.988,178.024v1.784h-24.047v-1.784h10.909v-2.704h-7.699v-8.77h2.141v2.616h13.375v-2.616h2.141v8.77
		h-7.787v2.704H266.988z M248.083,190.688h16.586v1.724h-18.696v-6.094h15.754v-2.496h-15.844v-1.694h17.983v5.796h-15.783V190.688z
		 M248.291,173.596h13.375v-2.734h-13.375V173.596z"/>
	<path fill="#FFFFFF" d="M273.286,184.445c3.12,0,6.034-0.148,9.542-0.743l0.178,1.783c-3.715,0.654-6.777,0.773-10.076,0.773
		h-1.725v-9.81h7.758v-5.559h-7.847v-1.813h9.958v9.185h-7.788V184.445z M292.785,166.135v26.574h-2.08V178.53h-3.984v12.811h-2.051
		v-24.611h2.051v9.987h3.984v-10.582H292.785z"/>
	<path fill="#FFFFFF" d="M321.762,187.447v1.813h-24.166v-1.813h6.035v-7.282c-2.26-1.159-3.627-3.062-3.627-5.47
		c0-4.131,4.014-6.807,9.631-6.807s9.602,2.676,9.602,6.807c0,2.408-1.338,4.28-3.568,5.47v7.282H321.762z M309.635,179.719
		c4.369,0,7.549-2.021,7.549-5.023c0-3.031-3.18-5.053-7.549-5.053s-7.551,2.021-7.551,5.053
		C302.084,177.698,305.266,179.719,309.635,179.719z M305.801,187.447h7.729v-6.45c-1.16,0.298-2.498,0.476-3.895,0.476
		c-1.367,0-2.676-0.178-3.834-0.445V187.447z"/>
	<path fill="#FFFFFF" d="M324.94,194.641c1.754-0.832,2.854-2.229,2.883-4.043c-0.119,0.03-0.238,0.03-0.357,0.03
		c-0.98,0-1.842-0.624-1.842-1.783c0-1.101,0.891-1.754,1.873-1.754c1.336,0,2.17,1.129,2.17,3.002c0,2.734-1.635,4.875-4.104,5.975
		L324.94,194.641z"/>
</g>
<g enable-background="new    ">
	<path fill="#FFFFFF" d="M82.541,214.772c0,5.083,2.17,10.077,6.807,12.068l-2.229,3.181c-3.151-1.427-5.261-4.132-6.48-7.49
		c-1.219,3.655-3.448,6.599-6.718,8.144l-2.348-3.239c4.786-2.051,7.044-7.342,7.044-12.663v-3.982h3.924V214.772z M94.609,208.649
		v27.465h-3.923v-27.465H94.609z"/>
	<path fill="#FFFFFF" d="M104.741,226.514c4.161-0.029,7.609-0.237,11.473-0.892l0.417,3.181c-4.459,0.772-8.472,0.951-13.436,0.951
		h-2.467v-11.266h8.888v-4.369h-8.917v-3.121h12.93v10.582h-8.887V226.514z M122.041,208.649v27.465h-3.924v-27.465H122.041z"/>
	<path fill="#FFFFFF" d="M151.405,229.605v3.181h-24.79v-3.181H151.405z M127.595,222.531c6.034-0.951,9.274-4.667,9.304-8.442
		h-8.233v-3.091h20.628v3.091h-8.233c0.03,3.775,3.27,7.401,9.452,8.323l-1.486,3.091c-4.815-0.832-8.293-3.18-10.017-6.36
		c-1.724,3.239-5.142,5.647-9.898,6.509L127.595,222.531z"/>
	<path fill="#FFFFFF" d="M173.575,221.461c-1.308,1.308-3.181,2.08-5.321,2.08c-4.042,0-7.193-2.823-7.193-6.688
		c0-3.894,3.151-6.718,7.193-6.718c2.2,0,4.072,0.803,5.38,2.11h6.034v-3.566h3.923v16.051h-3.923v-3.27H173.575z M168.254,220.242
		c2.021,0,3.507-1.278,3.507-3.389c0-2.14-1.486-3.389-3.507-3.389c-2.021,0-3.478,1.249-3.478,3.389
		C164.776,218.964,166.233,220.242,168.254,220.242z M183.711,230.675c0,3.389-3.597,5.41-9.393,5.41
		c-5.766,0-9.363-2.021-9.363-5.41c0-3.418,3.597-5.409,9.363-5.409C180.114,225.266,183.711,227.257,183.711,230.675z
		 M179.846,230.675c0-1.604-1.932-2.378-5.529-2.378c-3.596,0-5.499,0.773-5.499,2.378c0,1.605,1.902,2.378,5.499,2.378
		C177.914,233.053,179.846,232.28,179.846,230.675z M175.328,215.367c0.089,0.476,0.149,0.951,0.149,1.486
		c0,0.505-0.06,0.98-0.179,1.486h4.37v-2.973H175.328z"/>
	<path fill="#FFFFFF" d="M198.302,228.119c2.111-0.119,4.221-0.268,6.183-0.565l0.297,2.824c-5.766,1.13-11.919,1.13-16.556,1.13
		l-0.476-3.181c1.962,0,4.221,0,6.628-0.06v-2.318c-2.854-0.564-4.726-2.438-4.726-4.935c0-3.091,2.764-5.172,6.688-5.172
		c3.923,0,6.688,2.081,6.688,5.172c0,2.497-1.873,4.37-4.727,4.935V228.119z M204.365,214.772h-16.11v-3.091h6.123v-2.884h3.923
		v2.884h6.064V214.772z M196.34,223.215c1.783,0,2.972-0.773,2.972-2.2s-1.189-2.199-2.972-2.199c-1.784,0-2.973,0.772-2.973,2.199
		S194.556,223.215,196.34,223.215z M213.223,223.065h-3.418v12.99h-3.923V208.68h3.923v11.146h3.418V223.065z"/>
</g>
<g enable-background="new    ">
	<path fill="#FFFFFF" d="M231.291,221.847c-3.953,0-6.807-2.407-6.807-5.915c0-3.447,2.854-5.885,6.807-5.885
		c3.982,0,6.836,2.438,6.836,5.885C238.127,219.439,235.274,221.847,231.291,221.847z M231.291,220.063
		c2.734,0,4.727-1.724,4.727-4.132c0-2.348-1.992-4.102-4.727-4.102c-2.705,0-4.696,1.754-4.696,4.102
		C226.595,218.34,228.586,220.063,231.291,220.063z M229.953,233.499H245.5v1.783h-17.687v-6.628h14.565v-2.943h-14.625v-1.753
		h16.734v6.36h-14.535V233.499z M248.472,214.922v1.813h-3.983v5.945h-2.17v-13.614h2.17v5.856H248.472z"/>
	<path fill="#FFFFFF" d="M254.413,227.613c4.013,0,7.401-0.148,11.474-0.802l0.178,1.813c-4.221,0.654-7.639,0.803-11.83,0.803
		h-1.961v-10.344h9.333v-5.767h-9.394v-1.813h11.533v9.393h-9.333V227.613z M273.08,209.036v26.633h-2.17v-11.354h-5.618v-1.813
		h5.618v-5.469h-5.439v-1.813h5.439v-6.183H273.08z"/>
	<path fill="#FFFFFF" d="M302.653,226.098h-10.969v9.542h-2.17v-9.542h-10.879v-1.813h24.018V226.098z M280.092,220.183
		c4.458-0.654,9.333-3.716,9.333-7.342v-0.268h-8.501v-1.813h19.38v1.813h-8.442v0.268c0,3.626,4.875,6.688,9.305,7.342
		l-0.832,1.724c-3.983-0.713-8.115-2.942-9.721-6.212c-1.575,3.27-5.707,5.499-9.689,6.212L280.092,220.183z"/>
	<path fill="#FFFFFF" d="M313.707,216.734c0,4.191,2.17,8.769,5.617,10.85l-1.248,1.664c-2.557-1.545-4.43-4.429-5.381-7.698
		c-0.951,3.597-2.942,6.658-5.646,8.293l-1.368-1.635c3.597-2.11,5.944-6.866,5.944-11.414v-5.201h2.082V216.734z M321.019,209.69
		h2.051v24.611h-2.051V220.51h-4.577v-1.813h4.577V209.69z M328.479,209.065v26.574h-2.08v-26.574H328.479z"/>
	<path fill="#FFFFFF" d="M357.428,230.378v1.813h-24.166v-1.813h6.033v-7.282c-2.258-1.159-3.626-3.062-3.626-5.47
		c0-4.131,4.013-6.807,9.631-6.807s9.601,2.676,9.601,6.807c0,2.408-1.338,4.28-3.566,5.47v7.282H357.428z M345.3,222.649
		c4.369,0,7.55-2.021,7.55-5.023c0-3.031-3.181-5.053-7.55-5.053c-4.37,0-7.55,2.021-7.55,5.053
		C337.75,220.629,340.93,222.649,345.3,222.649z M341.465,230.378h7.729v-6.45c-1.159,0.298-2.496,0.476-3.894,0.476
		c-1.368,0-2.675-0.178-3.835-0.445V230.378z"/>
	<path fill="#FFFFFF" d="M361.883,231.983c0-1.189,0.832-1.962,1.813-1.962s1.844,0.772,1.844,1.962
		c0,1.129-0.863,1.902-1.844,1.902S361.883,233.112,361.883,231.983z M362.536,214.208l-0.06-2.913h2.438l-0.059,2.913
		l-0.328,12.871h-1.664L362.536,214.208z"/>
</g>
<g>
	<g>
		<polygon fill="#352D2A" points="226.374,596.82 207.964,582.236 272.088,521.588 290.502,536.173 		"/>
		<polygon fill="#352D2A" points="369.587,531.067 294.693,500.204 305.421,480.696 380.317,511.563 		"/>
	</g>
	<polygon fill="#443B36" points="96.069,543.693 90.772,522.58 196.321,502.74 281.986,517.977 375.031,510.457 458.186,518.141 
		455.534,539.625 374.865,532.171 280.606,539.788 196.466,524.822 	"/>
	<path fill="#80B53A" d="M85.119,488.799c-17.958-15.544-51.773-11.48-51.773-11.48s-4.694,29.268,13.268,44.812
		c5.589,4.837,12.711,7.773,19.87,9.527c-7.159,1.754-14.281,4.689-19.87,9.527c-17.962,15.544-13.268,44.812-13.268,44.812
		s33.815,4.063,51.773-11.482c15.175-13.133,14.179-36.057,13.506-42.855C99.298,524.859,100.294,501.933,85.119,488.799z"/>
	<path fill="#6D9133" d="M66.48,531.657c-7.159,1.754-14.28,4.688-19.867,9.526c-17.964,15.544-13.269,44.813-13.269,44.813
		s33.816,4.063,51.774-11.483c15.175-13.132,14.176-36.057,13.506-42.855H66.48L66.48,531.657z"/>
	<path fill="#80B53A" d="M173.813,564.22c-25.401,0-45.993,23.567-45.993,23.567s20.592,23.565,45.993,23.565
		c7.9,0,15.339-2.28,21.833-5.423c-3.631,5.621-6.267,12.06-6.267,18.898c0,21.982,27.23,39.806,27.23,39.806
		s27.229-17.821,27.229-39.806c0-18.573-19.435-34.174-25.466-38.57C213.295,581.04,195.271,564.22,173.813,564.22z"/>
	<path fill="#6D9133" d="M195.646,605.931c-3.631,5.624-6.267,12.061-6.267,18.898c0,21.984,27.23,39.806,27.23,39.806
		s27.229-17.82,27.229-39.806c0-18.573-19.434-34.174-25.466-38.568L195.646,605.931z"/>
</g>
<g>
	<g>
		<path fill="#EBAF4B" d="M182.396,499.087c-2.179,0-3.941,1.764-3.941,3.942v0.63c0,2.034-1.586,3.76-3.616,3.931l-34.904,2.908
			c-4.721,0.393-8.74,3.551-10.238,8.046l-2.299,6.896c-0.688,2.066,0.429,4.302,2.491,4.989c0.416,0.141,0.836,0.205,1.247,0.205
			c1.652,0,3.188-1.048,3.739-2.699l2.299-6.896c0.5-1.498,1.842-2.552,3.416-2.683l2.376-0.198v8.53
			c0,2.177,1.764,3.941,3.943,3.941c2.179,0,3.941-1.766,3.941-3.941v-9.187l4.488-0.376l3.603,10.811
			c0.552,1.651,2.087,2.696,3.738,2.696c0.413,0,0.833-0.064,1.248-0.205c2.064-0.688,3.182-2.923,2.492-4.986l-2.996-8.988
			l12.066-1.006c6.086-0.506,10.85-5.685,10.85-11.789v-0.63C186.34,500.851,184.577,499.087,182.396,499.087z"/>
		<path fill="#EBAF4B" d="M237.604,499.087c2.179,0,3.941,1.764,3.941,3.942v0.63c0,2.034,1.587,3.76,3.616,3.931l34.904,2.908
			c4.721,0.393,8.74,3.551,10.238,8.046l2.299,6.896c0.689,2.066-0.429,4.302-2.492,4.989c-0.416,0.141-0.836,0.205-1.246,0.205
			c-1.652,0-3.188-1.048-3.739-2.699l-2.299-6.896c-0.5-1.498-1.842-2.552-3.416-2.683l-2.376-0.198v8.53
			c0,2.177-1.764,3.941-3.943,3.941c-2.179,0-3.942-1.766-3.942-3.941v-9.187l-4.487-0.376l-3.604,10.811
			c-0.551,1.651-2.087,2.696-3.738,2.696c-0.412,0-0.833-0.064-1.248-0.205c-2.063-0.688-3.182-2.923-2.49-4.986l2.995-8.988
			l-12.067-1.006c-6.086-0.506-10.849-5.685-10.849-11.789v-0.63C233.659,500.851,235.422,499.087,237.604,499.087z"/>
	</g>
	<ellipse fill="#824D51" cx="210" cy="418.25" rx="94.639" ry="96.609"/>
	<ellipse fill="#C0826C" cx="210" cy="422.194" rx="63.091" ry="84.78"/>
	<path fill="#965A50" d="M316.469,349.243l-12.549,12.545c0.454-2.822,0.718-5.688,0.718-8.603c0-39.201-42.37-70.979-94.638-70.979
		c-52.269,0-94.64,31.778-94.64,70.979c0,2.912,0.264,5.779,0.719,8.603l-12.549-12.545c0,0-14.263,35.655-15.661,59.499
		c-0.114,1.947,1.42,3.592,3.367,3.592h8.353v8.72c0,1.78,1.38,3.25,3.153,3.369c9.208,0.615,37.197,1.5,65.652-7.479
		c-1.77-0.668,41.605-20.383,41.605-20.383s39.433,19.717,41.604,20.383c28.454,8.978,56.445,8.094,65.652,7.479
		c1.773-0.119,3.152-1.589,3.152-3.369v-8.72h8.353c1.949,0,3.481-1.646,3.369-3.592
		C330.73,384.898,316.469,349.243,316.469,349.243z"/>
	<path fill="#AF6E5A" d="M303.581,312.622c13.414-7.522,18.165-18.027,19.85-24.517c0.645-2.485-1.762-4.602-4.186-3.751
		c-30.252,10.62-79.521-4.696-104.241,37.181c-2.271,3.842-7.738,3.842-10.007,0c-24.725-41.877-73.991-26.562-104.244-37.181
		c-2.423-0.85-4.829,1.267-4.184,3.751c1.685,6.489,6.437,16.995,19.848,24.518c2.318,1.3,2.779,4.407,0.884,6.27
		c-12.428,12.205-19.499,29.84-17.32,49.075c3.042,26.859,24.65,48.621,51.49,51.819c24.912,2.968,47.199-9.573,58.529-29.229
		c11.331,19.654,33.619,32.195,58.529,29.229c26.841-3.198,48.449-24.96,51.489-51.819c2.178-19.235-4.894-36.87-17.319-49.075
		C300.803,317.029,301.264,313.922,303.581,312.622z"/>
	<circle fill="#EBAF4B" cx="158.738" cy="361.072" r="39.433"/>
	<circle fill="#FFC850" cx="158.738" cy="361.072" r="27.604"/>
	<path fill="#EBAF4B" d="M212.584,421.215l7.836-20.896c0.857-2.287,0.3-4.865-1.428-6.594l-3.416-3.416
		c-3.08-3.08-8.072-3.08-11.152,0l-3.417,3.416c-1.729,1.729-2.286,4.307-1.428,6.594l7.836,20.896
		C208.311,423.604,211.688,423.604,212.584,421.215z"/>
	<path fill="#4B3F4E" d="M158.738,380.789L158.738,380.789c-8.712,0-15.773-7.063-15.773-15.773v-7.888
		c0-8.711,7.063-15.771,15.773-15.771l0,0c8.711,0,15.772,7.061,15.772,15.771v7.888
		C174.511,373.727,167.448,380.789,158.738,380.789z"/>
	<circle fill="#FFFFFF" cx="160.707" cy="355.158" r="5.915"/>
	<circle fill="#EBAF4B" cx="261.262" cy="361.072" r="39.433"/>
	<circle fill="#FFC850" cx="261.262" cy="361.072" r="27.604"/>
	<path fill="#4B3F4E" d="M261.262,380.789L261.262,380.789c-8.711,0-15.773-7.063-15.773-15.773v-7.888
		c0-8.711,7.063-15.771,15.773-15.771l0,0c8.711,0,15.773,7.061,15.773,15.771v7.888
		C277.035,373.727,269.973,380.789,261.262,380.789z"/>
	<circle fill="#FFFFFF" cx="263.231" cy="355.158" r="5.915"/>
</g>
</svg>
