<?xml version="1.0" encoding="utf-8"?>
<!-- Generator: Adobe Illustrator 16.0.0, SVG Export Plug-In . SVG Version: 6.00 Build 0)  -->
<!DOCTYPE svg PUBLIC "-//W3C//DTD SVG 1.1//EN" "http://www.w3.org/Graphics/SVG/1.1/DTD/svg11.dtd">
<svg version="1.1" id="레이어_1" xmlns="http://www.w3.org/2000/svg" xmlns:xlink="http://www.w3.org/1999/xlink" x="0px"
	 y="0px" width="416px" height="624px" viewBox="0 0 416 624" enable-background="new 0 0 416 624" xml:space="preserve">
<rect x="-42" y="-49" fill="#1E1F26" width="505" height="697"/>
<g enable-background="new    ">
	<path fill="#441DB2" d="M44.145,115.076l9.834-11.977c5.16,4.382,11.878,7.4,17.623,7.4c6.426,0,9.445-2.435,9.445-6.329
		c0-4.187-3.992-5.55-10.225-8.179l-9.25-3.895c-7.595-3.019-14.702-9.348-14.702-19.863c0-12.171,10.904-21.907,26.289-21.907
		c8.374,0,17.233,3.213,23.563,9.542l-8.666,10.905c-4.771-3.603-9.25-5.55-14.896-5.55c-5.355,0-8.666,2.142-8.666,6.036
		c0,3.992,4.575,5.55,11.002,8.082l9.055,3.603c8.958,3.603,14.313,9.639,14.313,19.862c0,12.073-10.126,22.687-27.651,22.687
		C61.768,125.494,51.642,121.989,44.145,115.076z"/>
	<path fill="#441DB2" d="M108.312,52.177c0-5.258,4.089-8.957,9.932-8.957c5.744,0,9.834,3.699,9.834,8.957
		c0,5.161-4.09,8.86-9.834,8.86C112.402,61.037,108.312,57.338,108.312,52.177z M109.578,68.729h17.233v55.401h-17.233V68.729z"/>
	<path fill="#441DB2" d="M140.834,68.729h14.118l1.168,7.011h0.39c4.576-4.576,9.347-8.374,16.844-8.374
		c7.692,0,12.366,3.213,15.189,9.152c4.771-4.868,9.932-9.152,17.332-9.152c12.072,0,17.331,8.666,17.331,22.491v34.273h-17.331V92
		c0-7.595-1.948-9.834-6.329-9.834c-2.531,0-5.55,1.558-8.86,4.966v36.999h-17.428V92c0-7.595-1.948-9.834-6.329-9.834
		c-2.531,0-5.55,1.558-8.86,4.966v36.999h-17.233L140.834,68.729L140.834,68.729z"/>
	<path fill="#441DB2" d="M235.479,52.177c0-5.258,4.09-8.957,9.933-8.957c5.743,0,9.834,3.699,9.834,8.957
		c0,5.161-4.091,8.86-9.834,8.86C239.569,61.037,235.479,57.338,235.479,52.177z M236.744,68.729h17.233v55.401h-17.233V68.729z"/>
	<path fill="#441DB2" d="M268.002,106.118V46.335h17.231V106.8c0,3.603,1.754,4.674,3.117,4.674c0.584,0,0.974,0,1.947-0.195
		l2.043,12.755c-1.85,0.779-4.771,1.461-8.566,1.461C271.897,125.494,268.002,117.705,268.002,106.118z"/>
	<path fill="#441DB2" d="M297.893,108.649c0-11.684,9.152-18.013,30.768-20.35c-0.389-4.479-2.725-7.107-8.373-7.107
		c-4.381,0-8.957,1.753-14.508,4.868l-6.037-11.392c7.304-4.382,15.189-7.303,23.855-7.303c14.313,0,22.395,7.984,22.395,25.315
		v31.449h-14.118l-1.267-5.55h-0.389c-4.576,4.089-9.736,6.913-15.871,6.913C304.125,125.494,297.893,117.899,297.893,108.649z
		 M328.659,107.676v-8.86c-10.807,1.461-14.313,4.576-14.313,8.471c0,3.214,2.338,4.771,5.938,4.771
		C323.793,112.058,326.129,110.402,328.659,107.676z"/>
	<path fill="#441DB2" d="M359.334,68.729h14.118l1.168,9.64h0.39c4.09-7.4,10.225-11.003,15.772-11.003
		c3.312,0,5.16,0.487,6.72,1.169l-2.923,14.896c-1.946-0.486-3.602-0.876-6.034-0.876c-4.091,0-9.058,2.629-11.978,9.931v31.645
		h-17.233V68.729z"/>
</g>
<g enable-background="new    ">
	<path fill="#FFFFFF" d="M34.797,115.076l9.834-11.977c5.16,4.382,11.878,7.4,17.623,7.4c6.426,0,9.445-2.435,9.445-6.329
		c0-4.187-3.992-5.55-10.225-8.179l-9.25-3.895c-7.595-3.019-14.703-9.348-14.703-19.863c0-12.171,10.905-21.907,26.289-21.907
		c8.374,0,17.234,3.213,23.563,9.542l-8.666,10.905c-4.771-3.603-9.25-5.55-14.897-5.55c-5.354,0-8.666,2.142-8.666,6.036
		c0,3.992,4.576,5.55,11.002,8.082l9.056,3.603c8.958,3.603,14.313,9.639,14.313,19.862c0,12.073-10.126,22.687-27.652,22.687
		C52.42,125.494,42.294,121.989,34.797,115.076z"/>
	<path fill="#FFFFFF" d="M98.965,52.177c0-5.258,4.089-8.957,9.931-8.957c5.745,0,9.834,3.699,9.834,8.957
		c0,5.161-4.089,8.86-9.834,8.86C103.054,61.037,98.965,57.338,98.965,52.177z M100.23,68.729h17.234v55.401H100.23V68.729z"/>
	<path fill="#FFFFFF" d="M131.487,68.729h14.118l1.168,7.011h0.391c4.575-4.576,9.347-8.374,16.844-8.374
		c7.692,0,12.366,3.213,15.188,9.152c4.771-4.868,9.933-9.152,17.332-9.152c12.073,0,17.331,8.666,17.331,22.491v34.273h-17.331V92
		c0-7.595-1.947-9.834-6.328-9.834c-2.531,0-5.551,1.558-8.86,4.966v36.999H163.91V92c0-7.595-1.948-9.834-6.329-9.834
		c-2.531,0-5.551,1.558-8.86,4.966v36.999h-17.234V68.729L131.487,68.729z"/>
	<path fill="#FFFFFF" d="M226.131,52.177c0-5.258,4.09-8.957,9.932-8.957c5.744,0,9.834,3.699,9.834,8.957
		c0,5.161-4.09,8.86-9.834,8.86C230.221,61.037,226.131,57.338,226.131,52.177z M227.397,68.729h17.234v55.401h-17.234V68.729z"/>
	<path fill="#FFFFFF" d="M258.655,106.118V46.335h17.232V106.8c0,3.603,1.754,4.674,3.117,4.674c0.584,0,0.973,0,1.947-0.195
		l2.043,12.755c-1.851,0.779-4.771,1.461-8.566,1.461C262.549,125.494,258.655,117.705,258.655,106.118z"/>
	<path fill="#FFFFFF" d="M288.545,108.649c0-11.684,9.151-18.013,30.768-20.35c-0.389-4.479-2.725-7.107-8.373-7.107
		c-4.381,0-8.957,1.753-14.508,4.868l-6.037-11.392c7.303-4.382,15.189-7.303,23.855-7.303c14.313,0,22.395,7.984,22.395,25.315
		v31.449h-14.119l-1.266-5.55h-0.39c-4.575,4.089-9.735,6.913-15.87,6.913C294.778,125.494,288.545,117.899,288.545,108.649z
		 M319.313,107.676v-8.86c-10.807,1.461-14.313,4.576-14.313,8.471c0,3.214,2.338,4.771,5.938,4.771
		C314.446,112.058,316.781,110.402,319.313,107.676z"/>
	<path fill="#FFFFFF" d="M349.987,68.729h14.119l1.168,9.64h0.389c4.091-7.4,10.226-11.003,15.773-11.003
		c3.311,0,5.16,0.487,6.719,1.169l-2.922,14.896c-1.947-0.486-3.602-0.876-6.035-0.876c-4.09,0-9.057,2.629-11.977,9.931v31.645
		h-17.234V68.729z"/>
</g>
<g>
	<path fill="#00CB75" d="M292.309,554.463c-27.34,57.896-92.866,89.917-156.998,72.989c-36.17-9.547-65.039-32.853-82.48-62.805
		c-17.445-29.955-23.466-66.563-13.918-102.733c16.928-64.131,77.115-105.327,140.962-100.525L292.309,554.463z"/>
	<path fill="#00AB5E" d="M292.309,554.463c-27.34,57.896-92.866,89.917-156.998,72.989c-36.17-9.547-65.039-32.853-82.48-62.805
		l183.263-106.725L292.309,554.463z"/>
	<path fill="#FFDE46" d="M433.272,453.936c-16.928,64.133-77.117,105.327-140.964,100.527L179.872,361.389
		c27.34-57.896,92.866-89.917,156.996-72.992c36.169,9.547,65.038,32.849,82.483,62.805
		C436.8,381.156,442.818,417.768,433.272,453.936L433.272,453.936z"/>
	<path fill="#FEBF01" d="M433.272,453.936c-16.928,64.133-77.117,105.327-140.964,100.527l-56.218-96.538l183.263-106.723
		C436.8,381.156,442.818,417.768,433.272,453.936z"/>
	<path fill="#BEE75E" d="M300.842,531.05c-2.164,8.2-5.039,16.017-8.533,23.413c-8.158-0.613-16.372-1.969-24.574-4.135
		c-36.16-9.545-65.038-32.842-82.475-62.802c-0.798-1.36-1.563-2.729-2.309-4.11c-2.284-4.258,3.857-10.475,3.857-10.475
		s-13.188-11.013-14.461-15.311c-3.273-11.099-5.158-22.688-5.471-34.503c-0.104-3.739,10.188-8.631,10.188-8.631
		s-9.444-10.218-8.902-14.015c0.742-5.219,1.795-10.457,3.176-15.687c2.164-8.2,5.038-16.015,8.531-23.411
		c8.157,0.611,16.374,1.967,24.571,4.131c36.17,9.549,65.038,32.854,82.479,62.807c0.798,1.358,1.57,2.732,2.313,4.119
		c2.198,4.089-4.074,9.953-4.074,9.953s13.354,11.349,14.677,15.825c3.272,11.104,5.15,22.689,5.465,34.501
		c0.108,3.737-10.191,8.637-10.191,8.637s9.448,10.208,8.903,14.01C303.271,520.59,302.221,525.828,300.842,531.05L300.842,531.05z"
		/>
	<path fill="#00CB75" d="M300.842,531.05c-2.164,8.2-5.039,16.017-8.533,23.413c-8.158-0.613-16.372-1.969-24.574-4.135
		c-36.16-9.545-65.038-32.842-82.475-62.802l101.662-59.202c0.798,1.358,1.57,2.732,2.313,4.119
		c2.198,4.089-4.074,9.955-4.074,9.955s13.354,11.347,14.677,15.823c3.272,11.104,5.15,22.689,5.465,34.501
		c0.108,3.737-10.191,8.637-10.191,8.637s9.448,10.208,8.903,14.01C303.271,520.59,302.221,525.828,300.842,531.05L300.842,531.05z"
		/>
	<path fill="#F5FBFF" d="M299.837,458.224L166.879,423.13c-0.211-7.478,0.208-15.044,1.286-22.644l121.069,31.957
		C293.627,440.627,297.184,449.265,299.837,458.224z"/>
	<path fill="#F5FBFF" d="M304.014,515.369l-121.063-31.953c-4.391-8.185-7.954-16.826-10.604-25.783L305.3,492.725
		C305.512,500.205,305.093,507.771,304.014,515.369z"/>
	<g>
		<path fill="#CBE1FA" d="M299.837,458.224l-44.219-11.672l27.154-15.813l6.462,1.706
			C293.627,440.627,297.184,449.265,299.837,458.224z"/>
		<path fill="#CBE1FA" d="M304.014,515.369l-114.617-30.253l27.159-15.815l88.746,23.424
			C305.512,500.205,305.093,507.771,304.014,515.369z"/>
	</g>
</g>
<g>
	<path fill="#FFFFFF" d="M52.3,182.536c2.677-0.181,5.318-0.398,7.851-0.796l0.29,3.473c-7.164,1.447-15.014,1.483-20.73,1.52
		l-0.615-3.871c2.46,0,5.354,0,8.394-0.108v-5.065H52.3V182.536z M39.818,175.011c4.957-1.303,7.308-4.414,7.634-7.742h-6.657
		v-3.799h6.693v-3.618H52.3v3.618h6.765v3.799h-6.729c0.326,3.184,2.75,6.187,7.633,7.453l-2.098,3.618
		c-3.835-0.977-6.44-3.111-7.923-5.861c-1.483,2.895-4.125,5.137-7.996,6.187L39.818,175.011z M66.735,159.526v33.429h-4.775
		v-33.429H66.735z"/>
	<path fill="#FFFFFF" d="M102.4,174.323v3.799H72.227v-3.799h21.128c0.724-3.69,0.832-6.512,0.832-9.117H75.954v-3.799h22.937v2.895
		c0,2.822,0,5.969-0.76,10.021H102.4z M80.802,188.505h18.994v3.799H76.026v-11.288h4.775V188.505z"/>
	<path fill="#FFFFFF" d="M122.798,160.105h4.45v31.294h-4.45v-15.701h-2.605c-0.434,6.512-3.147,10.419-7.2,10.419
		c-4.414,0-7.199-4.559-7.199-12.12c0-7.525,2.786-12.083,7.199-12.083c3.944,0,6.621,3.69,7.164,9.913h2.641V160.105z
		 M115.888,173.998c0-5.101-1.049-7.598-2.895-7.598c-1.809,0-2.894,2.497-2.894,7.598c0,5.137,1.085,7.634,2.894,7.634
		C114.839,181.631,115.888,179.135,115.888,173.998z M134.086,159.526v33.32h-4.522v-33.32H134.086z"/>
	<path fill="#FFFFFF" d="M148.73,163h8.791c5.934,0,10.492,2.062,10.492,8.393c0,6.114-4.595,8.864-10.347,8.864h-3.582v9.515
		h-5.354V163z M157.304,176.023c3.69,0,5.463-1.556,5.463-4.631c0-3.111-1.954-4.16-5.644-4.16h-3.039v8.791H157.304z"/>
	<path fill="#FFFFFF" d="M172.856,163h5.354v26.772h-5.354V163z"/>
	<path fill="#FFFFFF" d="M183.453,176.494c0-8.828,5.68-14.001,12.445-14.001c3.401,0,6.114,1.628,7.851,3.437l-2.822,3.401
		c-1.338-1.302-2.894-2.243-4.92-2.243c-4.052,0-7.091,3.473-7.091,9.226c0,5.825,2.75,9.334,6.982,9.334
		c2.279,0,4.088-1.085,5.536-2.641l2.822,3.329c-2.207,2.569-5.065,3.943-8.538,3.943
		C188.952,190.278,183.453,185.43,183.453,176.494z"/>
	<path fill="#FFFFFF" d="M208.557,163h5.354v11.613h0.108L222.883,163h5.896l-8.176,10.528l9.623,16.244h-5.896l-6.91-12.011
		l-3.51,4.486v7.525h-5.354V163z"/>
	<path fill="#FFFFFF" d="M251.241,166.798h-19.608v-3.726h7.381v-3.545h4.812v3.545h7.452L251.241,166.798z M241.438,180.835
		c-4.775,0-8.177-2.605-8.177-6.44c0-3.763,3.401-6.403,8.177-6.403s8.176,2.641,8.176,6.403
		C249.614,178.23,246.213,180.835,241.438,180.835z M241.148,188.505h17.909v3.799h-22.685v-9.66h4.775V188.505z M241.438,177.217
		c2.098,0,3.617-0.977,3.617-2.822c0-1.809-1.52-2.786-3.617-2.786c-2.135,0-3.618,0.977-3.618,2.786
		C237.82,176.241,239.303,177.217,241.438,177.217z M262.277,169.729v3.943h-4.414v10.817h-4.775v-24.927h4.775v10.166H262.277z"/>
	<path fill="#FFFFFF" d="M288.785,175.119c-1.592,1.592-3.871,2.533-6.476,2.533c-4.92,0-8.755-3.437-8.755-8.14
		c0-4.74,3.835-8.177,8.755-8.177c2.677,0,4.956,0.977,6.548,2.569h7.345v-4.341h4.775v19.536h-4.775v-3.979H288.785z
		 M282.31,173.636c2.46,0,4.269-1.556,4.269-4.124c0-2.605-1.809-4.125-4.269-4.125s-4.233,1.52-4.233,4.125
		C278.076,172.08,279.85,173.636,282.31,173.636z M301.122,186.334c0,4.125-4.377,6.584-11.433,6.584
		c-7.019,0-11.396-2.46-11.396-6.584c0-4.161,4.377-6.584,11.396-6.584C296.745,179.75,301.122,182.174,301.122,186.334z
		 M296.419,186.334c0-1.954-2.352-2.894-6.729-2.894c-4.377,0-6.692,0.94-6.692,2.894s2.315,2.895,6.692,2.895
		C294.068,189.229,296.419,188.288,296.419,186.334z M290.92,167.703c0.108,0.579,0.181,1.158,0.181,1.809
		c0,0.615-0.072,1.194-0.217,1.809h5.318v-3.618H290.92z"/>
	<path fill="#FFFFFF" d="M318.88,183.223c2.569-0.145,5.138-0.326,7.525-0.688l0.361,3.437c-7.019,1.375-14.507,1.375-20.151,1.375
		l-0.578-3.871c2.388,0,5.137,0,8.067-0.072v-2.822c-3.474-0.688-5.752-2.967-5.752-6.005c0-3.763,3.364-6.295,8.14-6.295
		s8.141,2.533,8.141,6.295c0,3.039-2.279,5.318-5.753,6.005V183.223z M326.261,166.979h-19.609v-3.763h7.453v-3.509h4.775v3.509
		h7.381V166.979z M316.492,177.254c2.171,0,3.618-0.941,3.618-2.677c0-1.737-1.447-2.677-3.618-2.677s-3.618,0.94-3.618,2.677
		C312.874,176.313,314.322,177.254,316.492,177.254z M337.042,177.073h-4.161v15.81h-4.775v-33.32h4.775v13.567h4.161V177.073z"/>
	<path fill="#FFFFFF" d="M359.466,176.603c-5.21,0.868-9.516,1.085-15.412,1.085h-2.533v-9.081h11.867v-4.341h-11.939v-2.207h14.544
		v8.647h-11.866v4.775c5.752,0,9.985-0.217,15.086-1.085L359.466,176.603z M365.435,186.516c0,3.69-4.016,5.861-10.6,5.861
		c-6.585,0-10.564-2.171-10.564-5.861c0-3.69,3.979-5.861,10.564-5.861C361.419,180.654,365.435,182.825,365.435,186.516z
		 M362.83,186.516c0-2.352-3.003-3.727-7.995-3.727c-4.921,0-7.996,1.375-7.996,3.727c0,2.352,3.075,3.762,7.996,3.762
		C359.827,190.278,362.83,188.867,362.83,186.516z M369.993,168.245v2.207h-4.884v9.153h-2.641v-19.573h2.641v8.212H369.993z"/>
	<path fill="#FFFFFF" d="M45.317,213.204v8.067h6.946v-8.067h4.739v22.973H40.577v-22.973H45.317z M45.317,232.378h6.946v-7.38
		h-6.946V232.378z M66.554,210.526v33.429h-4.776v-33.429H66.554z"/>
	<path fill="#FFFFFF" d="M102.328,226.191v3.763H72.227v-3.763H102.328z M99.108,224.383c-5.608-0.833-9.696-3.292-11.831-6.585
		c-2.098,3.292-6.15,5.752-11.794,6.585l-1.772-3.727c7.453-0.941,11.107-4.884,11.107-8.466v-1.013h4.92v1.013
		c0,3.545,3.69,7.525,11.107,8.466L99.108,224.383z M89.701,232.342c0,3.473,3.256,6.838,10.637,7.742l-1.773,3.69
		c-5.427-0.724-9.298-2.858-11.288-5.861c-2.026,3.002-5.897,5.137-11.324,5.861l-1.773-3.69c7.417-0.904,10.637-4.269,10.637-7.742
		v-0.615h4.884V232.342z"/>
	<path fill="#FFFFFF" d="M125.114,217.798h-19.609v-3.726h7.38v-3.545h4.812v3.545h7.453L125.114,217.798z M115.309,231.835
		c-4.775,0-8.176-2.605-8.176-6.44c0-3.763,3.401-6.403,8.176-6.403c4.776,0,8.177,2.641,8.177,6.403
		C123.486,229.23,120.085,231.835,115.309,231.835z M115.02,239.505h17.908v3.799h-22.684v-9.66h4.776V239.505z M115.309,228.217
		c2.099,0,3.618-0.977,3.618-2.822c0-1.809-1.52-2.786-3.618-2.786c-2.134,0-3.618,0.977-3.618,2.786
		C111.691,227.241,113.175,228.217,115.309,228.217z M136.148,220.729v3.943h-4.414v10.817h-4.775v-24.927h4.775v10.166H136.148z"/>
	<path fill="#FFFFFF" d="M162.622,225.468c-1.483,1.773-3.799,2.822-6.548,2.822c-4.775,0-8.285-3.184-8.285-7.67
		c0-4.45,3.51-7.598,8.285-7.598c2.75,0,5.029,1.049,6.512,2.75h8.574v-4.739h2.641v19.211h-2.641v-4.776H162.622z M156.074,226.047
		c3.292,0,5.752-2.279,5.752-5.427c0-3.111-2.46-5.354-5.752-5.354c-3.292,0-5.789,2.243-5.789,5.354
		C150.285,223.768,152.781,226.047,156.074,226.047z M173.91,237.154c0,3.871-4.052,6.187-10.745,6.187
		c-6.621,0-10.672-2.315-10.672-6.187c0-3.835,4.052-6.15,10.672-6.15C169.858,231.003,173.91,233.319,173.91,237.154z
		 M171.305,237.154c0-2.497-3.075-4.016-8.14-4.016c-4.993,0-8.068,1.52-8.068,4.016c0,2.532,3.075,4.052,8.068,4.052
		C168.23,241.206,171.305,239.686,171.305,237.154z M163.888,217.979c0.253,0.832,0.434,1.7,0.434,2.641
		c0,0.94-0.145,1.845-0.434,2.641h7.272v-5.282H163.888z"/>
	<path fill="#FFFFFF" d="M191.739,234.657c3.039-0.145,6.078-0.362,8.936-0.796l0.181,1.954c-6.946,1.23-14.616,1.303-20.26,1.303
		l-0.434-2.243c2.641,0,5.716,0,8.936-0.109v-3.69c-3.762-0.434-6.259-2.677-6.259-5.897c0-3.618,3.075-6.006,7.562-6.006
		c4.558,0,7.597,2.388,7.597,6.006c0,3.256-2.46,5.463-6.259,5.897V234.657z M200.096,217.219h-19.392v-2.171h8.393v-3.979h2.641
		v3.979h8.357V217.219z M190.401,229.05c3.075,0,5.101-1.556,5.101-3.871c0-2.352-2.026-3.908-5.101-3.908
		c-3.003,0-5.065,1.556-5.065,3.908C185.336,227.494,187.398,229.05,190.401,229.05z M210.516,227.132h-5.21v16.28h-2.641v-32.344
		h2.641v13.856h5.21V227.132z"/>
	<path fill="#FFFFFF" d="M239.486,228.796c-3.689-1.122-6.62-3.582-8.031-6.729c-1.375,3.437-4.414,6.114-8.249,7.417l-1.302-2.099
		c4.739-1.483,8.212-5.209,8.212-9.587v-0.687h-7.344v-2.171h7.344v-4.052h2.642v4.052h7.271v2.171h-7.308v0.687
		c0,4.016,3.328,7.562,7.995,8.973L239.486,228.796z M238.328,233.897c0.397,3.545,5.354,6.548,10.383,7.38l-1.013,2.026
		c-4.595-0.833-8.937-3.184-10.781-6.476c-1.809,3.328-6.15,5.607-10.745,6.439l-0.977-1.99c5.064-0.832,9.913-3.762,10.347-7.38
		h-9.153v-2.17h21.093v2.17H238.328z M251.75,219.173v2.207h-4.848v8.502h-2.641v-18.849h2.641v8.14H251.75z"/>
	<path fill="#FFFFFF" d="M271.823,224.817c0,6.837-3.364,11.251-8.067,11.251c-4.739,0-8.068-4.414-8.068-11.251
		c0-6.838,3.329-11.215,8.068-11.215C268.459,213.602,271.823,217.979,271.823,224.817z M269.291,224.817
		c0-5.318-2.279-8.864-5.535-8.864c-3.257,0-5.572,3.545-5.572,8.864c0,5.354,2.315,8.9,5.572,8.9
		C267.012,233.717,269.291,230.171,269.291,224.817z M285.355,226.336h-5.427v17.076h-2.642v-32.344h2.642v13.024h5.427V226.336z"/>
	<path fill="#FFFFFF" d="M317.8,236.973v2.207h-29.414v-2.207h7.345v-8.864c-2.75-1.411-4.414-3.726-4.414-6.657
		c0-5.029,4.885-8.285,11.722-8.285c6.838,0,11.687,3.256,11.687,8.285c0,2.931-1.629,5.209-4.342,6.657v8.864H317.8z
		 M303.038,227.566c5.318,0,9.189-2.46,9.189-6.114c0-3.69-3.871-6.15-9.189-6.15c-5.317,0-9.188,2.46-9.188,6.15
		C293.85,225.106,297.721,227.566,303.038,227.566z M298.371,236.973h9.407v-7.851c-1.411,0.362-3.039,0.579-4.74,0.579
		c-1.664,0-3.256-0.217-4.667-0.542V236.973z"/>
	<path fill="#FFFFFF" d="M326.041,226.843c-1.157,0-2.171,0.724-3.111,2.496l-1.7-1.158c1.411-2.496,3.184-3.582,4.884-3.582
		c3.147,0,4.921,3.473,7.2,3.473c1.157,0,2.17-0.688,3.111-2.46l1.664,1.194c-1.375,2.424-3.147,3.509-4.849,3.509
		C330.057,230.316,328.321,226.843,326.041,226.843z"/>
</g>
</svg>
