<?xml version="1.0" encoding="utf-8"?>
<!-- Generator: Adobe Illustrator 16.0.0, SVG Export Plug-In . SVG Version: 6.00 Build 0)  -->
<!DOCTYPE svg PUBLIC "-//W3C//DTD SVG 1.1//EN" "http://www.w3.org/Graphics/SVG/1.1/DTD/svg11.dtd">
<svg version="1.1" id="레이어_1" xmlns="http://www.w3.org/2000/svg" xmlns:xlink="http://www.w3.org/1999/xlink" x="0px"
	 y="0px" width="416px" height="624px" viewBox="0 0 416 624" enable-background="new 0 0 416 624" xml:space="preserve">
<rect x="-42" y="-49" fill="#1E1F26" width="505" height="697"/>
<g enable-background="new    ">
	<path fill="#441DB2" d="M52.644,53.359h23l14.063,38.254c1.788,5.124,3.217,10.726,4.886,16.207h0.596
		c1.788-5.481,3.217-11.083,4.886-16.207l13.585-38.254h23.12v88.663h-19.425v-30.389c0-8.818,1.668-22.047,2.741-30.746h-0.477
		l-7.388,21.213l-11.917,32.414H88.634l-12.036-32.414l-7.15-21.213h-0.477c1.072,8.699,2.741,21.928,2.741,30.746v30.389H52.644
		V53.359z"/>
	<path fill="#441DB2" d="M151.681,108.178c0-22.523,15.969-35.632,33.249-35.632c17.161,0,33.129,13.108,33.129,35.632
		c0,22.404-15.969,35.513-33.129,35.513C167.65,143.69,151.681,130.582,151.681,108.178z M196.37,108.178
		c0-11.321-3.575-18.472-11.44-18.472c-7.984,0-11.56,7.15-11.56,18.472c0,11.202,3.575,18.353,11.56,18.353
		C192.795,126.53,196.37,119.38,196.37,108.178z"/>
	<path fill="#441DB2" d="M227.596,108.178c0-22.523,15.969-35.632,33.248-35.632c17.161,0,33.13,13.108,33.13,35.632
		c0,22.404-15.969,35.513-33.13,35.513C243.565,143.69,227.596,130.582,227.596,108.178z M272.284,108.178
		c0-11.321-3.574-18.472-11.44-18.472c-7.984,0-11.559,7.15-11.559,18.472c0,11.202,3.574,18.353,11.559,18.353
		C268.71,126.53,272.284,119.38,272.284,108.178z"/>
	<path fill="#441DB2" d="M303.868,108.178c0-22.285,13.943-35.632,28.006-35.632c7.508,0,11.917,2.74,16.326,7.031l-0.834-10.13
		V46.805h21.331v95.218h-17.279l-1.55-6.555h-0.477c-4.767,4.768-11.321,8.223-17.756,8.223
		C314.713,143.69,303.868,130.225,303.868,108.178z M347.366,120.571V93.877c-3.218-2.979-6.912-4.052-10.487-4.052
		c-5.84,0-11.202,5.482-11.202,17.995c0,12.989,4.29,18.472,11.56,18.472C341.288,126.292,344.506,124.981,347.366,120.571z"/>
</g>
<g enable-background="new    ">
	<path fill="#FFFFFF" d="M42.143,53.332h23l14.063,38.254c1.788,5.124,3.217,10.726,4.886,16.207h0.596
		c1.788-5.481,3.217-11.083,4.886-16.207l13.585-38.254h23.12v88.663h-19.425v-30.389c0-8.818,1.668-22.047,2.741-30.746h-0.477
		l-7.388,21.213l-11.917,32.414H78.133l-12.036-32.414l-7.15-21.213H58.47c1.072,8.699,2.741,21.928,2.741,30.746v30.389H42.143
		V53.332z"/>
	<path fill="#FFFFFF" d="M141.18,108.15c0-22.523,15.969-35.632,33.249-35.632c17.161,0,33.129,13.108,33.129,35.632
		c0,22.404-15.969,35.513-33.129,35.513C157.149,143.663,141.18,130.555,141.18,108.15z M185.869,108.15
		c0-11.321-3.575-18.472-11.44-18.472c-7.984,0-11.56,7.15-11.56,18.472c0,11.202,3.575,18.353,11.56,18.353
		C182.294,126.503,185.869,119.353,185.869,108.15z"/>
	<path fill="#FFFFFF" d="M217.095,108.15c0-22.523,15.969-35.632,33.248-35.632c17.161,0,33.13,13.108,33.13,35.632
		c0,22.404-15.969,35.513-33.13,35.513C233.064,143.663,217.095,130.555,217.095,108.15z M261.783,108.15
		c0-11.321-3.574-18.472-11.44-18.472c-7.984,0-11.56,7.15-11.56,18.472c0,11.202,3.575,18.353,11.56,18.353
		C258.209,126.503,261.783,119.353,261.783,108.15z"/>
	<path fill="#FFFFFF" d="M293.367,108.15c0-22.285,13.943-35.632,28.006-35.632c7.508,0,11.917,2.74,16.326,7.031l-0.834-10.13
		V46.777h21.331v95.218h-17.279l-1.55-6.555h-0.477c-4.767,4.768-11.321,8.223-17.756,8.223
		C304.212,143.663,293.367,130.197,293.367,108.15z M336.865,120.544V93.85c-3.218-2.979-6.912-4.052-10.487-4.052
		c-5.84,0-11.202,5.482-11.202,17.995c0,12.989,4.29,18.472,11.56,18.472C330.787,126.265,334.005,124.954,336.865,120.544z"/>
</g>
<text transform="matrix(1 0 0 1 39.8943 210.7637)" fill="#FFFFFF" font-family="'NotoSansCJKkr-Bold-KSCpc-EUC-H'" font-size="34.4697">오늘 분위기</text>
<text transform="matrix(1 0 0 1 206.2781 210.7637)" fill="#FFFFFF" font-family="'NotoSansCJKkr-DemiLight-KSCpc-EUC-H'" font-size="34.4697">에 맞는</text>
<text transform="matrix(1 0 0 1 39.8943 258.7637)" fill="#FFFFFF" font-family="'NotoSansCJKkr-DemiLight-KSCpc-EUC-H'" font-size="34.4697">영화를 보고 싶네요!</text>
<g>
	<g>
		<polygon fill="#352D2A" points="222.52,586.555 205.723,573.248 264.23,517.912 281.031,531.22 		"/>
		<polygon fill="#352D2A" points="353.188,526.563 284.854,498.401 294.643,480.603 362.978,508.766 		"/>
	</g>
	<polygon fill="#443B36" points="103.629,538.081 98.796,518.817 195.099,500.716 273.26,514.617 358.155,507.757 434.026,514.768 
		431.606,534.369 358.003,527.568 272.001,534.519 195.232,520.863 	"/>
	<path fill="#80B53A" d="M93.639,487.996c-16.385-14.184-47.238-10.475-47.238-10.475s-4.282,26.703,12.105,40.887
		c5.1,4.413,11.599,7.092,18.129,8.691c-6.531,1.602-13.029,4.277-18.129,8.692c-16.388,14.182-12.105,40.887-12.105,40.887
		s30.854,3.706,47.238-10.477c13.846-11.982,12.938-32.898,12.323-39.101C106.576,520.896,107.485,499.979,93.639,487.996z"/>
	<path fill="#6D9133" d="M76.632,527.1c-6.532,1.602-13.028,4.277-18.127,8.691c-16.39,14.182-12.106,40.888-12.106,40.888
		s30.854,3.707,47.239-10.478c13.846-11.981,12.934-32.898,12.323-39.102H76.632L76.632,527.1z"/>
	<path fill="#80B53A" d="M174.563,556.81c-23.175,0-41.964,21.503-41.964,21.503s18.789,21.502,41.964,21.502
		c7.208,0,13.996-2.08,19.921-4.948c-3.313,5.129-5.718,11.004-5.718,17.243c0,20.056,24.844,36.317,24.844,36.317
		s24.846-16.259,24.846-36.317c0-16.946-17.733-31.182-23.235-35.191C210.586,572.156,194.141,556.81,174.563,556.81z"/>
	<path fill="#6D9133" d="M194.484,594.867c-3.313,5.131-5.718,11.005-5.718,17.243c0,20.059,24.844,36.317,24.844,36.317
		s24.846-16.259,24.846-36.317c0-16.946-17.732-31.182-23.235-35.19L194.484,594.867z"/>
</g>
<g>
	<g>
		<path fill="#EBAF4B" d="M182.394,497.383c-1.988,0-3.595,1.609-3.595,3.598v0.574c0,1.855-1.447,3.431-3.3,3.586l-31.848,2.653
			c-4.307,0.358-7.975,3.24-9.341,7.341l-2.098,6.293c-0.627,1.886,0.392,3.926,2.272,4.552c0.381,0.13,0.764,0.188,1.139,0.188
			c1.507,0,2.909-0.956,3.412-2.462l2.098-6.292c0.456-1.367,1.68-2.329,3.117-2.448l2.167-0.181v7.783
			c0,1.985,1.608,3.595,3.598,3.595c1.988,0,3.595-1.61,3.595-3.595v-8.384l4.096-0.343l3.287,9.864
			c0.504,1.506,1.903,2.459,3.41,2.459c0.377,0,0.761-0.058,1.14-0.188c1.884-0.628,2.902-2.666,2.273-4.549l-2.733-8.201
			l11.009-0.918c5.554-0.461,9.9-5.188,9.9-10.756v-0.575C185.993,498.992,184.385,497.383,182.394,497.383z"/>
		<path fill="#EBAF4B" d="M232.766,497.383c1.989,0,3.597,1.609,3.597,3.598v0.574c0,1.855,1.447,3.431,3.3,3.586l31.846,2.653
			c4.309,0.358,7.975,3.24,9.342,7.341l2.098,6.293c0.63,1.886-0.392,3.926-2.273,4.552c-0.379,0.13-0.763,0.188-1.137,0.188
			c-1.508,0-2.908-0.956-3.41-2.462l-2.099-6.292c-0.455-1.367-1.682-2.329-3.116-2.448l-2.168-0.181v7.783
			c0,1.985-1.609,3.595-3.599,3.595c-1.988,0-3.597-1.61-3.597-3.595v-8.384l-4.094-0.343l-3.289,9.864
			c-0.502,1.506-1.903,2.459-3.41,2.459c-0.375,0-0.761-0.058-1.139-0.188c-1.883-0.628-2.903-2.666-2.271-4.549l2.732-8.201
			l-11.011-0.918c-5.553-0.461-9.897-5.188-9.897-10.756v-0.575C229.167,498.992,230.776,497.383,232.766,497.383z"/>
	</g>
	<ellipse fill="#824D51" cx="207.58" cy="423.627" rx="86.349" ry="88.146"/>
	<ellipse fill="#C0826C" cx="207.58" cy="427.225" rx="57.563" ry="77.353"/>
	<path fill="#965A50" d="M304.723,360.665l-11.449,11.444c0.413-2.573,0.654-5.188,0.654-7.848
		c0-35.769-38.658-64.763-86.348-64.763c-47.69,0-86.351,28.994-86.351,64.763c0,2.656,0.242,5.271,0.657,7.848l-11.451-11.444
		c0,0-13.013,32.53-14.288,54.287c-0.104,1.776,1.295,3.276,3.071,3.276h7.622v7.955c0,1.625,1.259,2.967,2.877,3.074
		c8.401,0.563,33.938,1.369,59.9-6.824c-1.615-0.608,37.961-18.598,37.961-18.598s35.978,17.99,37.958,18.598
		c25.962,8.192,51.501,7.387,59.9,6.824c1.617-0.107,2.876-1.449,2.876-3.074v-7.955h7.621c1.778,0,3.176-1.502,3.074-3.276
		C317.735,393.195,304.723,360.665,304.723,360.665z"/>
	<path fill="#AF6E5A" d="M292.963,327.252c12.238-6.863,16.573-16.448,18.11-22.37c0.589-2.267-1.606-4.199-3.818-3.422
		c-27.602,9.689-72.555-4.285-95.108,33.924c-2.072,3.507-7.061,3.507-9.131,0c-22.56-38.208-67.51-24.235-95.113-33.924
		c-2.21-0.776-4.405,1.156-3.817,3.422c1.538,5.921,5.874,15.507,18.109,22.371c2.115,1.187,2.535,4.021,0.808,5.72
		c-11.339,11.137-17.791,27.228-15.803,44.776c2.774,24.507,22.49,44.362,46.979,47.28c22.729,2.708,43.064-8.734,53.402-26.668
		c10.339,17.932,30.675,29.374,53.4,26.668c24.491-2.918,44.205-22.773,46.979-47.28c1.985-17.55-4.467-33.642-15.803-44.776
		C290.429,331.271,290.85,328.438,292.963,327.252z"/>
	<circle fill="#EBAF4B" cx="160.808" cy="371.458" r="35.979"/>
	<circle fill="#FFC850" cx="160.808" cy="371.458" r="25.187"/>
	<path fill="#EBAF4B" d="M209.938,426.332l7.15-19.066c0.781-2.086,0.272-4.438-1.303-6.016l-3.117-3.117
		c-2.812-2.811-7.365-2.811-10.175,0l-3.118,3.117c-1.578,1.578-2.086,3.93-1.304,6.016l7.149,19.066
		C206.039,428.512,209.12,428.512,209.938,426.332z"/>
	<path fill="#4B3F4E" d="M160.808,389.447L160.808,389.447c-7.949,0-14.391-6.443-14.391-14.393v-7.195
		c0-7.948,6.443-14.391,14.391-14.391l0,0c7.949,0,14.392,6.442,14.392,14.391v7.195C175.2,383.004,168.755,389.447,160.808,389.447
		z"/>
	<circle fill="#FFFFFF" cx="162.606" cy="366.062" r="5.397"/>
	<circle fill="#EBAF4B" cx="254.352" cy="371.458" r="35.979"/>
	<circle fill="#FFC850" cx="254.352" cy="371.458" r="25.187"/>
	<path fill="#4B3F4E" d="M254.352,389.447L254.352,389.447c-7.948,0-14.392-6.443-14.392-14.393v-7.195
		c0-7.948,6.443-14.391,14.392-14.391l0,0c7.948,0,14.393,6.442,14.393,14.391v7.195C268.743,383.004,262.3,389.447,254.352,389.447
		z"/>
	<circle fill="#FFFFFF" cx="256.148" cy="366.062" r="5.397"/>
</g>
</svg>
